<svg width="70" height="70" viewBox="0 0 70 70" fill="none" xmlns="http://www.w3.org/2000/svg">
<rect x="0.5" y="0.5" width="69" height="69" stroke="#B9B5FF" stroke-dasharray="10 10"/>
<path d="M41 35.998H36V40.998C36 41.2633 35.8946 41.5176 35.7071 41.7052C35.5196 41.8927 35.2652 41.998 35 41.998C34.7348 41.998 34.4804 41.8927 34.2929 41.7052C34.1054 41.5176 34 41.2633 34 40.998V35.998H29C28.7348 35.998 28.4804 35.8927 28.2929 35.7052C28.1054 35.5176 28 35.2633 28 34.998C28 34.7328 28.1054 34.4785 28.2929 34.2909C28.4804 34.1034 28.7348 33.998 29 33.998H34V28.998C34 28.7328 34.1054 28.4785 34.2929 28.2909C34.4804 28.1034 34.7348 27.998 35 27.998C35.2652 27.998 35.5196 28.1034 35.7071 28.2909C35.8946 28.4785 36 28.7328 36 28.998V33.998H41C41.2652 33.998 41.5196 34.1034 41.7071 34.2909C41.8946 34.4785 42 34.7328 42 34.998C42 35.2633 41.8946 35.5176 41.7071 35.7052C41.5196 35.8927 41.2652 35.998 41 35.998Z" fill="#B9B5FF"/>
</svg>
