<svg width="24" height="24" viewBox="0 0 24 24" fill="none" xmlns="http://www.w3.org/2000/svg">
<path d="M10.5301 8.52918C10.6038 8.46051 10.6629 8.37771 10.7039 8.28571C10.7448 8.19372 10.7669 8.0944 10.7687 7.9937C10.7704 7.893 10.7519 7.79297 10.7142 7.69958C10.6765 7.60619 10.6203 7.52136 10.5491 7.45014C10.4779 7.37892 10.3931 7.32278 10.2997 7.28505C10.2063 7.24733 10.1063 7.22881 10.0056 7.23059C9.90485 7.23236 9.80553 7.2544 9.71353 7.2954C9.62153 7.33639 9.53873 7.39549 9.47007 7.46918L5.47007 11.4692C5.32962 11.6098 5.25073 11.8004 5.25073 11.9992C5.25073 12.1979 5.32962 12.3886 5.47007 12.5292L9.47007 16.5292C9.53873 16.6029 9.62153 16.662 9.71353 16.703C9.80553 16.7439 9.90485 16.766 10.0056 16.7678C10.1063 16.7695 10.2063 16.751 10.2997 16.7133C10.3931 16.6756 10.4779 16.6194 10.5491 16.5482C10.6203 16.477 10.6765 16.3922 10.7142 16.2988C10.7519 16.2054 10.7704 16.1054 10.7687 16.0047C10.7669 15.904 10.7448 15.8046 10.7039 15.7126C10.6629 15.6206 10.6038 15.5378 10.5301 15.4692L7.81007 12.7492H17.5001C17.699 12.7492 17.8898 12.6702 18.0304 12.5295C18.1711 12.3889 18.2501 12.1981 18.2501 11.9992C18.2501 11.8003 18.1711 11.6095 18.0304 11.4688C17.8898 11.3282 17.699 11.2492 17.5001 11.2492H7.81007L10.5301 8.52918Z" fill="#6C63FF"/>
</svg>
