<svg width="24" height="24" viewBox="0 0 24 24" fill="none" xmlns="http://www.w3.org/2000/svg">
<path d="M13.4699 8.52918C13.3962 8.46051 13.3371 8.37771 13.2961 8.28571C13.2552 8.19372 13.2331 8.0944 13.2313 7.9937C13.2296 7.893 13.2481 7.79297 13.2858 7.69958C13.3235 7.60619 13.3797 7.52136 13.4509 7.45014C13.5221 7.37892 13.6069 7.32278 13.7003 7.28505C13.7937 7.24733 13.8937 7.22881 13.9944 7.23059C14.0952 7.23236 14.1945 7.2544 14.2865 7.2954C14.3785 7.33639 14.4613 7.39549 14.5299 7.46918L18.5299 11.4692C18.6704 11.6098 18.7493 11.8004 18.7493 11.9992C18.7493 12.1979 18.6704 12.3886 18.5299 12.5292L14.5299 16.5292C14.4613 16.6029 14.3785 16.662 14.2865 16.703C14.1945 16.7439 14.0952 16.766 13.9944 16.7678C13.8937 16.7695 13.7937 16.751 13.7003 16.7133C13.6069 16.6756 13.5221 16.6194 13.4509 16.5482C13.3797 16.477 13.3235 16.3922 13.2858 16.2988C13.2481 16.2054 13.2296 16.1054 13.2313 16.0047C13.2331 15.904 13.2552 15.8046 13.2961 15.7126C13.3371 15.6206 13.3962 15.5378 13.4699 15.4692L16.1899 12.7492H6.49993C6.30101 12.7492 6.11025 12.6702 5.9696 12.5295C5.82894 12.3889 5.74993 12.1981 5.74993 11.9992C5.74993 11.8003 5.82894 11.6095 5.9696 11.4688C6.11025 11.3282 6.30101 11.2492 6.49993 11.2492H16.1899L13.4699 8.52918Z" fill="#6C63FF"/>
</svg>
