<svg width="40" height="38" viewBox="0 0 40 38" fill="none" xmlns="http://www.w3.org/2000/svg">
<path d="M1.36242 17.1149L36.7791 0.448265C37.1357 0.280453 37.5326 0.21725 37.9238 0.265996C38.3149 0.314741 38.6841 0.473435 38.9887 0.72365C39.2932 0.973864 39.5205 1.30533 39.6442 1.67956C39.7679 2.0538 39.7829 2.45544 39.6874 2.83785L37.1624 12.9399L20.9999 19.0003L37.1624 25.0608L39.6874 35.1628C39.7847 35.5455 39.7709 35.948 39.6478 36.3232C39.5247 36.6984 39.2973 37.0307 38.9922 37.2814C38.6871 37.532 38.317 37.6906 37.9251 37.7387C37.5331 37.7867 37.1357 37.7221 36.7791 37.5524L1.36242 20.8858C1.00451 20.7175 0.701889 20.4509 0.48991 20.117C0.277935 19.7831 0.165363 19.3958 0.165363 19.0003C0.165363 18.6049 0.277935 18.2176 0.48991 17.8837C0.701889 17.5498 1.00451 17.2832 1.36242 17.1149Z" fill="#6C63FF"/>
</svg>
