<svg width="33" height="33" viewBox="0 0 33 33" fill="none" xmlns="http://www.w3.org/2000/svg">
<path fill-rule="evenodd" clip-rule="evenodd" d="M11.22 5.5C10.4929 5.50023 9.7788 5.69265 9.15002 6.05775C8.52124 6.42284 8.00014 6.94765 7.6395 7.579L4.89913 12.375H3.3C3.15413 12.375 3.01424 12.4329 2.91109 12.5361C2.80795 12.6392 2.75 12.7791 2.75 12.925V13.5781C2.74973 13.8237 2.83161 14.0622 2.98261 14.2558C3.13361 14.4494 3.34505 14.587 3.58325 14.6465L3.61625 14.6534C3.0421 15.845 2.82392 17.1771 2.98788 18.4896L3.98475 26.466C4.06788 27.1312 4.39114 27.7432 4.89376 28.1868C5.39638 28.6304 6.04373 28.8751 6.71413 28.875H6.875C7.60435 28.875 8.30382 28.5853 8.81954 28.0695C9.33527 27.5538 9.625 26.8543 9.625 26.125H23.375C23.375 26.8543 23.6647 27.5538 24.1805 28.0695C24.6962 28.5853 25.3957 28.875 26.125 28.875H26.2859C26.9563 28.8751 27.6036 28.6304 28.1062 28.1868C28.6089 27.7432 28.9321 27.1312 29.0152 26.466L30.0121 18.491C30.1761 17.1784 29.9579 15.8464 29.3837 14.6547L29.4167 14.6465C29.6549 14.587 29.8664 14.4494 30.0174 14.2558C30.1684 14.0622 30.2503 13.8237 30.25 13.5781V12.925C30.25 12.7791 30.1921 12.6392 30.0889 12.5361C29.9858 12.4329 29.8459 12.375 29.7 12.375H28.1009L25.3605 7.579C24.9999 6.94765 24.4788 6.42284 23.85 6.05775C23.2212 5.69265 22.5071 5.50023 21.78 5.5H11.22ZM25.3302 13.068L22.9735 8.943C22.8532 8.73235 22.6793 8.55728 22.4694 8.43557C22.2595 8.31386 22.0212 8.24984 21.7786 8.25H11.2214C10.9788 8.24984 10.7405 8.31386 10.5306 8.43557C10.3207 8.55728 10.1468 8.73235 10.0265 8.943L7.66975 13.068C7.55032 13.2771 7.48789 13.5139 7.4887 13.7546C7.48951 13.9954 7.55355 14.2318 7.67439 14.4401C7.79523 14.6483 7.96864 14.8212 8.17728 14.9414C8.38592 15.0616 8.62246 15.1249 8.86325 15.125H24.1368C24.3775 15.1249 24.6141 15.0616 24.8227 14.9414C25.0314 14.8212 25.2048 14.6483 25.3256 14.4401C25.4465 14.2318 25.5105 13.9954 25.5113 13.7546C25.5121 13.5139 25.4497 13.2771 25.3302 13.068ZM6.875 20.6786V19.7161C6.87493 19.597 6.90582 19.4799 6.96462 19.3763C7.02342 19.2728 7.10813 19.1862 7.21043 19.1252C7.31274 19.0642 7.42914 19.0309 7.54823 19.0284C7.66731 19.0259 7.785 19.0544 7.88975 19.1111L11.66 21.1461C12.1729 21.4239 11.9598 22.2035 11.3767 22.1801L8.195 22.0522C7.84042 22.0381 7.50506 21.8873 7.25904 21.6316C7.01303 21.3758 6.87543 21.0349 6.875 20.68V20.6786ZM26.125 19.7161V20.6786C26.1253 21.034 25.988 21.3756 25.7419 21.632C25.4958 21.8883 25.1601 22.0394 24.805 22.0536L21.6232 22.1801C21.0402 22.2035 20.8258 21.4239 21.34 21.1461L25.1102 19.1111C25.215 19.0544 25.3327 19.0259 25.4518 19.0284C25.5709 19.0309 25.6873 19.0642 25.7896 19.1252C25.8919 19.1862 25.9766 19.2728 26.0354 19.3763C26.0942 19.4799 26.1251 19.597 26.125 19.7161Z" fill="#C2BFFF"/>
</svg>
