<svg width="16" height="16" viewBox="0 0 16 16" fill="none" xmlns="http://www.w3.org/2000/svg">
<path d="M7.99996 0.666016C3.94921 0.666016 0.666626 3.94952 0.666626 7.99935C0.666626 12.0492 3.94921 15.3327 7.99996 15.3327C12.0507 15.3327 15.3333 12.0492 15.3333 7.99935C15.3333 3.94952 12.0507 0.666016 7.99996 0.666016ZM11.398 10.1013C11.5699 10.2731 11.6665 10.5063 11.6665 10.7493C11.6665 10.9924 11.5699 11.2255 11.398 11.3974C11.2262 11.5693 10.993 11.6659 10.75 11.6659C10.5069 11.6659 10.2738 11.5693 10.1019 11.3974L7.99996 9.29552L5.89804 11.3974C5.81311 11.4829 5.71213 11.5506 5.60091 11.5969C5.48969 11.6432 5.37042 11.667 5.24996 11.667C5.1295 11.667 5.01023 11.6432 4.89901 11.5969C4.78779 11.5506 4.68681 11.4829 4.60188 11.3974C4.43003 11.2255 4.33349 10.9924 4.33349 10.7493C4.33349 10.5063 4.43003 10.2732 4.60188 10.1013L6.70379 7.99935L4.60188 5.89743C4.42999 5.72555 4.33343 5.49243 4.33343 5.24935C4.33343 5.00627 4.42999 4.77315 4.60188 4.60127C4.77376 4.42938 5.00688 4.33282 5.24996 4.33282C5.49304 4.33282 5.72616 4.42938 5.89804 4.60127L7.99996 6.70318L10.1019 4.60127C10.2738 4.42938 10.5069 4.33282 10.75 4.33282C10.993 4.33282 11.2262 4.42938 11.398 4.60127C11.5699 4.77315 11.6665 5.00627 11.6665 5.24935C11.6665 5.49243 11.5699 5.72555 11.398 5.89743L9.29613 7.99935L11.398 10.1013Z" fill="#716D97"/>
</svg>
