<svg width="389" height="395" viewBox="0 0 389 395" fill="none" xmlns="http://www.w3.org/2000/svg">
<path d="M110.208 382.949L122.468 382.948L128.3 335.66L110.206 335.661L110.208 382.949Z" fill="#FFB6B6"/>
<path d="M107.081 378.946L131.225 378.945H131.226C135.306 378.946 139.22 380.567 142.105 383.452C144.991 386.338 146.612 390.251 146.612 394.332V394.832L107.081 394.833L107.081 378.946Z" fill="#2F2E41"/>
<path d="M13.2076 382.949L25.4676 382.948L31.2996 335.66L13.2056 335.661L13.2076 382.949Z" fill="#FFB6B6"/>
<path d="M10.0806 378.946L34.2246 378.945H34.2256C38.3062 378.946 42.2197 380.567 45.1051 383.452C47.9906 386.338 49.6117 390.251 49.612 394.332V394.832L10.0813 394.833L10.0806 378.946Z" fill="#2F2E41"/>
<path d="M33.9998 188.707L25.7368 196.312L16.4238 288.188L10.1548 361.345L29.0998 363.9L75.0518 238.901L108.675 363.307L131.343 363.9L116.298 201.507L33.9998 188.707Z" fill="#2F2E41"/>
<path d="M73.9308 52.8538C86.9295 52.8538 97.4671 42.3162 97.4671 29.3175C97.4671 16.3188 86.9295 5.78125 73.9308 5.78125C60.9321 5.78125 50.3945 16.3188 50.3945 29.3175C50.3945 42.3162 60.9321 52.8538 73.9308 52.8538Z" fill="#FFB9B9"/>
<path d="M61.8855 18.3883C61.8855 18.3883 59.0795 24.4608 70.3035 22.0318C70.3035 22.0318 74.5125 24.4608 74.5125 20.8173C74.5125 20.8173 80.1245 26.8898 81.5275 23.2463C82.9305 19.6028 85.7365 24.4608 85.7365 24.4608L88.5424 18.3883L91.3484 22.0318H101.169C101.169 22.0318 103.975 -2.25826 70.3035 0.170747C36.6315 2.59976 53.1963 41.085 53.1963 41.085C53.1963 41.085 53.4675 34.1768 56.2735 37.8203C59.0795 41.4639 61.8855 18.3883 61.8855 18.3883Z" fill="#2F2E41"/>
<path d="M91.864 60.5348L58.6752 58.457L29.0997 66.3025L33.5827 142.515L25.7373 196.312C25.7373 196.312 68.7816 222.625 117.641 201.916L113 189.708C113 189.708 112.84 171.023 108.92 167.365C105 163.708 105.312 133.549 105.312 133.549L119.882 77.5103L91.864 60.5348Z" fill="#3F3D56"/>
<path d="M37 68.7099L29.0996 66.3047C29.0996 66.3047 16.7953 66.7154 10.3976 80.7127C4 94.7099 0 114.71 0 114.71L40.6339 116.179L37 68.7099Z" fill="#3F3D56"/>
<path d="M110 84.7091L119.882 77.5117C119.882 77.5117 138.871 92.3627 138.935 125.036L112.445 131.461L97.4668 109.918L110 84.7091Z" fill="#3F3D56"/>
<path d="M370.346 101.227H53.031C50.6222 101.227 48.237 101.701 46.0116 102.623C43.7862 103.545 41.7641 104.896 40.0609 106.599C38.3576 108.302 37.0065 110.324 36.0847 112.55C35.1629 114.775 34.6885 117.16 34.6885 119.569V195.884C34.6885 198.293 35.1629 200.678 36.0847 202.903C37.0065 205.129 38.3576 207.151 40.0609 208.854C41.7641 210.557 43.7862 211.909 46.0116 212.83C48.237 213.752 50.6222 214.227 53.031 214.227H57.6885V228.014C57.6885 228.851 57.9366 229.669 58.4014 230.364C58.8662 231.06 59.5269 231.602 60.2998 231.922C61.0728 232.242 61.9233 232.326 62.7439 232.163C63.5645 232 64.3182 231.597 64.9098 231.005L81.6885 214.227H370.346C372.755 214.227 375.14 213.752 377.365 212.83C379.591 211.909 381.613 210.557 383.316 208.854C385.019 207.151 386.37 205.129 387.292 202.903C388.214 200.678 388.688 198.293 388.688 195.884V119.569C388.688 117.16 388.214 114.775 387.292 112.55C386.37 110.324 385.019 108.302 383.316 106.599C381.613 104.896 379.591 103.545 377.365 102.623C375.14 101.701 372.755 101.227 370.346 101.227Z" fill="#D8D8D8"/>
<path d="M294.031 204.73H53.0312C50.6868 204.727 48.4391 203.795 46.7814 202.137C45.1236 200.479 44.1911 198.232 44.1885 195.887V119.573C44.1912 117.228 45.1236 114.981 46.7813 113.323C48.439 111.666 50.6865 110.733 53.0308 110.73H370.346C372.69 110.733 374.938 111.666 376.596 113.323C378.253 114.981 379.186 117.229 379.188 119.573C379.163 142.15 370.183 163.796 354.218 179.76C338.254 195.725 316.608 204.705 294.031 204.73Z" fill="white"/>
<path d="M279.021 127.227H145.021C141.708 127.227 139.021 129.913 139.021 133.227V133.227C139.021 136.54 141.708 139.227 145.021 139.227H279.021C282.335 139.227 285.021 136.54 285.021 133.227C285.021 129.913 282.335 127.227 279.021 127.227Z" fill="#6C63FF"/>
<path d="M307.521 151.227H116.521C113.208 151.227 110.521 153.913 110.521 157.227V157.227C110.521 160.54 113.208 163.227 116.521 163.227H307.521C310.835 163.227 313.521 160.54 313.521 157.227C313.521 153.913 310.835 151.227 307.521 151.227Z" fill="#E6E6E6"/>
<path d="M307.521 175.227H116.521C113.208 175.227 110.521 177.913 110.521 181.227V181.227C110.521 184.54 113.208 187.227 116.521 187.227H307.521C310.835 187.227 313.521 184.54 313.521 181.227C313.521 177.913 310.835 175.227 307.521 175.227Z" fill="#E6E6E6"/>
<path d="M68.5002 99.707C68.5002 96.9223 67.3939 94.2515 65.4248 92.2824C63.4556 90.3133 60.7849 89.207 58.0002 89.207C55.2154 89.207 52.5447 90.3133 50.5755 92.2824C48.6064 94.2515 47.5002 96.9223 47.5002 99.707C47.5002 99.8095 47.5124 99.9088 47.5153 100.011L29.0998 118.426L30.5002 115.207L9.50014 114.207L6.43666 136.379C6.16829 138.426 6.54196 140.506 7.50611 142.331C8.47025 144.156 9.97731 145.637 11.8192 146.57C13.6611 147.502 15.747 147.839 17.7889 147.535C19.8307 147.231 21.7279 146.301 23.2184 144.873L59.5187 110.085C62.0125 109.722 64.2923 108.473 65.9414 106.568C67.5905 104.662 68.4988 102.227 68.5002 99.707Z" fill="#FFB9B9"/>
</svg>
