<svg width="193" height="193" viewBox="0 0 193 193" fill="none" xmlns="http://www.w3.org/2000/svg">
<circle cx="96.5" cy="96.5" r="96.5" fill="#D9D8FF"/>
<path fill-rule="evenodd" clip-rule="evenodd" d="M64.177 43.8633C59.9521 43.8633 55.9003 45.5416 52.9128 48.5291C49.9254 51.5165 48.2471 55.5684 48.2471 59.7932V134.133C48.2471 138.358 49.9254 142.41 52.9128 145.397C55.9003 148.385 59.9521 150.063 64.177 150.063H96.037C100.262 150.063 104.314 148.385 107.301 145.397C110.289 142.41 111.967 138.358 111.967 134.133V59.7932C111.967 55.5684 110.289 51.5165 107.301 48.5291C104.314 45.5416 100.262 43.8633 96.037 43.8633H64.177ZM118.833 71.969C119.828 70.9736 121.179 70.4144 122.587 70.4144C123.995 70.4144 125.345 70.9736 126.341 71.969L147.581 93.209C148.576 94.2048 149.136 95.5551 149.136 96.9632C149.136 98.3712 148.576 99.7215 147.581 100.717L126.341 121.957C125.34 122.925 123.998 123.46 122.606 123.448C121.214 123.436 119.882 122.877 118.897 121.893C117.913 120.908 117.354 119.576 117.342 118.184C117.33 116.792 117.865 115.45 118.833 114.449L131.009 102.273H85.417C84.0087 102.273 82.6581 101.714 81.6623 100.718C80.6664 99.7221 80.107 98.3715 80.107 96.9632C80.107 95.5549 80.6664 94.2042 81.6623 93.2084C82.6581 92.2126 84.0087 91.6532 85.417 91.6532H131.009L118.833 79.4774C117.837 78.4816 117.278 77.1312 117.278 75.7232C117.278 74.3152 117.837 72.9648 118.833 71.969Z" fill="#6C63FF"/>
</svg>
