<svg width="16" height="12" viewBox="0 0 16 12" fill="none" xmlns="http://www.w3.org/2000/svg">
<path d="M15.5253 0.764814C15.6423 0.882002 15.7081 1.04086 15.7081 1.20648C15.7081 1.37211 15.6423 1.53096 15.5253 1.64815L5.94196 11.2315C5.88327 11.2906 5.81331 11.3374 5.73622 11.369C5.65913 11.4005 5.57648 11.4163 5.49318 11.4154C5.40987 11.4145 5.3276 11.3968 5.25124 11.3635C5.17488 11.3302 5.10598 11.2819 5.04863 11.2215L0.465293 6.42981C0.405989 6.37103 0.359065 6.30097 0.327291 6.22375C0.295518 6.14653 0.279539 6.06373 0.280299 5.98023C0.28106 5.89673 0.298543 5.81424 0.331717 5.73761C0.364892 5.66098 0.413084 5.59178 0.473449 5.53409C0.533813 5.4764 0.605126 5.43139 0.683176 5.40171C0.761226 5.37204 0.84443 5.35831 0.927875 5.36133C1.01132 5.36435 1.09331 5.38406 1.16902 5.41929C1.24472 5.45453 1.31259 5.50458 1.36863 5.56648L5.51029 9.89565L14.642 0.764814C14.7591 0.647772 14.918 0.582031 15.0836 0.582031C15.2493 0.582031 15.4081 0.647772 15.5253 0.764814Z" fill="white"/>
</svg>
