<svg width="32" height="29" viewBox="0 0 32 29" fill="none" xmlns="http://www.w3.org/2000/svg">
<path d="M17.4708 27.8457C17.1879 27.8457 16.9074 27.7942 16.6294 27.6912C16.3513 27.5891 16.1068 27.4321 15.8958 27.2201L14.2217 25.7107C11.6258 23.3531 9.33625 21.0601 7.35292 18.8318C5.36764 16.6044 4.375 14.2891 4.375 11.8857C4.375 10.0307 5.005 8.47324 6.265 7.21324C7.525 5.95324 9.0825 5.32324 10.9375 5.32324C12.0011 5.32324 13.109 5.59206 14.261 6.1297C15.4131 6.66734 16.4928 7.68137 17.5 9.17178C18.5082 7.68137 19.5878 6.66734 20.739 6.1297C21.8901 5.59206 22.9979 5.32324 24.0625 5.32324C25.9175 5.32324 27.475 5.95324 28.735 7.21324C29.995 8.47324 30.625 10.0307 30.625 11.8857C30.625 14.3445 29.592 16.708 27.526 18.9762C25.4601 21.2444 23.1987 23.4912 20.7419 25.7166L19.0765 27.2201C18.8645 27.4321 18.6151 27.5891 18.3283 27.6912C18.0415 27.7932 17.7562 27.8448 17.4723 27.8457M16.7869 10.6855C15.9138 9.27776 15.0063 8.27491 14.0642 7.67699C13.1221 7.08005 12.0799 6.78158 10.9375 6.78158C9.47917 6.78158 8.26389 7.26769 7.29167 8.23991C6.31944 9.21213 5.83333 10.4274 5.83333 11.8857C5.83333 12.963 6.13812 14.0674 6.74771 15.1991C7.35729 16.3317 8.1759 17.4916 9.20354 18.6787C10.2302 19.8648 11.411 21.0791 12.7458 22.3216C14.0787 23.5631 15.4671 24.8411 16.9108 26.1555C17.079 26.3053 17.2754 26.3801 17.5 26.3801C17.7246 26.3801 17.921 26.3053 18.0892 26.1555C19.5329 24.8411 20.9217 23.5626 22.2556 22.3201C23.5895 21.0796 24.7703 19.8657 25.7979 18.6787C26.8246 17.4906 27.6427 16.3307 28.2523 15.1991C28.8619 14.0674 29.1667 12.963 29.1667 11.8857C29.1667 10.4274 28.6806 9.21213 27.7083 8.23991C26.7361 7.26769 25.5208 6.78158 24.0625 6.78158C22.9201 6.78158 21.8779 7.08053 20.9358 7.67845C19.9928 8.27539 19.0852 9.27776 18.2131 10.6855C18.1353 10.8168 18.0313 10.915 17.901 10.9801C17.7708 11.0453 17.6371 11.0778 17.5 11.0778C17.3629 11.0778 17.2292 11.0453 17.099 10.9801C16.9687 10.915 16.8651 10.8168 16.7883 10.6855" fill="#A3A0DD"/>
</svg>
