<svg width="16" height="24" viewBox="0 0 16 24" fill="none" xmlns="http://www.w3.org/2000/svg">
<path d="M0.5 4.75C0.5 3.35 0.5 2.65 0.7725 2.115C1.01218 1.64462 1.39462 1.26218 1.865 1.0225C2.4 0.75 3.1 0.75 4.5 0.75H11.5C12.9 0.75 13.6 0.75 14.135 1.0225C14.6054 1.26218 14.9878 1.64462 15.2275 2.115C15.5 2.65 15.5 3.35 15.5 4.75V21.3812C15.5 21.9887 15.5 22.2925 15.3738 22.4588C15.3192 22.5311 15.2496 22.5906 15.1697 22.6334C15.0899 22.6761 15.0017 22.701 14.9112 22.7063C14.7025 22.7188 14.45 22.55 13.945 22.2137L8 18.25L2.055 22.2125C1.55 22.55 1.2975 22.7188 1.0875 22.7063C0.997295 22.7008 0.909346 22.6758 0.829716 22.6331C0.750085 22.5904 0.680668 22.5309 0.62625 22.4588C0.5 22.2925 0.5 21.9887 0.5 21.3812V4.75Z" stroke="#A3A0DD" stroke-linecap="round" stroke-linejoin="round"/>
</svg>
