<svg width="262" height="386" viewBox="0 0 262 386" fill="none" xmlns="http://www.w3.org/2000/svg">
<g clip-path="url(#clip0_1480_1107)">
<rect x="73.312" width="188.688" height="386" rx="31" fill="white"/>
<path d="M228.989 386H106.252C88.0493 386 73.241 371.212 73.241 353.035V32.9648C73.241 14.7878 88.0493 0 106.252 0H228.989C247.192 0 262 14.7878 262 32.9648V353.035C262 371.212 247.192 386 228.989 386ZM106.252 1.26934C88.7484 1.26934 74.5121 15.4859 74.5121 32.9648V353.035C74.5121 370.514 88.7484 384.731 106.252 384.731H228.989C246.492 384.731 260.729 370.514 260.729 353.035V32.9648C260.729 15.4859 246.492 1.26934 228.989 1.26934H106.252Z" fill="#858299"/>
<path d="M185.003 30.0571H150.244C145.656 30.0571 141.925 26.3316 141.925 21.7492C141.925 17.1669 145.656 13.4414 150.244 13.4414H185.003C189.591 13.4414 193.322 17.1669 193.322 21.7492C193.322 26.3316 189.591 30.0571 185.003 30.0571Z" fill="#858299"/>
<path d="M136.695 385.333C136.695 385.676 136.415 385.955 136.072 385.955H0.622841C0.279643 385.955 0 385.676 0 385.333C0 384.99 0.279643 384.711 0.622841 384.711H136.072C136.415 384.711 136.695 384.99 136.695 385.333Z" fill="#3F3D58"/>
<path d="M75.7324 193.009L88.221 197.109V179.16H76.8891L75.7324 193.009Z" fill="#F6AAAE"/>
<path d="M86.6702 184.131C93.5429 184.131 99.1143 178.567 99.1143 171.704C99.1143 164.841 93.5429 159.277 86.6702 159.277C79.7975 159.277 74.2261 164.841 74.2261 171.704C74.2261 178.567 79.7975 184.131 86.6702 184.131Z" fill="#F6AAAE"/>
<path d="M83.5052 172.676L85.2211 174.758L88.3226 169.338C88.3226 169.338 92.2821 169.541 92.2821 166.609C92.2821 163.677 95.9175 163.594 95.9175 163.594C95.9175 163.594 101.059 154.626 90.4073 156.987C90.4073 156.987 83.0158 151.929 79.3423 156.251C79.3423 156.251 68.074 161.919 71.2962 171.788L76.6539 181.955L77.8678 179.651C77.8678 179.651 77.1306 169.985 83.5052 172.676Z" fill="#2F2E43"/>
<path d="M82.3484 363.09H72.2939V377.332H82.3484V363.09Z" fill="#F6AAAE"/>
<path d="M81.2427 385.494C79.5204 385.652 70.9214 386.325 70.4892 384.358C70.0951 382.549 70.6735 380.658 70.7561 380.404C71.5823 372.191 71.8874 372.096 72.0717 372.039C72.3641 371.956 73.222 372.356 74.6076 373.251L74.6965 373.308L74.7156 373.41C74.741 373.537 75.3575 376.551 78.2683 376.094C80.264 375.777 80.9122 375.339 81.122 375.123C80.9504 375.047 80.7406 374.914 80.5944 374.679C80.3784 374.343 80.3402 373.911 80.4801 373.397C80.855 372.032 81.98 370.014 82.0244 369.932L82.1516 369.703L93.5788 377.402L100.633 379.414C101.167 379.566 101.593 379.947 101.809 380.454C102.108 381.165 101.924 381.99 101.352 382.504C100.068 383.653 97.5256 385.627 94.8499 385.868C94.1381 385.932 93.1975 385.957 92.1424 385.957C87.7254 385.957 81.2872 385.5 81.2364 385.494L81.2427 385.494Z" fill="#2F2E43"/>
<path d="M50.9883 341.702L41.8975 352.676L49.6446 359.076L58.7354 348.102L50.9883 341.702Z" fill="#F6AAAE"/>
<path d="M43.5925 364.669C42.1688 363.692 35.1079 358.741 36.0294 356.951C36.881 355.308 38.5335 354.222 38.7623 354.076C44.6411 348.275 44.9398 348.396 45.1178 348.472C45.3974 348.593 45.7978 349.45 46.2999 351.017L46.3317 351.112L46.2809 351.201C46.2173 351.315 44.7682 354.032 47.3041 355.53C49.0455 356.558 49.8272 356.628 50.1196 356.596C50.037 356.431 49.9607 356.19 49.9925 355.917C50.037 355.523 50.2848 355.162 50.7297 354.857C51.8928 354.045 54.041 353.207 54.1363 353.169L54.3778 353.074L58.2674 366.281L62.4175 372.323C62.7289 372.78 62.8179 373.345 62.659 373.878C62.4366 374.614 61.7693 375.135 60.9939 375.166C59.2715 375.236 56.0557 375.135 53.8376 373.618C53.2529 373.218 52.5093 372.64 51.6958 371.968C48.2956 369.156 43.6243 364.707 43.5861 364.669L43.5925 364.669Z" fill="#2F2E43"/>
<path d="M98.9809 253.246H64.4958L72.1606 367.081H83.6577L98.9873 253.246L98.9809 253.246Z" fill="#2F2E43"/>
<path d="M91.958 259.517L98.9808 253.246L95.4662 315.85L56.1891 353.156L46.4016 345.077L69.2815 315.425L91.958 259.517Z" fill="#2F2E43"/>
<path d="M91.958 186.28L74.9252 183.52L69.6374 192.754C62.9132 204.495 60.174 218.09 61.8201 231.513L64.4958 253.251H98.9808L91.958 186.287L91.958 186.28Z" fill="#DADBDC"/>
<path d="M78.1284 273.738C78.8339 277.248 77.5183 280.453 75.1985 280.897C72.8724 281.335 70.4192 278.847 69.7137 275.331C69.415 273.928 69.4659 272.481 69.8663 271.104L67.0698 256.183L74.3787 255.047L76.3552 269.879C77.2577 271.015 77.8679 272.335 78.1284 273.744V273.738Z" fill="#F6AAAE"/>
<path d="M69.2372 269.696L58.5027 236.579V236.529L62.5575 202.428C63.1803 197.204 67.6165 193.27 72.8789 193.27C76.1011 193.27 79.0882 194.723 81.0711 197.262C83.0541 199.8 83.7468 203.043 82.9651 206.172L75.8024 234.777L77.512 267.24L69.2308 269.697L69.2372 269.696Z" fill="#DADBDC"/>
<path d="M130.651 196.933C133.631 212.831 148.954 223.31 164.881 220.327C169.699 219.425 174.021 217.395 177.618 214.558L213.844 253.577C216.062 255.963 219.844 255.957 222.056 253.558C224.121 251.318 224.007 247.84 221.795 245.739L183.09 208.903C187.742 202.594 189.865 194.451 188.308 186.143C185.327 170.245 170.004 159.767 154.077 162.749C138.15 165.732 127.663 181.028 130.651 196.933ZM136.904 195.765C134.572 183.313 142.783 171.33 155.253 169.001C167.722 166.672 179.721 174.872 182.054 187.324C184.386 199.776 176.175 211.759 163.706 214.088C151.236 216.417 139.237 208.217 136.904 195.765Z" fill="#6C63FF"/>
</g>
<defs>
<clipPath id="clip0_1480_1107">
<rect width="262" height="386" fill="white"/>
</clipPath>
</defs>
</svg>
