<svg width="277" height="408" viewBox="0 0 277 408" fill="none" xmlns="http://www.w3.org/2000/svg">
<g clip-path="url(#clip0_1464_1537)">
<path d="M198.715 171.727C198.715 171.727 200.06 189.912 200.06 190.586C200.06 191.259 190.645 237.734 190.645 237.734C190.645 237.734 177.196 263.329 190.645 262.656C204.095 261.982 200.06 238.408 200.06 238.408L214.182 199.342L208.13 171.727L198.715 171.727Z" fill="#FFB8B8"/>
<path d="M265.29 375.138L267.308 389.956L253.186 391.303L255.203 373.117L265.29 375.138Z" fill="#FFB8B8"/>
<path d="M220.907 375.138L218.89 389.956L233.012 391.303L230.994 373.117L220.907 375.138Z" fill="#FFB8B8"/>
<path d="M205.44 236.387L202.078 241.102C202.078 241.102 200.06 261.309 202.078 268.044C204.095 274.78 208.13 305.763 208.13 307.783C208.13 309.804 208.803 311.151 208.13 311.825C207.458 312.498 208.13 319.234 208.13 319.234V322.602L216.872 372.444C216.872 372.444 211.492 378.506 215.527 378.506C219.562 378.506 234.356 378.506 233.684 371.771L232.339 371.097C232.339 371.097 230.322 326.643 230.994 324.622C231.667 322.602 232.339 309.804 232.339 309.804L238.391 268.718L249.823 308.457L252.513 367.729C252.513 367.729 249.823 374.465 252.513 375.812C255.203 377.159 266.635 381.874 267.308 375.138C267.98 368.403 271.342 309.804 271.342 307.11C271.342 304.416 269.997 262.656 269.997 262.656C269.997 262.656 270.67 255.92 271.342 254.573C272.015 253.226 270.67 251.879 271.342 249.858C272.015 247.838 269.997 241.102 269.997 241.102L239.736 233.02L205.44 236.387Z" fill="#2F2E41"/>
<path d="M228.977 387.262C228.977 387.262 232.339 383.895 227.632 383.895C224.61 383.956 221.633 384.644 218.89 385.915L215.527 398.039C215.527 398.039 201.742 409.153 217.208 407.806C232.675 406.458 235.029 406.122 235.701 404.775C236.173 403.829 235.32 393.926 234.77 388.104C234.745 387.824 234.645 387.555 234.481 387.327C234.317 387.099 234.095 386.919 233.837 386.807C233.579 386.694 233.296 386.654 233.018 386.689C232.739 386.725 232.475 386.835 232.253 387.008C231.816 387.414 231.254 387.661 230.659 387.707C230.064 387.753 229.471 387.596 228.977 387.262Z" fill="#2F2E41"/>
<path d="M257.893 387.262C257.893 387.262 254.531 383.895 259.238 383.895C262.26 383.956 265.237 384.644 267.98 385.915L271.342 398.039C271.342 398.039 285.128 409.153 269.661 407.805C254.194 406.458 249.823 406.122 249.151 404.775C248.682 403.836 250.498 394.074 251.643 388.236C251.706 387.913 251.85 387.612 252.062 387.362C252.274 387.111 252.546 386.918 252.853 386.802C253.159 386.686 253.491 386.651 253.815 386.7C254.14 386.748 254.446 386.879 254.706 387.079C255.143 387.456 255.692 387.678 256.268 387.712C256.845 387.745 257.415 387.587 257.893 387.262Z" fill="#2F2E41"/>
<path d="M208.13 113.802C208.13 113.802 210.82 127.273 210.82 129.294C210.82 131.314 222.252 137.376 222.252 137.376L235.029 121.211C235.029 121.211 226.959 109.761 226.959 107.066L208.13 113.802Z" fill="#FFB8B8"/>
<path d="M218.217 131.312C218.217 131.312 212.356 129.75 210.579 127.163C210.579 127.163 191.991 145.457 191.991 148.825L206.785 175.093C206.785 175.093 206.785 184.523 208.13 185.196C209.475 185.87 208.13 185.196 208.13 187.89C208.13 190.585 204.095 208.097 205.44 210.791C206.785 213.485 208.13 211.465 206.785 215.506C205.44 219.547 202.078 241.101 202.078 241.101C202.078 241.101 214.182 237.059 231.667 243.795C249.151 250.53 269.997 241.101 269.997 241.101C269.997 241.101 264.618 228.977 265.963 224.936C267.308 220.894 262.6 213.485 262.6 213.485L259.238 151.519C259.238 151.519 263.945 123.903 260.583 122.556L253.858 119.862L232.323 117.211C232.323 117.211 226.959 130.639 218.217 131.312Z" fill="#3F3D56"/>
<path d="M198.715 144.109L191.99 148.824C191.99 148.824 188.628 158.927 191.99 163.642C195.353 168.357 196.698 175.093 196.698 175.093L210.147 173.746L198.715 144.109Z" fill="#3F3D56"/>
<path d="M200.876 96.956V35.5438C200.876 30.8761 199.958 26.2541 198.175 21.9418C196.391 17.6294 193.777 13.7111 190.482 10.4105C187.187 7.11 183.275 4.49186 178.969 2.70562C174.664 0.919372 170.049 3.68112e-06 165.389 0H35.487C30.8268 -1.1043e-05 26.2122 0.919346 21.9067 2.70558C17.6012 4.49181 13.6892 7.10993 10.3939 10.4105C7.09866 13.711 4.4847 17.6293 2.70131 21.9417C0.917917 26.254 9.55534e-06 30.876 0 35.5437V372.456C-4.45336e-06 381.883 3.73878 390.924 10.3939 397.589C17.0489 404.255 26.0752 408 35.4869 408H165.389C174.801 408 183.827 404.255 190.482 397.589C197.137 390.924 200.876 381.883 200.876 372.456V140.67L200.876 96.956Z" fill="#E6E6E6"/>
<path d="M166.821 9.24612H149.864C150.644 11.161 150.942 13.2385 150.731 15.2957C150.521 17.3529 149.808 19.3267 148.656 21.0431C147.505 22.7595 145.949 24.1659 144.127 25.1384C142.305 26.1108 140.272 26.6196 138.207 26.6197H63.7879C61.7232 26.6196 59.6902 26.1109 57.8681 25.1384C56.0459 24.1659 54.4905 22.7595 53.3388 21.0431C52.1871 19.3267 51.4746 17.3529 51.2639 15.2957C51.0532 13.2385 51.3509 11.1609 52.1307 9.24609H36.2932C29.2647 9.24609 22.524 12.0426 17.554 17.0205C12.5841 21.9984 9.792 28.7499 9.79199 35.7897V372.208C9.79199 379.248 12.5841 385.999 17.554 390.977C22.524 395.955 29.2646 398.752 36.2932 398.752H166.821C170.301 398.752 173.747 398.065 176.963 396.731C180.178 395.397 183.099 393.442 185.56 390.977C188.021 388.512 189.973 385.586 191.305 382.366C192.637 379.145 193.322 375.694 193.322 372.208V35.7897C193.322 32.304 192.637 28.8523 191.305 25.6319C189.973 22.4115 188.021 19.4853 185.56 17.0205C183.099 14.5557 180.178 12.6006 176.963 11.2666C173.747 9.93268 170.301 9.24611 166.821 9.24612Z" fill="white"/>
<path d="M184.057 159.612H22.7096C21.9174 159.611 21.158 159.295 20.5978 158.734C20.0377 158.173 19.7226 157.413 19.7217 156.619V116.532C19.7226 115.738 20.0377 114.978 20.5978 114.417C21.158 113.856 21.9174 113.54 22.7096 113.539H184.057C184.849 113.54 185.609 113.856 186.169 114.417C186.729 114.978 187.044 115.738 187.045 116.532V156.619C187.044 157.413 186.729 158.173 186.169 158.734C185.609 159.295 184.849 159.611 184.057 159.612ZM22.7096 114.736C22.2343 114.737 21.7786 114.926 21.4425 115.263C21.1064 115.599 20.9173 116.056 20.9168 116.532V156.619C20.9173 157.095 21.1064 157.552 21.4425 157.888C21.7786 158.225 22.2343 158.414 22.7096 158.415H184.057C184.532 158.414 184.988 158.225 185.324 157.888C185.66 157.552 185.849 157.095 185.85 156.619V116.532C185.849 116.056 185.66 115.599 185.324 115.263C184.988 114.926 184.532 114.737 184.057 114.736L22.7096 114.736Z" fill="#E6E6E6"/>
<path d="M47.7801 147.229C54.502 147.229 59.9512 141.771 59.9512 135.038C59.9512 128.306 54.502 122.848 47.7801 122.848C41.0581 122.848 35.6089 128.306 35.6089 135.038C35.6089 141.771 41.0581 147.229 47.7801 147.229Z" fill="#E6E6E6"/>
<path d="M75.8894 126.91C75.352 126.911 74.8369 127.126 74.4572 127.506C74.0775 127.887 73.8643 128.404 73.8643 128.942C73.8643 129.48 74.0775 129.996 74.4572 130.377C74.8369 130.758 75.352 130.973 75.8894 130.974H171.52C171.787 130.974 172.051 130.922 172.297 130.82C172.544 130.718 172.768 130.569 172.957 130.38C173.145 130.191 173.295 129.967 173.397 129.72C173.499 129.474 173.552 129.209 173.552 128.942C173.552 128.675 173.499 128.41 173.397 128.164C173.295 127.917 173.145 127.693 172.957 127.504C172.768 127.315 172.544 127.166 172.297 127.064C172.051 126.962 171.787 126.91 171.52 126.91H75.8894Z" fill="#E6E6E6"/>
<path d="M75.8894 139.102C75.3514 139.102 74.8354 139.316 74.455 139.697C74.0745 140.078 73.8608 140.594 73.8608 141.133C73.8608 141.672 74.0745 142.189 74.455 142.57C74.8354 142.951 75.3514 143.165 75.8894 143.165H117.04C117.578 143.165 118.094 142.951 118.474 142.57C118.854 142.189 119.068 141.672 119.068 141.133C119.068 140.594 118.854 140.078 118.474 139.697C118.094 139.316 117.578 139.102 117.04 139.102H75.8894Z" fill="#E6E6E6"/>
<path d="M184.057 289.674H22.7096C21.9174 289.674 21.158 289.358 20.5978 288.797C20.0377 288.236 19.7226 287.475 19.7217 286.682V246.594C19.7226 245.801 20.0377 245.04 20.5978 244.479C21.158 243.918 21.9174 243.602 22.7096 243.602H184.057C184.849 243.602 185.609 243.918 186.169 244.479C186.729 245.04 187.044 245.801 187.045 246.594V286.682C187.044 287.475 186.729 288.236 186.169 288.797C185.609 289.358 184.849 289.674 184.057 289.674ZM22.7096 244.799C22.2343 244.799 21.7786 244.989 21.4425 245.325C21.1064 245.662 20.9173 246.118 20.9168 246.594V286.682C20.9173 287.158 21.1064 287.614 21.4425 287.951C21.7786 288.288 22.2343 288.477 22.7096 288.477H184.057C184.532 288.477 184.988 288.288 185.324 287.951C185.66 287.614 185.849 287.158 185.85 286.682V246.594C185.849 246.118 185.66 245.662 185.324 245.325C184.988 244.988 184.532 244.799 184.057 244.799L22.7096 244.799Z" fill="#E6E6E6"/>
<path d="M47.7801 277.292C54.502 277.292 59.9512 271.834 59.9512 265.101C59.9512 258.368 54.502 252.91 47.7801 252.91C41.0581 252.91 35.6089 258.368 35.6089 265.101C35.6089 271.834 41.0581 277.292 47.7801 277.292Z" fill="#E6E6E6"/>
<path d="M75.8894 256.973C75.3514 256.973 74.8354 257.187 74.455 257.568C74.0745 257.949 73.8608 258.466 73.8608 259.004C73.8608 259.543 74.0745 260.06 74.455 260.441C74.8354 260.822 75.3514 261.036 75.8894 261.036H171.52C171.787 261.037 172.051 260.984 172.297 260.883C172.544 260.781 172.768 260.631 172.957 260.442C173.145 260.254 173.295 260.029 173.397 259.783C173.499 259.536 173.552 259.272 173.552 259.004C173.552 258.737 173.499 258.473 173.397 258.226C173.295 257.979 173.145 257.755 172.957 257.567C172.768 257.378 172.544 257.228 172.297 257.126C172.051 257.024 171.787 256.972 171.52 256.973H75.8894Z" fill="#E6E6E6"/>
<path d="M75.8894 269.164C75.352 269.165 74.8369 269.379 74.4572 269.76C74.0775 270.141 73.8643 270.658 73.8643 271.196C73.8643 271.734 74.0775 272.25 74.4572 272.631C74.8369 273.012 75.352 273.227 75.8894 273.228H117.04C117.578 273.228 118.094 273.014 118.474 272.633C118.854 272.251 119.068 271.735 119.068 271.196C119.068 270.657 118.854 270.14 118.474 269.759C118.094 269.378 117.578 269.164 117.04 269.164H75.8894Z" fill="#E6E6E6"/>
<path d="M184.938 183.271C184.394 182.768 183.681 182.49 182.94 182.492H21.5914C20.7992 182.494 20.04 182.81 19.4799 183.371C18.9197 183.932 18.6043 184.692 18.6025 185.486V225.575C18.6043 226.369 18.9197 227.129 19.4799 227.69C20.04 228.251 20.7992 228.567 21.5914 228.569H182.94C183.732 228.567 184.49 228.251 185.049 227.689C185.609 227.128 185.923 226.368 185.924 225.575V185.486C185.924 185.068 185.837 184.655 185.667 184.273C185.497 183.892 185.249 183.55 184.938 183.271ZM184.731 225.575C184.73 226.05 184.541 226.506 184.205 226.842C183.87 227.178 183.415 227.368 182.94 227.369H21.5914C21.1165 227.369 20.6612 227.179 20.3254 226.843C19.9896 226.507 19.8008 226.051 19.8003 225.575V185.486C19.8001 185.25 19.8462 185.017 19.9361 184.799C20.0261 184.581 20.158 184.383 20.3243 184.217C20.4907 184.05 20.6883 183.918 20.9057 183.828C21.1231 183.738 21.3561 183.692 21.5914 183.692H182.94C183.415 183.692 183.87 183.881 184.206 184.218C184.542 184.554 184.731 185.01 184.731 185.486L184.731 225.575Z" fill="#E6E6E6"/>
<path d="M73.0123 203.711H34.4704C33.9323 203.711 33.4162 203.925 33.0357 204.306C32.6552 204.687 32.4414 205.204 32.4414 205.743C32.4414 206.282 32.6552 206.799 33.0357 207.18C33.4162 207.561 33.9323 207.775 34.4704 207.775H73.0123C73.5504 207.775 74.0665 207.561 74.447 207.18C74.8275 206.799 75.0412 206.282 75.0412 205.743C75.0412 205.204 74.8275 204.687 74.447 204.306C74.0665 203.925 73.5504 203.711 73.0123 203.711Z" fill="#E6E6E6"/>
<path d="M185.145 186.064V225.479C185.145 226.258 185.008 227.006 184.765 227.557C184.522 228.109 184.192 228.42 183.848 228.422H147.829V183.887H184.717C184.852 184.161 184.96 184.497 185.034 184.872C185.107 185.247 185.145 185.653 185.145 186.064Z" fill="#6C63FF"/>
<path d="M166.756 201.054C166.03 200.482 165.117 200.203 164.196 200.272C163.275 200.341 162.413 200.753 161.78 201.427C161.128 202.159 160.784 203.115 160.819 204.095C160.854 205.076 161.266 206.004 161.969 206.688L166.687 211.414C166.792 211.519 166.935 211.578 167.083 211.578C167.232 211.578 167.374 211.519 167.479 211.414L172.198 206.688C172.901 206.004 173.313 205.076 173.348 204.095C173.383 203.115 173.038 202.159 172.386 201.427C171.754 200.753 170.892 200.341 169.971 200.272C169.05 200.203 168.136 200.482 167.411 201.054C167.317 201.127 167.202 201.166 167.083 201.166C166.965 201.166 166.85 201.127 166.756 201.054Z" fill="white"/>
<path d="M214.182 118.517C223.838 118.517 231.666 110.676 231.666 101.004C231.666 91.3327 223.838 83.4922 214.182 83.4922C204.526 83.4922 196.698 91.3327 196.698 101.004C196.698 110.676 204.526 118.517 214.182 118.517Z" fill="#FFB8B8"/>
<path d="M200.833 82.4951L197.8 81.2789C197.8 81.2789 204.142 74.2862 212.965 74.8943L210.483 72.1579C210.483 72.1579 216.549 69.7257 222.063 76.1103C224.962 79.4666 228.316 83.4117 230.407 87.8558H233.655L232.299 90.8455L237.044 93.8351L232.174 93.2981C232.635 95.8791 232.477 98.533 231.713 101.041L231.844 103.404C231.844 103.404 226.199 94.6562 226.199 93.4401V96.4805C226.199 96.4805 223.166 93.7442 223.166 91.92L221.512 94.0482L220.685 90.7039L210.483 94.0482L212.137 91.312L205.796 92.2241L208.278 88.8797C208.278 88.8797 201.109 92.8321 200.833 96.1765C200.557 99.5208 196.973 103.777 196.973 103.777L195.319 100.737C195.319 100.737 192.838 87.0555 200.833 82.4951Z" fill="#2F2E41"/>
<path d="M248.478 150.172C248.478 150.172 244.584 160.202 245.397 170.125C245.546 171.902 246.144 173.611 247.133 175.093L199.425 197.779C199.425 197.779 177.869 200.014 183.248 209.444C188.628 218.874 208.13 204.729 208.13 204.729C208.13 204.729 259.238 197.32 263.273 189.911C267.307 182.502 269.997 151.519 269.997 151.519L248.478 150.172Z" fill="#FFB8B8"/>
<path d="M250.496 122.559H260.583C260.583 122.559 267.98 123.906 269.998 137.377C272.015 150.848 274.032 154.215 272.015 154.215C269.998 154.215 245.789 153.542 245.789 152.868C245.789 152.195 250.496 122.559 250.496 122.559Z" fill="#3F3D56"/>
</g>
<defs>
<clipPath id="clip0_1464_1537">
<rect width="277" height="408" fill="white"/>
</clipPath>
</defs>
</svg>
