<svg width="44" height="43" viewBox="0 0 44 43" fill="none" xmlns="http://www.w3.org/2000/svg">
<path d="M39.3552 1.61328H4.21938C3.0159 1.61328 2.04028 2.5889 2.04028 3.79238V38.9282C2.04028 40.1317 3.0159 41.1073 4.21938 41.1073H39.3552C40.5587 41.1073 41.5343 40.1317 41.5343 38.9282V3.79238C41.5343 2.5889 40.5587 1.61328 39.3552 1.61328Z" fill="#3D5A98"/>
<path d="M29.2873 41.1022V25.8084H34.4197L35.1872 19.8485H29.2873V16.0442C29.2873 14.319 29.7678 13.141 32.2406 13.141H35.3974V7.80169C33.8688 7.64267 32.3326 7.56691 30.7956 7.57477C26.2506 7.57477 23.1204 10.3445 23.1204 15.4536V19.8485H17.988V25.8084H23.1204V41.1022H29.2873Z" fill="white"/>
</svg>
