<svg width="49" height="45" viewBox="0 0 49 45" fill="none" xmlns="http://www.w3.org/2000/svg">
<path d="M24.5229 36.4038L37.1419 43.8351C37.5127 44.0136 37.8568 44.0859 38.1743 44.052C38.4895 44.0159 38.7966 43.9096 39.0956 43.7334C39.3968 43.5525 39.624 43.2972 39.7769 42.9672C39.9299 42.6372 39.9438 42.2767 39.8186 41.8857L36.4605 27.9521L47.5673 18.5613C47.8802 18.3126 48.0864 18.0154 48.1861 17.6696C48.2858 17.3238 48.2637 16.9927 48.12 16.6763C47.9764 16.3599 47.7852 16.1 47.5465 15.8966C47.3054 15.6999 46.981 15.5666 46.5731 15.4965L31.917 14.2489L26.202 1.05435C26.0444 0.681428 25.8173 0.412472 25.5206 0.247483C25.224 0.0824943 24.8914 0 24.5229 0C24.1544 0 23.8207 0.0824943 23.5217 0.247483C23.2228 0.412472 22.9968 0.681428 22.8439 1.05435L17.1288 14.2489L2.47621 15.4965C2.06601 15.5643 1.74039 15.6988 1.49937 15.9C1.25835 16.0988 1.06599 16.3576 0.922306 16.6763C0.780937 16.9927 0.760078 17.3238 0.859734 17.6696C0.959385 18.0154 1.16565 18.3126 1.47851 18.5613L12.5853 27.9521L9.22719 41.8857C9.09741 42.2722 9.11015 42.6315 9.26543 42.9638C9.4207 43.296 9.64898 43.5514 9.95026 43.73C10.2469 43.9108 10.554 44.0181 10.8715 44.052C11.1867 44.0859 11.5297 44.0136 11.9005 43.8351L24.5229 36.4038Z" fill="#FDBF18"/>
</svg>
