<svg width="26" height="30" viewBox="0 0 26 30" fill="none" xmlns="http://www.w3.org/2000/svg">
<path d="M16.1666 15V27.4767C16.23 27.9517 16.0716 28.4583 15.7075 28.7908C15.561 28.9376 15.387 29.0541 15.1955 29.1335C15.0039 29.213 14.7986 29.2539 14.5912 29.2539C14.3838 29.2539 14.1785 29.213 13.987 29.1335C13.7954 29.0541 13.6214 28.9376 13.475 28.7908L10.2925 25.6083C10.1199 25.4394 9.98864 25.233 9.90899 25.005C9.82935 24.7771 9.80344 24.5338 9.8333 24.2942V15H9.7858L0.665797 3.315C0.408676 2.98492 0.292659 2.56649 0.343094 2.15114C0.39353 1.73579 0.606319 1.35728 0.934964 1.09833C1.2358 0.876667 1.5683 0.75 1.91663 0.75H24.0833C24.4316 0.75 24.7641 0.876667 25.065 1.09833C25.3936 1.35728 25.6064 1.73579 25.6568 2.15114C25.7073 2.56649 25.5913 2.98492 25.3341 3.315L16.2141 15H16.1666Z" fill="#6C63FF"/>
</svg>
