<svg width="43" height="43" viewBox="0 0 43 43" fill="none" xmlns="http://www.w3.org/2000/svg">
<g clip-path="url(#clip0_1497_1520)">
<path d="M32.9888 0H10.2968C4.76779 0 0.285645 4.48215 0.285645 10.0112V32.7031C0.285645 38.2321 4.76779 42.7143 10.2968 42.7143H32.9888C38.5178 42.7143 42.9999 38.2321 42.9999 32.7031V10.0112C42.9999 4.48215 38.5178 0 32.9888 0Z" fill="white"/>
<path d="M7.23272 33.8781H12.5416V20.9849L4.95752 15.2969V31.6029C4.95752 32.8618 5.97766 33.8781 7.23272 33.8781Z" fill="#4285F4"/>
<path d="M30.7437 33.8783H36.0527C37.3116 33.8783 38.3279 32.8581 38.3279 31.6031V15.2969L30.7437 20.985" fill="#34A853"/>
<path d="M30.7437 11.1256V20.9851L38.3279 15.2971V12.263C38.3279 9.44939 35.116 7.84526 32.8674 9.53281" fill="#FBBC04"/>
<path d="M12.5417 20.9847V11.1253L21.6427 17.9508L30.7437 11.125V20.9845L21.6427 27.8104" fill="#EA4335"/>
<path d="M4.95752 12.263V15.2967L12.5416 20.9849V11.1256L10.4181 9.53281C8.1656 7.84526 4.95752 9.44939 4.95752 12.263Z" fill="#C5221F"/>
</g>
<defs>
<clipPath id="clip0_1497_1520">
<rect width="42.7143" height="42.7143" fill="white" transform="translate(0.285645)"/>
</clipPath>
</defs>
</svg>
