<svg width="141" height="37" viewBox="0 0 141 37" fill="none" xmlns="http://www.w3.org/2000/svg">
<path d="M5.12063 26.2C4.12063 26.2 3.32729 26.0067 2.74063 25.62C2.16729 25.2333 1.75396 24.66 1.50063 23.9C1.24729 23.14 1.12063 22.1933 1.12063 21.06C1.12063 19.7933 1.29396 18.78 1.64063 18.02C1.98729 17.2467 2.47396 16.6867 3.10063 16.34C3.72729 15.98 4.46729 15.8 5.32063 15.8C6.65396 15.8 7.66063 16.1733 8.34063 16.92C9.02063 17.6533 9.36063 18.84 9.36063 20.48L9.28063 21.66H2.70063C2.71396 22.7 2.90729 23.4867 3.28063 24.02C3.65396 24.5533 4.32729 24.82 5.30063 24.82C5.67396 24.82 6.08063 24.8133 6.52063 24.8C6.97396 24.7733 7.42063 24.7467 7.86063 24.72C8.30063 24.6933 8.67396 24.6667 8.98063 24.64L9.02063 25.86C8.70063 25.9133 8.30729 25.9667 7.84063 26.02C7.38729 26.0733 6.92063 26.1133 6.44063 26.14C5.96063 26.18 5.52063 26.2 5.12063 26.2ZM2.70063 20.4H7.80063C7.80063 19.1733 7.60063 18.32 7.20063 17.84C6.81396 17.3467 6.18729 17.1 5.32063 17.1C4.76063 17.1 4.28729 17.2133 3.90063 17.44C3.51396 17.6533 3.21396 18 3.00063 18.48C2.80063 18.96 2.70063 19.6 2.70063 20.4ZM11.0783 26V24.6L16.5983 17.4H11.0783V16H18.4983V17.4L12.9783 24.6H18.4983V26H11.0783ZM23.8998 26.2C23.5932 26.2 23.2198 26.18 22.7798 26.14C22.3532 26.1 21.9265 26.0533 21.4998 26C21.0732 25.9333 20.6932 25.8733 20.3598 25.82L20.4398 24.48C20.7732 24.52 21.1465 24.5667 21.5598 24.62C21.9865 24.6733 22.3998 24.72 22.7998 24.76C23.1998 24.7867 23.5198 24.8 23.7598 24.8C24.3065 24.8 24.7598 24.7533 25.1198 24.66C25.4798 24.5533 25.7532 24.38 25.9398 24.14C26.1265 23.9 26.2198 23.56 26.2198 23.12C26.2198 22.7867 26.1465 22.5267 25.9998 22.34C25.8665 22.1533 25.6065 22 25.2198 21.88C24.8465 21.76 24.2998 21.6467 23.5798 21.54C22.8332 21.42 22.2065 21.2733 21.6998 21.1C21.2065 20.9133 20.8398 20.64 20.5998 20.28C20.3598 19.92 20.2398 19.4067 20.2398 18.74C20.2398 17.9933 20.4132 17.4067 20.7598 16.98C21.1065 16.5533 21.5532 16.2533 22.0998 16.08C22.6598 15.8933 23.2398 15.8 23.8398 15.8C24.2132 15.8 24.6198 15.82 25.0598 15.86C25.5132 15.9 25.9532 15.9533 26.3798 16.02C26.8065 16.0733 27.1732 16.1267 27.4798 16.18L27.4398 17.52C27.1198 17.4667 26.7465 17.42 26.3198 17.38C25.8932 17.3267 25.4665 17.2867 25.0398 17.26C24.6132 17.22 24.2398 17.2 23.9198 17.2C23.5198 17.2 23.1598 17.2467 22.8398 17.34C22.5198 17.42 22.2665 17.5667 22.0798 17.78C21.8932 17.9933 21.7998 18.2933 21.7998 18.68C21.7998 18.9733 21.8665 19.2133 21.9998 19.4C22.1332 19.5733 22.3865 19.72 22.7598 19.84C23.1332 19.96 23.6732 20.08 24.3798 20.2C25.2065 20.3333 25.8665 20.5 26.3598 20.7C26.8665 20.9 27.2332 21.18 27.4598 21.54C27.6865 21.9 27.7998 22.4067 27.7998 23.06C27.7998 23.8333 27.6398 24.4533 27.3198 24.92C27.0132 25.3733 26.5665 25.7 25.9798 25.9C25.4065 26.1 24.7132 26.2 23.8998 26.2ZM33.9362 26.2C32.8163 26.2 31.9429 26.0067 31.3163 25.62C30.7029 25.2333 30.2696 24.6467 30.0163 23.86C29.7763 23.0733 29.6563 22.08 29.6563 20.88C29.6563 19.7333 29.7896 18.7867 30.0563 18.04C30.3363 17.2933 30.7896 16.7333 31.4163 16.36C32.0429 15.9867 32.8829 15.8 33.9362 15.8C35.0029 15.8 35.8496 15.9867 36.4763 16.36C37.1029 16.7333 37.5496 17.2933 37.8163 18.04C38.0963 18.7867 38.2363 19.7333 38.2363 20.88C38.2363 22.08 38.1096 23.0733 37.8563 23.86C37.6163 24.6467 37.1829 25.2333 36.5563 25.62C35.9429 26.0067 35.0696 26.2 33.9362 26.2ZM33.9362 24.86C34.7096 24.86 35.2896 24.7267 35.6763 24.46C36.0629 24.18 36.3163 23.7467 36.4363 23.16C36.5696 22.5733 36.6363 21.8133 36.6363 20.88C36.6363 19.96 36.5563 19.2267 36.3963 18.68C36.2363 18.1333 35.9629 17.74 35.5763 17.5C35.1896 17.26 34.6429 17.14 33.9362 17.14C33.2429 17.14 32.6963 17.26 32.2963 17.5C31.9096 17.74 31.6363 18.1333 31.4763 18.68C31.3163 19.2267 31.2363 19.96 31.2363 20.88C31.2363 21.8133 31.2963 22.5733 31.4163 23.16C31.5496 23.7467 31.8096 24.18 32.1963 24.46C32.5829 24.7267 33.1629 24.86 33.9362 24.86ZM43.7222 26.2C42.8689 26.2 42.2155 26.0267 41.7622 25.68C41.3089 25.3333 40.9955 24.7933 40.8222 24.06C40.6622 23.3267 40.5822 22.38 40.5822 21.22V16H42.1222V21.22C42.1222 22.1 42.1622 22.8 42.2422 23.32C42.3355 23.84 42.5289 24.22 42.8222 24.46C43.1155 24.6867 43.5555 24.8 44.1422 24.8C44.7289 24.8 45.2622 24.72 45.7422 24.56C46.2222 24.4 46.6089 24.24 46.9022 24.08V16H48.4422V26H46.9022V25.3C46.4755 25.54 46.0089 25.7533 45.5022 25.94C45.0089 26.1133 44.4155 26.2 43.7222 26.2ZM57.4267 30.42V25.54C57.1334 25.6733 56.7201 25.82 56.1867 25.98C55.6667 26.1267 55.1534 26.2 54.6467 26.2C53.7401 26.2 53.0067 26.0267 52.4467 25.68C51.9001 25.3333 51.5001 24.7867 51.2467 24.04C50.9934 23.2933 50.8667 22.3333 50.8667 21.16C50.8667 19.84 51.0134 18.7867 51.3067 18C51.6134 17.2133 52.1134 16.6533 52.8067 16.32C53.5001 15.9733 54.4334 15.8 55.6067 15.8C55.8601 15.8 56.1867 15.8133 56.5867 15.84C56.9867 15.8533 57.4001 15.88 57.8267 15.92C58.2667 15.9467 58.6534 15.9733 58.9867 16V30.42H57.4267ZM54.8067 24.8C55.3134 24.8 55.8067 24.74 56.2867 24.62C56.7801 24.4867 57.1601 24.36 57.4267 24.24V17.26C57.1734 17.2333 56.8667 17.2133 56.5067 17.2C56.1467 17.1733 55.8534 17.16 55.6267 17.16C54.7734 17.16 54.1134 17.3067 53.6467 17.6C53.1934 17.88 52.8801 18.3133 52.7067 18.9C52.5334 19.4867 52.4467 20.24 52.4467 21.16C52.4467 22.3867 52.6267 23.3 52.9867 23.9C53.3467 24.5 53.9534 24.8 54.8067 24.8ZM68.4481 26.2C67.5281 26.2 66.8281 25.94 66.3481 25.42C65.8681 24.9 65.6281 24.14 65.6281 23.14C65.6281 22.4867 65.7415 21.9533 65.9681 21.54C66.1948 21.1267 66.5348 20.8133 66.9881 20.6C67.4548 20.3733 68.0281 20.2333 68.7081 20.18L71.7881 19.88V19.02C71.7881 18.34 71.6348 17.86 71.3281 17.58C71.0348 17.3 70.5948 17.16 70.0081 17.16C69.6748 17.16 69.2748 17.1733 68.8081 17.2C68.3548 17.2267 67.9015 17.26 67.4481 17.3C66.9948 17.34 66.5948 17.38 66.2481 17.42L66.1681 16.24C66.4881 16.1733 66.8748 16.1067 67.3281 16.04C67.7815 15.9733 68.2548 15.92 68.7481 15.88C69.2415 15.8267 69.6948 15.8 70.1081 15.8C70.8681 15.8 71.4881 15.92 71.9681 16.16C72.4481 16.3867 72.7948 16.74 73.0081 17.22C73.2348 17.6867 73.3481 18.2867 73.3481 19.02V24.08C73.3748 24.3733 73.4881 24.5867 73.6881 24.72C73.9015 24.8533 74.1681 24.94 74.4881 24.98L74.4281 26.2C74.2415 26.2 74.0615 26.1933 73.8881 26.18C73.7148 26.1667 73.5481 26.14 73.3881 26.1C73.2415 26.0733 73.0948 26.04 72.9481 26C72.7748 25.9333 72.6081 25.8533 72.4481 25.76C72.3015 25.6667 72.1548 25.5533 72.0081 25.42C71.7548 25.5267 71.4281 25.64 71.0281 25.76C70.6415 25.88 70.2215 25.98 69.7681 26.06C69.3281 26.1533 68.8881 26.2 68.4481 26.2ZM68.7081 24.9C69.0681 24.9 69.4415 24.8667 69.8281 24.8C70.2148 24.7333 70.5815 24.6533 70.9281 24.56C71.2748 24.4667 71.5615 24.38 71.7881 24.3V21.04L68.8881 21.32C68.2881 21.3733 67.8548 21.5467 67.5881 21.84C67.3348 22.1333 67.2081 22.5533 67.2081 23.1C67.2081 23.66 67.3348 24.1 67.5881 24.42C67.8415 24.74 68.2148 24.9 68.7081 24.9ZM76.3072 30.42V16H77.8472V16.72C78.0605 16.5867 78.3272 16.4533 78.6472 16.32C78.9805 16.1733 79.3339 16.0533 79.7072 15.96C80.0805 15.8533 80.4405 15.8 80.7872 15.8C81.6405 15.8 82.3339 15.98 82.8672 16.34C83.4005 16.6867 83.7939 17.2333 84.0472 17.98C84.3139 18.7267 84.4472 19.6933 84.4472 20.88C84.4472 22.1867 84.2939 23.2333 83.9872 24.02C83.6939 24.7933 83.2205 25.3533 82.5672 25.7C81.9272 26.0333 81.0939 26.2 80.0672 26.2C79.6539 26.2 79.2339 26.1733 78.8072 26.12C78.3939 26.0667 78.0739 26.02 77.8472 25.98V30.42H76.3072ZM79.9872 24.84C80.7072 24.84 81.2739 24.7067 81.6872 24.44C82.1139 24.1733 82.4139 23.7533 82.5872 23.18C82.7605 22.5933 82.8472 21.8267 82.8472 20.88C82.8472 19.5333 82.6472 18.5867 82.2472 18.04C81.8472 17.48 81.2872 17.2 80.5672 17.2C80.2472 17.2 79.9139 17.24 79.5672 17.32C79.2339 17.4 78.9139 17.5 78.6072 17.62C78.3005 17.7267 78.0472 17.84 77.8472 17.96V24.64C78.0605 24.6667 78.3739 24.7067 78.7872 24.76C79.2005 24.8133 79.6005 24.84 79.9872 24.84ZM86.8736 30.42V16H88.4136V16.72C88.6269 16.5867 88.8936 16.4533 89.2136 16.32C89.5469 16.1733 89.9003 16.0533 90.2736 15.96C90.6469 15.8533 91.0069 15.8 91.3536 15.8C92.2069 15.8 92.9003 15.98 93.4336 16.34C93.9669 16.6867 94.3603 17.2333 94.6136 17.98C94.8803 18.7267 95.0136 19.6933 95.0136 20.88C95.0136 22.1867 94.8603 23.2333 94.5536 24.02C94.2603 24.7933 93.7869 25.3533 93.1336 25.7C92.4936 26.0333 91.6603 26.2 90.6336 26.2C90.2203 26.2 89.8003 26.1733 89.3736 26.12C88.9603 26.0667 88.6403 26.02 88.4136 25.98V30.42H86.8736ZM90.5536 24.84C91.2736 24.84 91.8403 24.7067 92.2536 24.44C92.6803 24.1733 92.9803 23.7533 93.1536 23.18C93.3269 22.5933 93.4136 21.8267 93.4136 20.88C93.4136 19.5333 93.2136 18.5867 92.8136 18.04C92.4136 17.48 91.8536 17.2 91.1336 17.2C90.8136 17.2 90.4803 17.24 90.1336 17.32C89.8003 17.4 89.4803 17.5 89.1736 17.62C88.8669 17.7267 88.6136 17.84 88.4136 17.96V24.64C88.6269 24.6667 88.9403 24.7067 89.3536 24.76C89.7669 24.8133 90.1669 24.84 90.5536 24.84Z" fill="#939393"/>
<g clip-path="url(#clip0_1497_1507)">
<path d="M128.208 18.8711L117.099 30.7153C117.224 31.1652 117.448 31.5801 117.755 31.9284C118.061 32.2766 118.442 32.5489 118.868 32.7245C119.293 32.9 119.753 32.9742 120.211 32.9413C120.669 32.9085 121.114 32.7694 121.511 32.5348L134.011 25.2902L128.208 18.8711Z" fill="#EA4335"/>
<path d="M139.441 16.8577L134.036 13.707L127.952 19.1404L134.061 25.2731L139.425 22.1562C139.9 21.903 140.298 21.5223 140.576 21.0553C140.853 20.5882 141 20.0528 141 19.5069C141 18.9611 140.853 18.4256 140.576 17.9586C140.298 17.4916 139.9 17.1109 139.425 16.8576L139.441 16.8577Z" fill="#FBBC04"/>
<path d="M117.099 8.24219C117.032 8.49482 116.999 8.75548 117 9.01717V29.9424C117.001 30.204 117.034 30.4644 117.099 30.7174L128.589 19.1765L117.099 8.24219Z" fill="#4285F4"/>
<path d="M128.291 19.4784L134.036 13.708L121.553 6.42962C121.083 6.14972 120.549 6.00148 120.005 6.00001C118.654 5.99733 117.467 6.90961 117.099 8.23242L128.291 19.4784Z" fill="#34A853"/>
</g>
<defs>
<clipPath id="clip0_1497_1507">
<rect width="24" height="27" fill="white" transform="translate(117 6)"/>
</clipPath>
</defs>
</svg>
