<svg width="24" height="24" viewBox="0 0 24 24" fill="none" xmlns="http://www.w3.org/2000/svg">
<g clip-path="url(#clip0_201_58)">
<path d="M8.35396 0.789433C5.95599 1.62131 3.88798 3.20024 2.45369 5.29431C1.01941 7.38838 0.294446 9.8872 0.385291 12.4237C0.476137 14.9603 1.378 17.4008 2.95842 19.3869C4.53883 21.373 6.7145 22.8 9.16584 23.4582C11.1532 23.971 13.2354 23.9935 15.2333 23.5238C17.0433 23.1173 18.7167 22.2476 20.0896 21.0001C21.5185 19.662 22.5557 17.9597 23.0896 16.0763C23.6699 14.0282 23.7732 11.8743 23.3915 9.78006H12.2315V14.4094H18.6946C18.5654 15.1478 18.2886 15.8525 17.8807 16.4814C17.4729 17.1102 16.9423 17.6504 16.3208 18.0694C15.5316 18.5915 14.642 18.9428 13.709 19.1007C12.7732 19.2747 11.8134 19.2747 10.8777 19.1007C9.92932 18.9046 9.03215 18.5132 8.24334 17.9513C6.97612 17.0543 6.0246 15.7799 5.52459 14.3101C5.01611 12.8127 5.01611 11.1893 5.52459 9.69193C5.88051 8.64234 6.4689 7.68669 7.24584 6.89631C8.13495 5.97521 9.26058 5.3168 10.4993 4.99333C11.7379 4.66985 13.0418 4.6938 14.2677 5.06256C15.2254 5.35654 16.1012 5.87019 16.8252 6.56256C17.554 5.83756 18.2815 5.11068 19.0077 4.38193C19.3827 3.99006 19.7915 3.61693 20.1608 3.21568C19.0556 2.1872 17.7584 1.38691 16.3433 0.860683C13.7665 -0.0749616 10.947 -0.100106 8.35396 0.789433Z" fill="white"/>
<path d="M8.35411 0.789367C10.947 -0.100776 13.7665 -0.0762934 16.3435 0.858742C17.7588 1.38855 19.0555 2.19269 20.1591 3.22499C19.7841 3.62624 19.3885 4.00124 19.006 4.39124C18.2785 5.11749 17.5516 5.84124 16.8254 6.56249C16.1013 5.87012 15.2256 5.35648 14.2679 5.06249C13.0423 4.69244 11.7385 4.66711 10.4995 4.98926C9.26052 5.31141 8.1342 5.96861 7.24411 6.88874C6.46717 7.67912 5.87879 8.63477 5.52286 9.68437L1.63599 6.67499C3.02725 3.91604 5.43614 1.80566 8.35411 0.789367Z" fill="#E33629"/>
<path d="M0.604565 9.65605C0.81348 8.62067 1.16032 7.61798 1.63582 6.6748L5.52269 9.69168C5.01422 11.1891 5.01422 12.8124 5.52269 14.3098C4.22769 15.3098 2.93207 16.3148 1.63582 17.3248C0.445472 14.9554 0.0824387 12.2557 0.604565 9.65605Z" fill="#F8BD00"/>
<path d="M12.2315 9.77832H23.3915C23.7733 11.8726 23.67 14.0264 23.0897 16.0746C22.5557 17.958 21.5186 19.6602 20.0897 20.9983C18.8353 20.0196 17.5753 19.0483 16.3209 18.0696C16.9428 17.6501 17.4736 17.1094 17.8815 16.4798C18.2894 15.8503 18.566 15.1448 18.6947 14.4058H12.2315C12.2297 12.8646 12.2315 11.3214 12.2315 9.77832Z" fill="#587DBD"/>
<path d="M1.63403 17.3251C2.93028 16.3251 4.22591 15.3201 5.52091 14.3101C6.02192 15.7804 6.97479 17.0549 8.24341 17.9513C9.03467 18.5106 9.93378 18.8988 10.8834 19.0913C11.8191 19.2653 12.7789 19.2653 13.7147 19.0913C14.6476 18.9334 15.5373 18.5821 16.3265 18.0601C17.5809 19.0388 18.8409 20.0101 20.0953 20.9888C18.7226 22.237 17.0492 23.1073 15.239 23.5144C13.241 23.9841 11.1589 23.9616 9.17153 23.4488C7.59972 23.0291 6.13155 22.2893 4.85903 21.2757C3.51215 20.2063 2.41207 18.8588 1.63403 17.3251Z" fill="#319F43"/>
</g>
<defs>
<clipPath id="clip0_201_58">
<rect width="24" height="24" fill="white" transform="translate(-0.0065918)"/>
</clipPath>
</defs>
</svg>
