<svg width="28" height="28" viewBox="0 0 28 28" fill="none" xmlns="http://www.w3.org/2000/svg">
<path d="M14 22.9291L13.1157 22.13C11.2117 20.3909 9.63667 18.9022 8.39067 17.664C7.14545 16.425 6.16234 15.3322 5.44134 14.3856C4.72034 13.4391 4.21634 12.5835 3.92934 11.819C3.64234 11.0544 3.49923 10.284 3.5 9.50781C3.5 8.02381 4.004 6.77781 5.012 5.76981C6.02 4.76181 7.266 4.25781 8.75 4.25781C9.77667 4.25781 10.7392 4.52031 11.6375 5.04531C12.5358 5.57031 13.3233 6.33409 14 7.33665C14.6767 6.33409 15.4642 5.57031 16.3625 5.04531C17.2608 4.52031 18.2233 4.25781 19.25 4.25781C20.734 4.25781 21.98 4.76181 22.988 5.76981C23.996 6.77781 24.5 8.02381 24.5 9.50781C24.5 10.2825 24.3569 11.0525 24.0707 11.8178C23.7837 12.5847 23.2797 13.441 22.5587 14.3868C21.8377 15.3326 20.8581 16.425 19.6198 17.664C18.3816 18.9022 16.8027 20.3909 14.8832 22.13L14 22.9291ZM14 21.3495C15.8667 19.6617 17.4028 18.2166 18.6083 17.0141C19.8139 15.8117 20.7667 14.7675 21.4667 13.8816C22.1667 12.9958 22.6528 12.2121 22.925 11.5308C23.1972 10.8479 23.3333 10.1736 23.3333 9.50781C23.3333 8.34115 22.9444 7.36892 22.1667 6.59115C21.3889 5.81337 20.4167 5.42448 19.25 5.42448C18.3213 5.42448 17.4642 5.6897 16.6787 6.22015C15.8931 6.75059 15.1908 7.54898 14.5717 8.61531H13.4307C12.7952 7.5342 12.0886 6.73192 11.3108 6.20848C10.5331 5.68581 9.67984 5.42448 8.75117 5.42448C7.60006 5.42448 6.63173 5.81337 5.84617 6.59115C5.06061 7.36892 4.66745 8.34115 4.66667 9.50781C4.66667 10.1736 4.80278 10.8479 5.075 11.5308C5.34723 12.2137 5.83334 12.9973 6.53334 13.8816C7.23334 14.766 8.18611 15.8063 9.39167 17.0025C10.5972 18.1987 12.1333 19.6477 14 21.3495Z" fill="white"/>
</svg>
