<svg width="27" height="23" viewBox="0 0 27 23" fill="none" xmlns="http://www.w3.org/2000/svg">
<path d="M13.4708 22.8457C13.1879 22.8457 12.9074 22.7942 12.6294 22.6912C12.3513 22.5891 12.1068 22.4321 11.8958 22.2201L10.2217 20.7107C7.62583 18.3531 5.33625 16.0601 3.35292 13.8318C1.36764 11.6044 0.375 9.28907 0.375 6.88574C0.375 5.03074 1.005 3.47324 2.265 2.21324C3.525 0.953242 5.0825 0.323242 6.9375 0.323242C8.00111 0.323242 9.10896 0.592062 10.261 1.1297C11.4131 1.66734 12.4928 2.68137 13.5 4.17178C14.5082 2.68137 15.5878 1.66734 16.739 1.1297C17.8901 0.592062 18.9979 0.323242 20.0625 0.323242C21.9175 0.323242 23.475 0.953242 24.735 2.21324C25.995 3.47324 26.625 5.03074 26.625 6.88574C26.625 9.34449 25.592 11.708 23.526 13.9762C21.4601 16.2444 19.1987 18.4912 16.7419 20.7166L15.0765 22.2201C14.8645 22.4321 14.6151 22.5891 14.3283 22.6912C14.0415 22.7932 13.7562 22.8448 13.4723 22.8457M12.7869 5.68553C11.9138 4.27776 11.0063 3.27491 10.0642 2.67699C9.12208 2.08005 8.07986 1.78158 6.9375 1.78158C5.47917 1.78158 4.26389 2.26769 3.29167 3.23991C2.31944 4.21213 1.83333 5.42741 1.83333 6.88574C1.83333 7.96296 2.13812 9.06741 2.74771 10.1991C3.35729 11.3317 4.1759 12.4916 5.20354 13.6787C6.23021 14.8648 7.41097 16.0791 8.74583 17.3216C10.0787 18.5631 11.4671 19.8411 12.9108 21.1555C13.079 21.3053 13.2754 21.3801 13.5 21.3801C13.7246 21.3801 13.921 21.3053 14.0892 21.1555C15.5329 19.8411 16.9217 18.5626 18.2556 17.3201C19.5895 16.0796 20.7703 14.8657 21.7979 13.6787C22.8246 12.4906 23.6427 11.3307 24.2523 10.1991C24.8619 9.06741 25.1667 7.96296 25.1667 6.88574C25.1667 5.42741 24.6806 4.21213 23.7083 3.23991C22.7361 2.26769 21.5208 1.78158 20.0625 1.78158C18.9201 1.78158 17.8779 2.08053 16.9358 2.67845C15.9928 3.27539 15.0852 4.27776 14.2131 5.68553C14.1353 5.81678 14.0313 5.91498 13.901 5.98012C13.7708 6.04526 13.6371 6.07783 13.5 6.07783C13.3629 6.07783 13.2292 6.04526 13.099 5.98012C12.9687 5.91498 12.8651 5.81678 12.7883 5.68553" fill="#A3A0DD"/>
</svg>
