<svg width="28" height="28" viewBox="0 0 28 28" fill="none" xmlns="http://www.w3.org/2000/svg">
<path d="M14 22.9301L13.1157 22.131C11.2117 20.3918 9.63667 18.9032 8.39067 17.665C7.14545 16.426 6.16234 15.3332 5.44134 14.3866C4.72034 13.4401 4.21634 12.5845 3.92934 11.82C3.64234 11.0554 3.49923 10.285 3.5 9.50879C3.5 8.02479 4.004 6.77879 5.012 5.77079C6.02 4.76279 7.266 4.25879 8.75 4.25879C9.77667 4.25879 10.7392 4.52129 11.6375 5.04629C12.5358 5.57129 13.3233 6.33507 14 7.33762C14.6767 6.33507 15.4642 5.57129 16.3625 5.04629C17.2608 4.52129 18.2233 4.25879 19.25 4.25879C20.734 4.25879 21.98 4.76279 22.988 5.77079C23.996 6.77879 24.5 8.02479 24.5 9.50879C24.5 10.2835 24.3569 11.0535 24.0707 11.8188C23.7837 12.5857 23.2797 13.442 22.5587 14.3878C21.8377 15.3336 20.8581 16.426 19.6198 17.665C18.3816 18.9032 16.8027 20.3918 14.8832 22.131L14 22.9301ZM14 21.3505C15.8667 19.6627 17.4028 18.2176 18.6083 17.0151C19.8139 15.8127 20.7667 14.7685 21.4667 13.8826C22.1667 12.9967 22.6528 12.2131 22.925 11.5318C23.1972 10.8489 23.3333 10.1746 23.3333 9.50879C23.3333 8.34212 22.9444 7.3699 22.1667 6.59212C21.3889 5.81434 20.4167 5.42546 19.25 5.42546C18.3213 5.42546 17.4642 5.69068 16.6787 6.22112C15.8931 6.75157 15.1908 7.54996 14.5717 8.61629H13.4307C12.7952 7.53518 12.0886 6.7329 11.3108 6.20946C10.5331 5.68679 9.67984 5.42546 8.75117 5.42546C7.60006 5.42546 6.63173 5.81434 5.84617 6.59212C5.06061 7.3699 4.66745 8.34212 4.66667 9.50879C4.66667 10.1746 4.80278 10.8489 5.075 11.5318C5.34723 12.2147 5.83334 12.9983 6.53334 13.8826C7.23334 14.767 8.18611 15.8072 9.39167 17.0035C10.5972 18.1997 12.1333 19.6487 14 21.3505Z" fill="white"/>
</svg>
