<svg width="40" height="40" viewBox="0 0 40 40" fill="none" xmlns="http://www.w3.org/2000/svg">
<path d="M19.9667 31.823C19.6433 31.823 19.3228 31.7641 19.005 31.6463C18.6872 31.5297 18.4078 31.3502 18.1667 31.108L16.2533 29.383C13.2867 26.6886 10.67 24.068 8.40333 21.5213C6.13444 18.9758 5 16.3297 5 13.583C5 11.463 5.72 9.68301 7.16 8.24301C8.6 6.80301 10.38 6.08301 12.5 6.08301C13.7156 6.08301 14.9817 6.39023 16.2983 7.00467C17.615 7.61912 18.8489 8.77801 20 10.4813C21.1522 8.77801 22.3861 7.61912 23.7017 7.00467C25.0172 6.39023 26.2833 6.08301 27.5 6.08301C29.62 6.08301 31.4 6.80301 32.84 8.24301C34.28 9.68301 35 11.463 35 13.583C35 16.393 33.8194 19.0941 31.4583 21.6863C29.0972 24.2786 26.5128 26.8463 23.705 29.3897L21.8017 31.108C21.5594 31.3502 21.2744 31.5297 20.9467 31.6463C20.6189 31.763 20.2928 31.8219 19.9683 31.823M19.185 12.2113C18.1872 10.6025 17.15 9.45634 16.0733 8.77301C14.9967 8.09079 13.8056 7.74967 12.5 7.74967C10.8333 7.74967 9.44444 8.30523 8.33333 9.41634C7.22222 10.5275 6.66667 11.9163 6.66667 13.583C6.66667 14.8141 7.015 16.0763 7.71167 17.3697C8.40833 18.6641 9.34389 19.9897 10.5183 21.3463C11.6917 22.7019 13.0411 24.0897 14.5667 25.5097C16.09 26.9286 17.6767 28.3891 19.3267 29.8913C19.5189 30.0625 19.7433 30.148 20 30.148C20.2567 30.148 20.4811 30.0625 20.6733 29.8913C22.3233 28.3891 23.9106 26.928 25.435 25.508C26.9594 24.0902 28.3089 22.703 29.4833 21.3463C30.6567 19.9886 31.5917 18.663 32.2883 17.3697C32.985 16.0763 33.3333 14.8141 33.3333 13.583C33.3333 11.9163 32.7778 10.5275 31.6667 9.41634C30.5556 8.30523 29.1667 7.74967 27.5 7.74967C26.1944 7.74967 25.0033 8.09134 23.9267 8.77467C22.8489 9.4569 21.8117 10.6025 20.815 12.2113C20.7261 12.3613 20.6072 12.4736 20.4583 12.548C20.3094 12.6225 20.1567 12.6597 20 12.6597C19.8433 12.6597 19.6906 12.6225 19.5417 12.548C19.3928 12.4736 19.2744 12.3613 19.1867 12.2113" fill="#A3A0DD"/>
</svg>
