<svg width="53" height="53" viewBox="0 0 53 53" fill="none" xmlns="http://www.w3.org/2000/svg">
<rect width="53" height="53" rx="10" fill="#6C63FF" fill-opacity="0.3"/>
<path d="M27 39.119L25.7998 38.0344C23.2158 35.6742 21.0783 33.6538 19.3873 31.9734C17.6974 30.2919 16.3632 28.8088 15.3847 27.5242C14.4062 26.2396 13.7222 25.0785 13.3327 24.0409C12.9432 23.0033 12.7489 21.9577 12.75 20.9043C12.75 18.8903 13.434 17.1993 14.802 15.8313C16.17 14.4633 17.861 13.7793 19.875 13.7793C21.2683 13.7793 22.5746 14.1355 23.7938 14.848C25.0129 15.5605 26.0817 16.5971 27 17.9577C27.9183 16.5971 28.9871 15.5605 30.2063 14.848C31.4254 14.1355 32.7317 13.7793 34.125 13.7793C36.139 13.7793 37.83 14.4633 39.198 15.8313C40.566 17.1993 41.25 18.8903 41.25 20.9043C41.25 21.9556 41.0558 23.0006 40.6673 24.0393C40.2778 25.0801 39.5938 26.2422 38.6153 27.5258C37.6368 28.8094 36.3074 30.2919 34.6269 31.9734C32.9465 33.6538 30.8037 35.6742 28.1986 38.0344L27 39.119ZM27 36.9751C29.5333 34.6846 31.6181 32.7234 33.2542 31.0915C34.8903 29.4596 36.1833 28.0425 37.1333 26.8402C38.0833 25.6379 38.7431 24.5745 39.1125 23.6498C39.4819 22.723 39.6667 21.8079 39.6667 20.9043C39.6667 19.321 39.1389 18.0015 38.0833 16.946C37.0278 15.8904 35.7083 15.3626 34.125 15.3626C32.8647 15.3626 31.7014 15.7226 30.6353 16.4425C29.5692 17.1624 28.6161 18.2459 27.7758 19.693H26.2273C25.3649 18.2258 24.406 17.137 23.3504 16.4266C22.2949 15.7173 21.1369 15.3626 19.8766 15.3626C18.3144 15.3626 17.0002 15.8904 15.9341 16.946C14.868 18.0015 14.3344 19.321 14.3333 20.9043C14.3333 21.8079 14.5181 22.723 14.8875 23.6498C15.2569 24.5766 15.9167 25.64 16.8667 26.8402C17.8167 28.0404 19.1097 29.4522 20.7458 31.0756C22.3819 32.6991 24.4667 34.6656 27 36.9751Z" fill="white"/>
</svg>
