<svg width="72" height="72" viewBox="0 0 72 72" fill="none" xmlns="http://www.w3.org/2000/svg">
<path d="M42.48 31.2002L27.48 20.4902C25.38 18.9902 22.59 18.9902 20.52 20.4902L5.52 31.2002C3.93 32.3402 3 34.1402 3 36.0902V60.0002C3 61.6502 4.35 63.0002 6 63.0002H18V45.0002H30V63.0002H42C43.65 63.0002 45 61.6502 45 60.0002V36.0902C45 34.1402 44.07 32.3402 42.48 31.2002Z" fill="#7770E9"/>
<path d="M63.09 9H35.91C32.64 9 30 11.64 30 14.91L30.27 15.18C30.51 15.33 30.75 15.45 30.99 15.6L45.99 26.31C48.27 27.93 49.89 30.33 50.61 33H57V39H51V45H57V51H51V63H63.09C66.36 63 69 60.36 69 57.09V14.91C69 11.64 66.36 9 63.09 9ZM57 27H51V21H57V27Z" fill="#7770E9"/>
</svg>
