<svg width="43" height="43" viewBox="0 0 43 43" fill="none" xmlns="http://www.w3.org/2000/svg">
<g clip-path="url(#clip0_1497_1515)">
<path d="M32.7031 0H10.0112C4.48215 0 0 4.48215 0 10.0112V32.7031C0 38.2321 4.48215 42.7143 10.0112 42.7143H32.7031C38.2321 42.7143 42.7143 38.2321 42.7143 32.7031V10.0112C42.7143 4.48215 38.2321 0 32.7031 0Z" fill="url(#paint0_radial_1497_1515)"/>
<path d="M32.7031 0H10.0112C4.48215 0 0 4.48215 0 10.0112V32.7031C0 38.2321 4.48215 42.7143 10.0112 42.7143H32.7031C38.2321 42.7143 42.7143 38.2321 42.7143 32.7031V10.0112C42.7143 4.48215 38.2321 0 32.7031 0Z" fill="url(#paint1_radial_1497_1515)"/>
<path d="M21.3586 4.67188C16.8273 4.67188 16.2585 4.69173 14.4788 4.77265C12.7025 4.85408 11.49 5.13522 10.4291 5.54785C9.33157 5.97399 8.4007 6.54413 7.47333 7.47183C6.54513 8.39936 5.97499 9.33023 5.54752 10.4273C5.13372 11.4885 4.85224 12.7015 4.77232 14.477C4.69273 16.2568 4.67188 16.8258 4.67188 21.3573C4.67188 25.8889 4.6919 26.4558 4.77265 28.2355C4.85441 30.0118 5.13556 31.2243 5.54785 32.2852C5.97433 33.3827 6.54446 34.3136 7.47216 35.241C8.39936 36.1692 9.33024 36.7406 10.427 37.1668C11.4886 37.5794 12.7013 37.8605 14.4773 37.942C16.2571 38.0229 16.8254 38.0427 21.3566 38.0427C25.8885 38.0427 26.4555 38.0229 28.2351 37.942C30.0115 37.8605 31.2253 37.5794 32.287 37.1668C33.3841 36.7406 34.3136 36.1692 35.2406 35.241C36.1688 34.3136 36.7388 33.3827 37.1664 32.2857C37.5766 31.2243 37.8582 30.0115 37.9416 28.2358C38.0216 26.4562 38.0424 25.8889 38.0424 21.3573C38.0424 16.8258 38.0216 16.2571 37.9416 14.4773C37.8582 12.701 37.5766 11.4886 37.1664 10.4278C36.7388 9.33023 36.1688 8.39936 35.2406 7.47183C34.3126 6.54379 33.3844 5.97366 32.286 5.54802C31.2223 5.13522 30.0091 4.85391 28.2328 4.77265C26.453 4.69173 25.8864 4.67188 21.3535 4.67188H21.3586ZM19.8618 7.67873C20.3061 7.67806 20.8019 7.67873 21.3586 7.67873C25.8138 7.67873 26.3417 7.69474 28.101 7.77467C29.7278 7.84908 30.6108 8.12089 31.1989 8.34931C31.9776 8.65164 32.5328 9.01321 33.1164 9.59737C33.7004 10.1813 34.0618 10.7375 34.365 11.5162C34.5934 12.1035 34.8655 12.9865 34.9396 14.6133C35.0195 16.3723 35.0369 16.9005 35.0369 21.3535C35.0369 25.8064 35.0195 26.3349 34.9396 28.0936C34.8652 29.7205 34.5934 30.6034 34.365 31.1909C34.0626 31.9696 33.7004 32.5241 33.1164 33.1077C32.5324 33.6917 31.978 34.0531 31.1989 34.3556C30.6115 34.5851 29.7278 34.8562 28.101 34.9306C26.342 35.0105 25.8138 35.0279 21.3586 35.0279C16.9033 35.0279 16.3753 35.0105 14.6165 34.9306C12.9896 34.8555 12.1067 34.5837 11.518 34.3553C10.7395 34.0528 10.1832 33.6914 9.5992 33.1074C9.01522 32.5234 8.65381 31.9686 8.35064 31.1896C8.12222 30.6021 7.85009 29.7191 7.776 28.0923C7.69608 26.3334 7.68006 25.8051 7.68006 21.3493C7.68006 16.8935 7.69608 16.3681 7.776 14.6091C7.85042 12.9823 8.12222 12.0993 8.35064 11.5112C8.65315 10.7325 9.01522 10.1763 9.59937 9.59236C10.1835 9.00838 10.7395 8.64681 11.5182 8.3438C12.1063 8.11438 12.9896 7.84324 14.6165 7.76849C16.1557 7.69892 16.7522 7.67806 19.8618 7.67456V7.67873ZM30.2652 10.4491C29.1598 10.4491 28.263 11.3451 28.263 12.4507C28.263 13.5561 29.1598 14.4529 30.2652 14.4529C31.3706 14.4529 32.2675 13.5561 32.2675 12.4507C32.2675 11.3453 31.3706 10.4485 30.2652 10.4485V10.4491ZM21.3586 12.7886C16.6267 12.7886 12.7901 16.6252 12.7901 21.3573C12.7901 26.0894 16.6267 29.9242 21.3586 29.9242C26.0908 29.9242 29.926 26.0894 29.926 21.3573C29.926 16.6254 26.0904 12.7886 21.3583 12.7886H21.3586ZM21.3586 15.7954C24.4302 15.7954 26.9205 18.2854 26.9205 21.3573C26.9205 24.4289 24.4302 26.9192 21.3586 26.9192C18.2871 26.9192 15.7969 24.4289 15.7969 21.3573C15.7969 18.2854 18.2869 15.7954 21.3586 15.7954Z" fill="white"/>
</g>
<defs>
<radialGradient id="paint0_radial_1497_1515" cx="0" cy="0" r="1" gradientUnits="userSpaceOnUse" gradientTransform="translate(11.346 46.0041) rotate(-90) scale(42.333 39.3731)">
<stop stop-color="#FFDD55"/>
<stop offset="0.1" stop-color="#FFDD55"/>
<stop offset="0.5" stop-color="#FF543E"/>
<stop offset="1" stop-color="#C837AB"/>
</radialGradient>
<radialGradient id="paint1_radial_1497_1515" cx="0" cy="0" r="1" gradientUnits="userSpaceOnUse" gradientTransform="translate(-7.15481 3.07693) rotate(78.681) scale(18.9231 78.0016)">
<stop stop-color="#3771C8"/>
<stop offset="0.128" stop-color="#3771C8"/>
<stop offset="1" stop-color="#6600FF" stop-opacity="0"/>
</radialGradient>
<clipPath id="clip0_1497_1515">
<rect width="42.7143" height="42.7143" fill="white"/>
</clipPath>
</defs>
</svg>
