<svg width="371" height="368" viewBox="0 0 371 368" fill="none" xmlns="http://www.w3.org/2000/svg">
<path d="M303.841 367.544H45.4752V102.331C45.4752 45.9056 91.3598 0 147.76 0H201.557C257.957 0 303.841 45.9056 303.841 102.331V367.544Z" fill="#C2BFFF"/>
<path d="M250.045 367.544H45.4752V102.331C45.4188 80.7102 52.2622 59.6355 65.009 42.1757C65.4788 41.535 65.9476 40.9026 66.4308 40.2772C72.5964 32.187 79.9336 25.062 88.2003 19.1375C88.6673 18.7975 89.1361 18.4634 89.6119 18.1294C96.5293 13.3402 104.012 9.42521 111.89 6.4734C112.358 6.29617 112.834 6.11847 113.31 5.94774C120.435 3.40361 127.82 1.66078 135.331 0.751432C135.794 0.68787 136.274 0.638231 136.752 0.588124C144.07 -0.194739 151.451 -0.194739 158.77 0.588124C159.247 0.637767 159.725 0.687873 160.196 0.751899C167.704 1.66152 175.087 3.40435 182.21 5.9482C182.686 6.11847 183.163 6.29617 183.632 6.47433C191.413 9.38869 198.808 13.2452 205.652 17.9577C206.127 18.2825 206.603 18.6184 207.072 18.9524C211.706 22.2616 216.058 25.9482 220.085 29.9746C223.314 33.2042 226.323 36.6467 229.092 40.2791C229.574 40.9026 230.042 41.535 230.511 42.1748C243.259 59.6348 250.102 80.7098 250.046 102.331L250.045 367.544Z" fill="#6C63FF"/>
<path d="M233.41 183.418C239.665 183.418 244.735 178.345 244.735 172.088C244.735 165.83 239.665 160.757 233.41 160.757C227.155 160.757 222.084 165.83 222.084 172.088C222.084 178.345 227.155 183.418 233.41 183.418Z" fill="#C2BFFF"/>
<path d="M370.404 368H0.596853C0.267595 368 0.000488281 367.622 0.000488281 367.157C0.000488281 366.692 0.267595 366.313 0.596853 366.313H370.404C370.733 366.313 371 366.691 371 367.157C371 367.623 370.733 368 370.404 368Z" fill="#E6E6E6"/>
<path d="M193.77 290.707H101.749C100.538 290.713 99.3725 290.239 98.5099 289.387C97.6474 288.535 97.1576 287.376 97.1482 286.164V80.672C97.1576 79.4597 97.6473 78.3005 98.5098 77.4489C99.3723 76.5972 100.537 76.1225 101.749 76.129H193.77C194.982 76.1225 196.147 76.5972 197.009 77.4489C197.872 78.3005 198.361 79.4597 198.371 80.672V286.164C198.361 287.376 197.872 288.535 197.009 289.387C196.146 290.239 194.982 290.713 193.77 290.707Z" fill="white"/>
<path d="M198.371 142.62H97.1482V144.036H198.371V142.62Z" fill="#CCCCCC"/>
<path d="M198.725 223.431H97.5021V224.848H198.725V223.431Z" fill="#CCCCCC"/>
<path d="M130.418 76.1294H129.002V291.416H130.418V76.1294Z" fill="#CCCCCC"/>
<path d="M165.81 76.1294H164.394V291.416H165.81V76.1294Z" fill="#CCCCCC"/>
<path d="M302.269 135.057C302.268 135.884 302.172 136.709 301.981 137.513L293.824 172.239C293.549 173.412 293.045 174.52 292.342 175.498C291.638 176.477 290.749 177.307 289.724 177.941C288.699 178.575 287.56 179.001 286.371 179.193C285.181 179.386 283.966 179.343 282.793 179.065L250.105 168.918L248.509 168.424C247.472 169.137 246.305 169.635 245.073 169.891C243.842 170.147 242.573 170.154 241.338 169.914C236.594 169.074 233.309 165.211 234.002 161.28C234.695 157.349 239.103 154.849 243.847 155.684C245.089 155.88 246.28 156.321 247.35 156.982C248.42 157.642 249.348 158.509 250.08 159.532L250.105 159.536L250.188 159.551L278.639 163.072L281.031 134.202C281.251 131.463 282.523 128.915 284.579 127.092C286.635 125.269 289.316 124.313 292.061 124.423C294.806 124.534 297.401 125.702 299.304 127.684C301.207 129.667 302.27 132.308 302.27 135.057L302.269 135.057Z" fill="#ED9DA0"/>
<path d="M302.269 135.058C302.269 135.885 302.172 136.709 301.981 137.514L295.289 173.702C295.014 174.876 294.51 175.983 293.806 176.962C293.103 177.94 292.213 178.77 291.189 179.404C290.164 180.039 289.024 180.464 287.835 180.657C286.646 180.85 285.43 180.807 284.258 180.529L251.57 171.435L253.034 157.274L277.927 160.693L281.032 134.201C281.252 131.461 282.524 128.913 284.58 127.09C286.636 125.268 289.317 124.311 292.062 124.422C294.807 124.532 297.402 125.701 299.305 127.683C301.208 129.665 302.271 132.307 302.271 135.055L302.269 135.058Z" fill="#6C63FF"/>
<path d="M344.724 325.755L336.828 331.578L342.649 339.477L350.544 333.654L344.724 325.755Z" fill="#ED9DA0"/>
<path d="M354.49 341.833L337.707 354.212C336.263 355.274 334.599 356 332.838 356.336L328.647 357.13C328.186 357.218 327.708 357.162 327.279 356.971C326.85 356.78 326.489 356.463 326.245 356.061C326.001 355.659 325.885 355.193 325.913 354.723C325.941 354.254 326.112 353.805 326.402 353.435L331.483 346.96L338.172 333.163L338.21 333.199C339.177 334.083 340.645 335.413 340.755 335.478C342.821 335.935 344.407 335.678 345.47 334.714C347.325 333.033 346.951 329.734 346.947 329.703L346.943 329.678L346.965 329.665C347.175 329.523 347.415 329.431 347.665 329.397C347.916 329.363 348.171 329.387 348.412 329.467C349.377 329.819 349.881 331.087 349.953 331.281C350.895 331.413 353.347 334.225 353.544 334.453C354.954 334.708 355.925 335.238 356.43 336.027C356.654 336.42 356.793 336.856 356.836 337.307C356.88 337.758 356.828 338.212 356.684 338.641C356.338 339.924 355.564 341.051 354.49 341.833Z" fill="#2F2E43"/>
<path d="M277.016 348.804H267.207V358.617H277.016V348.804Z" fill="#ED9DA0"/>
<path d="M275.341 367.544H254.49C252.697 367.542 250.928 367.138 249.311 366.363L245.467 364.515C245.044 364.311 244.693 363.983 244.46 363.575C244.228 363.166 244.126 362.696 244.168 362.228C244.21 361.76 244.393 361.316 244.694 360.955C244.995 360.594 245.399 360.333 245.852 360.208L253.782 358.012L267.348 350.878L267.359 350.929C267.612 352.215 268.006 354.157 268.054 354.275C269.445 355.87 270.875 356.605 272.302 356.459C274.792 356.207 276.447 353.33 276.464 353.301L276.476 353.279L276.502 353.282C276.755 353.292 277.002 353.361 277.224 353.482C277.446 353.603 277.638 353.774 277.784 353.981C278.352 354.838 278.005 356.157 277.948 356.356C278.628 357.022 278.934 360.741 278.957 361.042C279.941 362.085 280.408 363.088 280.349 364.023C280.296 364.472 280.149 364.906 279.917 365.294C279.685 365.683 279.374 366.018 279.004 366.278C277.964 367.106 276.672 367.554 275.343 367.546L275.341 367.544Z" fill="#2F2E43"/>
<path d="M317.039 195.396H270.027L262.533 351.429H279.089L289.786 280.505L332.709 337.244L348.38 323.059L317.038 280.504L317.039 195.396Z" fill="#2F2E43"/>
<path d="M306.233 98.8422C306.233 95.6383 305.344 92.4974 303.667 89.768C301.99 87.0387 299.59 84.8278 296.732 83.3808C293.875 81.9338 290.673 81.3074 287.482 81.571C284.29 81.8346 281.234 82.978 278.653 84.8743C276.072 86.7705 274.066 89.3454 272.859 92.3129C271.652 95.2805 271.291 98.5247 271.815 101.685C272.34 104.846 273.73 107.799 275.831 110.217C277.931 112.635 280.661 114.424 283.716 115.384L287.066 137.53L304.141 123.294C304.141 123.294 300.452 118.594 298.474 113.293C300.86 111.714 302.818 109.567 304.173 107.045C305.527 104.523 306.235 101.705 306.233 98.8422Z" fill="#ED9DA0"/>
<path d="M306.716 174.007L314.394 196.643L270.953 196.155L277.43 175.472L306.716 174.007Z" fill="#ED9DA0"/>
<path d="M302.573 117.158C304.513 120.389 305.845 123.948 306.496 127.658L306.621 128.429L320.531 221.396H302.822L265.91 216.886L283.965 123.63L302.573 117.158Z" fill="#6C63FF" stroke="#938DFF"/>
<path d="M297.392 227.078L297.727 211.616L288.704 211.42L288.368 226.882C287.469 227.761 286.753 228.81 286.263 229.968C285.773 231.127 285.519 232.371 285.514 233.629C285.41 238.449 288.557 242.426 292.544 242.512C296.53 242.599 299.847 238.762 299.951 233.943C300.002 232.685 299.801 231.431 299.362 230.252C298.922 229.073 298.253 227.993 297.392 227.076V227.078Z" fill="#ED9DA0"/>
<path d="M302.438 109.484C303.339 109.638 304.396 107.453 305.406 105.326C307.521 100.872 308.866 98.0416 308.968 94.0386C309.055 90.6276 308.108 91.523 307.187 83.9397C306.883 81.4385 302.612 81.4431 301.742 80.2554C300.274 78.2493 302.527 77.422 298.874 76.219C292.031 73.9618 288.937 77.4684 284.59 77.7705C284.481 77.7779 282.326 79.8861 281.123 79.9951C279.015 80.1863 275.975 79.8559 274.611 76.6444C273.336 73.6399 272.491 82.4198 273.631 83.5059C274.628 84.5548 275.525 85.6952 276.309 86.9122C276.356 87.1029 274.301 80.9068 273.631 82.7413C273.149 84.0612 272.707 92.5975 273.934 92.8527C274.96 93.0661 283.484 96.3417 292.936 89.8834C293.271 89.6542 292.954 90.0198 294.123 92.8527C295.597 96.4252 295.932 96.6205 295.904 97.605C295.849 99.736 294.249 100.364 294.717 101.763C294.951 102.343 295.367 102.83 295.903 103.151C296.438 103.473 297.064 103.611 297.685 103.546C298.937 103.287 299.152 101.736 300.06 101.763C300.837 101.787 301.759 102.958 301.841 104.14C302.014 106.629 298.33 107.314 297.685 110.675C297.32 112.571 301.607 109.345 302.435 109.486L302.438 109.484Z" fill="#090814"/>
</svg>
