<svg width="26" height="20" viewBox="0 0 326 101"     fill="#ffffff" xmlns="http://www.w3.org/2000/svg">
<path d="M1.48191 18.4053C0.986794 20.4479 0.610099 22.5364 0.367917 24.6673C0.362714 24.7131 0.352286 24.7572 0.347191 24.803C0.342123 24.8486 0.331408 24.8925 0.326448 24.9382C0.121391 26.8303 0.000102986 28.7485 0 30.6951V30.7007C0.000102986 32.6472 0.12141 34.5654 0.326448 36.4574C0.331408 36.503 0.341991 36.5469 0.347059 36.5924C0.352154 36.6384 0.362582 36.6825 0.367785 36.7283C0.821926 40.7246 1.74934 44.5717 3.04349 48.2469C3.05944 48.2923 3.07697 48.3368 3.09306 48.3821C3.10919 48.4275 3.12639 48.4724 3.14264 48.5178C4.6075 52.606 6.51732 56.4841 8.88996 60.0363C8.9192 60.0802 8.94279 60.1279 8.97216 60.1716C9.00197 60.2159 9.0278 60.263 9.05773 60.3072C9.828 61.4456 10.6698 62.5311 11.5241 63.6039C11.571 63.6629 11.6125 63.7265 11.6597 63.7853C11.7068 63.844 11.7478 63.9077 11.7951 63.966C14.1341 66.8527 16.7705 69.488 19.6587 71.8258C19.7173 71.8732 19.7811 71.9141 19.8399 71.9612C19.8987 72.0084 19.9622 72.0498 20.0211 72.0967C21.0944 72.9505 22.1803 73.792 23.3191 74.5618C23.3634 74.5916 23.4104 74.6174 23.4548 74.6472C23.4985 74.6765 23.5462 74.7001 23.5901 74.7293C27.1437 77.1006 31.0244 79.0096 35.1141 80.4736C35.1596 80.4899 35.2045 80.5072 35.25 80.5234C35.2952 80.5394 35.3399 80.557 35.3852 80.5729C39.0618 81.8662 42.9115 82.7934 46.9093 83.2473C46.9551 83.2525 46.9992 83.2628 47.045 83.2679C47.0906 83.273 47.1346 83.2836 47.1803 83.2886C49.0738 83.4937 50.9944 83.6151 52.9425 83.6151C54.8905 83.6151 56.8114 83.4937 58.7049 83.2886C58.7506 83.2836 58.7945 83.273 58.8402 83.2679C58.8859 83.2628 58.9302 83.2524 58.9759 83.2472C62.9734 82.7933 66.8236 81.866 70.5 80.5728C70.5452 80.5568 70.5899 80.5394 70.6352 80.5234C70.6807 80.5072 70.7256 80.4899 70.771 80.4736C74.8602 79.0098 78.7418 77.1001 82.295 74.7292C82.3387 74.7 82.3866 74.6765 82.4303 74.6472C82.4746 74.6173 82.5217 74.5915 82.5659 74.5617C83.7045 73.792 84.7908 72.9503 85.8638 72.0967C85.9228 72.0498 85.9863 72.0084 86.045 71.9612C86.1037 71.9141 86.1677 71.8732 86.2263 71.8258C89.114 69.4884 91.7513 66.8522 94.09 63.9659C94.1374 63.9075 94.1782 63.8436 94.2254 63.785C94.2726 63.7262 94.314 63.6626 94.361 63.6037C95.2151 62.5311 96.0572 61.4452 96.8272 60.3073C96.8571 60.263 96.883 60.2159 96.9128 60.1716C96.9422 60.1279 96.9657 60.0802 96.995 60.0364C99.367 56.485 101.278 52.6048 102.742 48.5178C102.759 48.4724 102.776 48.4275 102.792 48.3821C102.808 48.3368 102.825 48.2922 102.841 48.2469C104.135 44.5727 105.063 40.7234 105.517 36.7283C105.522 36.6825 105.533 36.6384 105.538 36.5924C105.543 36.5469 105.554 36.503 105.558 36.4574C105.764 34.5651 105.885 32.6447 105.885 30.6979C105.885 28.7511 105.764 26.8306 105.558 24.9382C105.55 24.8631 105.526 24.7426 105.517 24.6673H105.791H105.885H106.021H106.156H117.391H117.662H117.68V13.1488H115.533H115.251H106.156H106.021H105.885H103.129H102.841H97.419C96.608 13.1488 95.8302 13.4708 95.2567 14.044C94.6833 14.6172 94.361 15.3947 94.361 16.2053V24.6673V24.803V24.9382V30.6979C94.361 31.6033 94.2828 32.4902 94.2254 33.381C94.1841 34.0234 94.1604 34.6705 94.09 35.3047C94.0469 35.6936 93.9679 36.0717 93.914 36.4574C93.9077 36.5026 93.8999 36.5473 93.8934 36.5924C93.8869 36.6379 93.8793 36.6829 93.8726 36.7283C93.2779 40.7895 92.0995 44.6586 90.4139 48.2469C90.3926 48.2922 90.3702 48.3369 90.3488 48.3821C90.3272 48.4274 90.3051 48.4724 90.2834 48.5178C88.3162 52.6271 85.7138 56.3774 82.5659 59.6002C82.519 59.6483 82.4774 59.7015 82.4303 59.7494C82.3832 59.7971 82.3422 59.8507 82.295 59.8982C82.249 59.9444 82.2029 59.9904 82.1568 60.0364C82.1092 60.0836 82.0556 60.1245 82.0078 60.1716C81.96 60.2188 81.9067 60.2603 81.8586 60.3073C78.6341 63.4536 74.8825 66.0545 70.771 68.0207C70.7256 68.0425 70.6806 68.0646 70.6352 68.0861C70.5899 68.1076 70.5453 68.1301 70.5 68.1514C66.9096 69.8363 63.0395 71.0136 58.9759 71.6082C58.9305 71.6148 58.8855 71.6224 58.8402 71.6289C58.795 71.6354 58.7502 71.6433 58.7049 71.6496C58.3182 71.7036 57.9394 71.7826 57.5495 71.8258C56.9138 71.8963 56.2653 71.9199 55.6212 71.9612C54.7317 72.0183 53.8465 72.0965 52.9425 72.0965C52.0385 72.0965 51.1533 72.0183 50.2636 71.9612C49.6197 71.9199 48.9712 71.8963 48.3355 71.8258C47.9455 71.7826 47.5668 71.7036 47.1803 71.6496C47.135 71.6433 47.0902 71.6355 47.045 71.629C46.9997 71.6226 46.9546 71.6149 46.9093 71.6083C42.8455 71.0138 38.9758 69.8365 35.3852 68.1515C35.3399 68.1302 35.2952 68.1077 35.25 68.0862C35.2045 68.0647 35.1595 68.0426 35.1141 68.0209C31.002 66.0544 27.2512 63.454 24.0263 60.3072C23.9783 60.2603 23.925 60.2188 23.8771 60.1716C23.8293 60.1245 23.7757 60.0836 23.7282 60.0363C23.682 59.9904 23.6361 59.9445 23.59 59.8983C23.5427 59.8508 23.5019 59.7972 23.4548 59.7495C23.4076 59.7017 23.3661 59.6484 23.319 59.6003C20.1705 56.3768 17.5691 52.6281 15.6015 48.5178C15.5799 48.4724 15.5576 48.4275 15.5361 48.3821C15.5146 48.3368 15.4922 48.2923 15.4708 48.2469H15.7703H23.319H23.4548H23.59H29.1234H29.4595H35.1141H35.25H35.3852H46.9093H47.045H47.1803H49.9501H55.9349H58.7049H58.8402H58.9759H70.5H70.6352H70.771H71.1583C74.0674 48.2469 77.8919 46.3721 79.1984 43.7781C80.3086 41.5739 81.1493 39.2118 81.6685 36.7283C81.6781 36.6825 81.692 36.6384 81.7014 36.5924C81.7105 36.5482 81.7133 36.5017 81.7221 36.4574C82.0933 34.5946 82.2948 32.6698 82.2948 30.6979C82.2948 28.726 82.0932 26.8011 81.722 24.9382C81.7132 24.8939 81.7105 24.8474 81.7014 24.803C81.692 24.7571 81.678 24.7131 81.6684 24.6673C81.1492 22.1839 80.3085 19.8218 79.1982 17.6175C77.8918 15.0236 74.0673 13.1487 71.1581 13.1487H70.771H70.6352H70.5H58.9759H58.8402H58.7049H55.9367H49.9483H47.1803H47.045H46.9093H35.3852H35.25H35.1141H29.4595H29.1234H23.59H23.4548H23.319H15.7703H15.471H11.7951H11.6597H11.5241H8.53199C5.50085 13.1487 2.19536 15.4621 1.48191 18.4053ZM12.286 24.6673H67.345C68.4874 24.6673 69.7456 25.5355 70.0138 26.6448C70.3188 27.9057 70.4997 29.2602 70.4997 30.6979C70.4997 32.1303 70.3198 33.4856 70.014 34.7508C69.7457 35.8601 68.4874 36.7283 67.345 36.7283H58.9759H58.8402H58.7049H47.1803H47.045H46.9093H36.4718H36.1843H35.3852H35.25H35.1141H24.2169H23.9379H23.5901H23.4548H23.3191H12.286C11.9439 34.4106 11.7952 32.4732 11.7951 30.7007C11.7951 30.6999 11.7948 30.6988 11.7948 30.6979C11.7948 30.6971 11.7951 30.6961 11.7951 30.6952C11.7953 27.5087 12.286 24.8252 12.286 24.6673ZM117.68 13.1488V24.6673H128.945H129.204V24.5002V13.1487H127.435H127.157L117.68 13.1488Z"    fill="#ffffff"/>
<path d="M38.8291 100.96C42.2011 100.96 44.9345 98.2281 44.9345 94.8578C44.9345 91.4873 42.2011 88.7551 38.8291 88.7551C35.4571 88.7551 32.7236 91.4873 32.7236 94.8578C32.7236 98.2281 35.4571 100.96 38.8291 100.96Z"     fill="#ffffff"/>
<path d="M64.6021 100.96C67.974 100.96 70.7075 98.2281 70.7075 94.8578C70.7075 91.4873 67.974 88.7551 64.6021 88.7551C61.2301 88.7551 58.4966 91.4873 58.4966 94.8578C58.4966 98.2281 61.2301 100.96 64.6021 100.96Z"   fill="#ffffff"/>
<path d="M174.138 8.06276L171.32 10.8413L168.502 8.06276L171.32 5.28422L174.138 8.06276ZM180.278 8.06276L177.459 10.8413L174.602 8.06276L177.459 5.28422L180.278 8.06276ZM174.563 14.4689C176.956 14.5203 178.9 15.3436 180.393 16.9387C181.885 18.5081 182.632 20.5791 182.632 23.1518V30.87C182.632 34.1888 181.474 36.7229 179.157 38.4724C176.841 40.2219 173.366 41.0966 168.733 41.0966C165.18 41.0966 162.324 40.2347 160.162 38.511C158 36.7873 156.919 34.3175 156.919 31.1015C156.919 28.3488 157.485 25.2486 158.617 21.8012L161.281 22.5344C160.38 25.1843 159.93 27.757 159.93 30.2525C159.956 32.7995 160.805 34.7163 162.478 36.0026C164.152 37.3147 166.494 37.9707 169.505 37.9707C172.413 37.9707 174.769 37.3918 176.571 36.2341C178.372 35.0764 179.363 33.4942 179.543 31.4874C177.742 32.3622 176.017 32.7995 174.37 32.7995C171.848 32.7995 169.788 32.0019 168.193 30.4069C166.622 28.7861 165.838 26.625 165.838 23.9236C165.838 21.1194 166.648 18.8425 168.27 17.0931C169.917 15.3178 172.015 14.4431 174.563 14.4689ZM170.355 19.4085C169.376 20.4891 168.887 21.9427 168.887 23.7693C168.887 25.5959 169.415 26.9981 170.47 27.9756C171.551 28.9533 172.993 29.4421 174.794 29.4421C176.391 29.4421 177.922 29.1591 179.389 28.5932V23.4219C179.389 21.7754 178.913 20.4504 177.96 19.4471C177.033 18.418 175.799 17.8906 174.254 17.8649C172.658 17.8134 171.359 18.3279 170.355 19.4085ZM205.819 29.3264C206.077 29.3264 206.205 29.4421 206.205 29.6736V32.4136C206.205 32.6709 206.077 32.7995 205.819 32.7995H203.541C203.078 38.3309 198.291 41.0966 189.178 41.0966L188.792 38.2794C192.37 38.2794 195.111 37.8421 197.017 36.9673C198.921 36.0926 200.002 34.7034 200.26 32.7995H195.626C192.898 32.7995 190.71 31.9763 189.063 30.3297C187.415 28.6574 186.592 26.4191 186.592 23.6149C186.592 20.8621 187.428 18.6109 189.101 16.8614C190.8 15.112 192.936 14.2374 195.511 14.2374C197.904 14.2374 199.848 15.0349 201.34 16.6299C202.833 18.1993 203.58 20.2832 203.58 22.8816V29.3264H205.819ZM189.642 23.4605C189.642 25.3901 190.221 26.8694 191.379 27.8985C192.538 28.9276 194.095 29.4421 196.051 29.4421C196.875 29.4421 198.291 29.4164 200.298 29.365V23.1518C200.298 21.4795 199.822 20.1417 198.869 19.1384C197.943 18.1093 196.72 17.5947 195.202 17.5947C193.606 17.5947 192.28 18.135 191.225 19.2155C190.17 20.2961 189.642 21.7111 189.642 23.4605ZM234.429 14.1216L237.672 13.5813V25.3514C237.672 27.7184 237.028 29.545 235.742 30.8315C234.455 32.1178 232.55 32.761 230.027 32.761C227.968 32.761 225.819 32.0792 223.58 30.7156C222.216 32.0792 220.26 32.761 217.712 32.761C215.858 32.761 213.94 32.0921 211.959 30.7542C210.543 32.1178 208.496 32.7995 205.82 32.7995C205.562 32.7995 205.433 32.6709 205.433 32.4136V29.6736C205.433 29.4421 205.562 29.3264 205.82 29.3264C209.063 29.3264 210.685 27.7184 210.685 24.5025L210.646 18.2508L213.928 17.7491V25.3901C213.928 26.4706 213.773 27.4611 213.465 28.3615C214.957 28.9791 216.296 29.2877 217.48 29.2877C220.723 29.2877 222.344 27.6799 222.344 24.4639L222.306 18.2122L225.587 17.7105V25.3514C225.587 26.4835 225.421 27.474 225.086 28.323C226.681 28.9662 228.174 29.2877 229.565 29.2877C231.134 29.2877 232.331 28.889 233.155 28.0914C234.005 27.2682 234.429 26.059 234.429 24.4639V14.1216ZM281.572 14.4303L283.811 16.3984V32.6837L280.53 33.1854V17.9035H277.402C275.831 17.9035 274.609 18.315 273.734 19.1384C272.885 19.9359 272.459 21.1194 272.459 22.6887V29.7123C272.459 33.4684 271.637 36.2985 269.989 38.2023C268.368 40.1318 265.511 41.0966 261.418 41.0966C258.175 41.0966 255.6 40.2476 253.696 38.5496C251.817 36.8773 250.877 34.3946 250.877 31.1015C250.877 28.3488 251.443 25.2486 252.576 21.8012L255.241 22.5344C254.34 25.1843 253.888 27.757 253.888 30.2525C253.914 32.6709 254.597 34.4975 255.935 35.7325C257.274 36.9931 259.166 37.6235 261.611 37.6235C264.416 37.6235 266.385 37.0059 267.518 35.7711C268.651 34.5361 269.216 32.4007 269.216 29.365V22.1098C269.216 19.7429 269.873 17.8777 271.185 16.5142C272.524 15.1249 274.442 14.4303 276.938 14.4303H281.572ZM256.476 46.1906L259.294 43.412L262.112 46.1906L259.294 48.9692L256.476 46.1906ZM262.576 46.1906L265.432 43.412L268.251 46.1906L265.432 48.9692L262.576 46.1906ZM296.438 7.86981L293.619 10.687L290.762 7.86981L293.542 5.09127L296.438 7.86981ZM299.527 29.3264C299.784 29.3264 299.913 29.4421 299.913 29.6736V32.4136C299.913 32.6709 299.784 32.7995 299.527 32.7995C297.545 32.7995 296.091 32.1178 295.164 30.7542V31.7575C295.164 34.9735 294.34 37.3276 292.693 38.8197C291.046 40.3377 288.575 41.0966 285.28 41.0966L284.971 38.2794C289.605 38.2794 291.921 36.0669 291.921 31.6418L291.882 14.1601L295.164 13.6198V25.6602C295.344 28.1043 296.799 29.3264 299.527 29.3264ZM299.552 32.7995C299.295 32.7995 299.166 32.6709 299.166 32.4136L299.205 29.6736C299.205 29.4421 299.334 29.3264 299.591 29.3264H302.525C305.743 29.3264 307.351 27.7184 307.351 24.5025V14.1601L310.595 13.6198V25.3901C310.595 27.757 309.913 29.5836 308.548 30.87C307.184 32.1563 305.164 32.7995 302.486 32.7995H299.552ZM302.023 41.4053L299.205 38.6268L302.023 35.8482L304.842 38.6268L302.023 41.4053ZM308.162 41.4053L305.305 38.6268L308.162 35.8482L310.981 38.6268L308.162 41.4053ZM319.805 4.62817V32.7995H316.522V5.12986L319.805 4.62817ZM316.175 40.3633H321.156L320.653 42.5631H311.928V40.3633H314.052C313.64 39.6945 313.434 38.9483 313.434 38.1251C313.434 37.1732 313.755 36.3756 314.399 35.7325C315.068 35.115 315.904 34.8063 316.909 34.8063C317.81 34.8063 318.813 35.0507 319.92 35.5395V37.4305C319.019 37.0446 318.196 36.8515 317.449 36.8515C316.883 36.8515 316.419 37.0059 316.059 37.3147C315.699 37.6234 315.518 38.035 315.518 38.5496C315.518 39.2957 315.738 39.9003 316.175 40.3633Z"   fill="#ffffff"/>
<path d="M168.942 60.0037C175.643 60.0037 181.979 65.2997 181.72 74.0223C181.72 75.0089 180.888 75.8396 179.902 75.8396H160.63C161.409 80.149 164.578 83.1086 169.772 83.1086C172.162 83.1086 174.396 82.2778 175.954 80.8759C176.421 80.4605 177.097 80.4086 177.616 80.7721L179.174 81.7586C179.954 82.2258 180.058 83.2643 179.486 83.8874C177.097 86.2757 173.72 87.5737 169.772 87.5737C161.046 87.5737 155.644 81.3951 155.644 73.8147C155.644 66.1823 161.202 60.0037 168.942 60.0037ZM160.63 71.7379H176.785C176.162 67.3245 173.409 64.4689 168.942 64.4689C164.422 64.4689 161.357 67.3764 160.63 71.7379ZM191.914 82.4855H204.485C205.263 82.4855 205.887 83.1086 205.887 83.8354V85.5489C205.887 86.3276 205.263 86.9506 204.485 86.9506H187.291C186.511 86.9506 185.888 86.3276 185.888 85.5489V83.8874C185.888 83.3681 186.096 82.9008 186.356 82.4855L199.394 65.1439H187.758C186.978 65.1439 186.356 64.5208 186.356 63.742V62.0286C186.356 61.2498 186.978 60.6267 187.758 60.6267H204.017C204.796 60.6267 205.419 61.2498 205.419 62.0286V63.6901C205.419 64.2094 205.263 64.6766 204.952 65.092L191.914 82.4855ZM222.114 71.686C228.556 73.0358 230.738 75.0608 230.738 79.0587C230.738 83.6796 227.361 87.5737 220.4 87.5737C215.882 87.5737 212.038 86.0161 210.376 83.1086C209.959 82.3298 210.376 81.3951 211.154 81.1355L213.232 80.4086C213.855 80.201 214.479 80.4605 214.843 80.9798C215.569 82.122 217.18 83.2643 220.504 83.2643C223.933 83.2643 225.855 81.8624 225.855 79.526C225.855 76.4107 221.44 76.4626 217.751 75.6319C212.868 74.4896 210.687 72.1013 210.687 68.2591C210.687 63.4305 214.687 60.0037 220.452 60.0037C224.089 60.0037 227.361 61.6132 228.815 64.4689C229.232 65.2477 228.815 66.2342 227.985 66.4419L226.114 66.9611C225.543 67.1169 224.919 66.9092 224.608 66.39C223.881 65.2477 222.375 64.2094 219.985 64.2094C217.388 64.2094 215.517 65.715 215.517 67.8957C215.517 70.8552 219.102 71.0629 222.114 71.686ZM247.886 60.0037C255.833 60.0037 261.704 66.2342 261.704 73.8147C261.704 81.3951 255.833 87.6256 247.886 87.6256C239.938 87.6256 234.069 81.3951 234.069 73.8147C234.069 66.2342 239.938 60.0037 247.886 60.0037ZM247.886 83.1086C253.08 83.1086 256.872 79.1626 256.872 73.8147C256.872 68.4149 253.08 64.4689 247.886 64.4689C242.692 64.4689 238.952 68.4149 238.952 73.8147C238.952 79.1626 242.692 83.1086 247.886 83.1086ZM286.511 60.6267H288.484C289.212 60.6267 289.835 61.2498 289.835 62.0286V85.5489C289.835 86.3276 289.212 86.9506 288.484 86.9506H286.511C285.731 86.9506 285.108 86.3276 285.108 85.5489V83.2643C283.55 85.6527 281.005 87.5737 277.005 87.5737C271.083 87.5737 266.875 82.6932 266.875 77.0857V62.0286C266.875 61.2498 267.499 60.6267 268.278 60.6267H270.252C270.979 60.6267 271.603 61.2498 271.603 62.0286V75.7358C271.603 79.4221 273.213 83.1086 278.148 83.1086C283.134 83.1086 285.108 78.851 285.108 75.7358V62.0286C285.108 61.2498 285.731 60.6267 286.511 60.6267ZM317.744 62.0286C317.744 61.2498 318.367 60.6267 319.094 60.6267H321.068C321.847 60.6267 322.47 61.2498 322.47 62.0286V95.5696C322.47 96.3484 321.847 96.9714 321.068 96.9714H319.094C318.367 96.9714 317.744 96.3484 317.744 95.5696V83.2643C315.769 85.7046 312.705 87.5737 308.134 87.5737C299.927 87.5737 295.044 80.6683 295.044 73.8147C295.044 66.9092 299.927 60.0037 308.134 60.0037C312.705 60.0037 315.769 61.8729 317.744 64.3132V62.0286ZM308.601 83.1086C314.419 83.1086 317.744 79.0068 317.744 73.8147C317.744 68.5707 314.419 64.4689 308.601 64.4689C303.199 64.4689 299.875 68.4669 299.875 73.8147C299.875 79.1106 303.199 83.1086 308.601 83.1086Z" />
</svg>
