<svg width="324" height="290" viewBox="0 0 324 290" fill="none" xmlns="http://www.w3.org/2000/svg">
<path d="M319.655 110.767L162.308 0.15625L3.35425 109.736L159.937 175.857L319.655 110.767Z" fill="white"/>
<path d="M3.9618 109.635H4.07482L69.0594 137.384L157.973 175.348C158.321 175.494 158.694 175.571 159.07 175.572C159.447 175.574 159.821 175.502 160.17 175.359L251.899 137.302L318.48 109.678L318.583 109.633H318.696C319.746 109.634 320.753 110.052 321.496 110.795C322.238 111.538 322.656 112.544 322.658 113.595V285.684C322.656 286.735 322.239 287.742 321.496 288.484C320.753 289.227 319.746 289.645 318.696 289.646H3.9618C2.91144 289.645 1.9045 289.227 1.16178 288.484C0.419071 287.741 0.00118007 286.735 -0.000244141 285.684V113.597C0.000895787 112.547 0.418713 111.539 1.16149 110.797C1.90426 110.054 2.91136 109.636 3.9618 109.635Z" fill="white"/>
<path d="M3.67967 110.762C3.79515 110.762 3.90788 110.727 4.00265 110.661L160.555 1.63737C161.031 1.30708 161.598 1.13055 162.177 1.13151C162.757 1.13247 163.323 1.31089 163.798 1.64275L319.223 110.664C319.346 110.737 319.492 110.762 319.633 110.731C319.773 110.701 319.896 110.619 319.978 110.502C320.06 110.384 320.094 110.24 320.074 110.098C320.054 109.956 319.981 109.827 319.869 109.737L164.448 0.715747C163.783 0.251114 162.991 0.00135276 162.179 5.47921e-06C161.368 -0.0013418 160.575 0.245801 159.908 0.708223L3.35666 109.736C3.25807 109.805 3.18402 109.903 3.14523 110.017C3.10643 110.131 3.10493 110.254 3.14092 110.369C3.17691 110.484 3.24852 110.584 3.34539 110.656C3.44226 110.727 3.55935 110.766 3.67967 110.766V110.762Z" fill="#3F3D56"/>
<path d="M310.341 114.628L162.022 4.70312L12.5801 122.448L154.382 206.511L231.367 188.962L310.341 114.628Z" fill="#F2F2F2"/>
<path d="M224.868 258.433H298.137C298.592 258.441 299.044 258.359 299.466 258.192C299.889 258.024 300.274 257.773 300.598 257.455C300.923 257.137 301.181 256.757 301.358 256.338C301.534 255.919 301.626 255.469 301.626 255.014C301.627 254.56 301.537 254.11 301.362 253.69C301.186 253.27 300.929 252.89 300.605 252.571C300.281 252.252 299.897 252 299.475 251.831C299.053 251.662 298.601 251.579 298.147 251.586H224.868C223.97 251.601 223.115 251.967 222.485 252.607C221.855 253.246 221.501 254.107 221.5 255.005C221.498 255.902 221.85 256.765 222.478 257.406C223.106 258.047 223.961 258.416 224.858 258.433H224.868Z" fill="#6C63FF"/>
<path d="M271.847 243.718H298.135C298.59 243.726 299.041 243.645 299.464 243.477C299.887 243.309 300.272 243.059 300.596 242.74C300.921 242.422 301.179 242.042 301.356 241.623C301.532 241.204 301.623 240.754 301.624 240.3C301.625 239.845 301.535 239.395 301.36 238.975C301.184 238.556 300.927 238.175 300.603 237.856C300.279 237.537 299.895 237.285 299.473 237.116C299.051 236.947 298.599 236.864 298.145 236.872H271.847C270.949 236.886 270.094 237.253 269.464 237.892C268.834 238.531 268.48 239.392 268.479 240.29C268.477 241.187 268.829 242.05 269.457 242.691C270.085 243.332 270.94 243.701 271.837 243.718H271.847Z" fill="#6C63FF"/>
<path d="M159.937 175.852C160.494 175.851 161.046 175.742 161.561 175.529L253.033 137.575V18.7756C253.032 17.7251 252.614 16.7178 251.871 15.9749C251.128 15.2319 250.121 14.8139 249.071 14.8125H73.5912C72.5408 14.8139 71.5339 15.2318 70.7912 15.9745C70.0485 16.7172 69.6306 17.7242 69.6292 18.7745V137.663L69.8014 137.736L158.267 175.515C158.797 175.738 159.366 175.853 159.941 175.852H159.937Z" fill="white"/>
<path d="M158.152 175.783L69.3423 137.856V18.7803C69.3437 17.6549 69.7914 16.5759 70.5872 15.7801C71.3831 14.9843 72.462 14.5366 73.5874 14.5352H249.07C250.196 14.5366 251.275 14.9843 252.071 15.7801C252.866 16.5759 253.314 17.6549 253.315 18.7803V137.775L161.668 175.803C160.539 176.262 159.275 176.255 158.152 175.783ZM252.184 18.7825C252.182 17.9574 251.853 17.1667 251.269 16.5833C250.686 15.9999 249.895 15.6711 249.07 15.6688H73.5874C72.7624 15.6711 71.9717 15.9999 71.3883 16.5833C70.8049 17.1667 70.4761 17.9574 70.4738 18.7825V137.105L158.594 174.736C159.438 175.091 160.388 175.096 161.236 174.752L252.179 137.02L252.184 18.7825Z" fill="#3F3D56"/>
<path d="M0.848389 113.599V285.686C0.849529 286.736 1.26731 287.743 2.01009 288.486C2.75286 289.229 3.75996 289.647 4.8104 289.648H319.547C320.598 289.647 321.605 289.229 322.348 288.486C323.091 287.743 323.509 286.736 323.51 285.686V113.599C323.509 112.548 323.091 111.541 322.348 110.799C321.606 110.056 320.599 109.638 319.548 109.637H319.435L319.334 109.682L252.753 137.306L161.024 175.363C160.675 175.506 160.301 175.578 159.924 175.576C159.548 175.574 159.175 175.498 158.827 175.352L69.9145 137.386L4.92993 109.637H4.81687C3.76531 109.636 2.75656 110.053 2.01239 110.796C1.26822 111.539 0.84953 112.547 0.848389 113.599ZM1.98101 113.599C1.98256 112.868 2.26592 112.166 2.77209 111.639C3.27826 111.111 3.96826 110.8 4.69846 110.768L69.9102 138.613L158.376 176.393C159.36 176.806 160.467 176.813 161.455 176.411L252.751 138.529L319.655 110.769C320.386 110.799 321.078 111.11 321.586 111.637C322.093 112.165 322.377 112.868 322.378 113.6V285.686C322.378 286.437 322.079 287.156 321.549 287.687C321.018 288.218 320.298 288.516 319.547 288.516H4.81148C4.06088 288.516 3.34112 288.218 2.81037 287.687C2.27961 287.156 1.9813 286.437 1.98101 285.686V113.599Z" fill="#3F3D56"/>
<path d="M88.9502 59.2257H151.219C152.42 59.2257 153.572 58.7485 154.421 57.8992C155.27 57.0499 155.747 55.898 155.747 54.6968C155.747 53.4957 155.27 52.3438 154.421 51.4944C153.572 50.6451 152.42 50.168 151.219 50.168H88.9502C87.7491 50.168 86.5972 50.6451 85.7479 51.4944C84.8985 52.3438 84.4214 53.4957 84.4214 54.6968C84.4214 55.898 84.8985 57.0499 85.7479 57.8992C86.5972 58.7485 87.7491 59.2257 88.9502 59.2257Z" fill="#6C63FF"/>
<path d="M88.9879 39.9796H118.989C120.191 39.9796 121.342 39.5025 122.192 38.6531C123.041 37.8038 123.518 36.6519 123.518 35.4508C123.518 34.2496 123.041 33.0977 122.192 32.2483C121.342 31.399 120.191 30.9219 118.989 30.9219H88.9879C87.7867 30.9219 86.6348 31.399 85.7855 32.2483C84.9361 33.0977 84.459 34.2496 84.459 35.4508C84.459 36.6519 84.9361 37.8038 85.7855 38.6531C86.6348 39.5025 87.7867 39.9796 88.9879 39.9796Z" fill="#6C63FF"/>
<path opacity="0.5" d="M114.762 104.511H209.862C211.064 104.511 212.216 104.034 213.065 103.184C213.914 102.335 214.391 101.183 214.391 99.982C214.391 98.7808 213.914 97.6289 213.065 96.7796C212.216 95.9303 211.064 95.4531 209.862 95.4531H114.762C113.561 95.4531 112.409 95.9303 111.56 96.7796C110.711 97.6289 110.233 98.7808 110.233 99.982C110.233 101.183 110.711 102.335 111.56 103.184C112.409 104.034 113.561 104.511 114.762 104.511Z" fill="#E8E8FF"/>
<path opacity="0.5" d="M114.762 125.459H209.862C211.063 125.459 212.215 124.982 213.065 124.133C213.914 123.283 214.391 122.132 214.391 120.931C214.391 119.73 213.914 118.578 213.065 117.729C212.215 116.879 211.063 116.402 209.862 116.402H114.762C113.561 116.402 112.409 116.879 111.56 117.729C110.711 118.578 110.233 119.73 110.233 120.931C110.233 122.132 110.711 123.284 111.56 124.134C112.409 124.983 113.561 125.46 114.762 125.46V125.459Z" fill="#E8E8FF"/>
</svg>
