<svg width="330" height="390" viewBox="0 0 330 390" fill="none" xmlns="http://www.w3.org/2000/svg">
<g clip-path="url(#clip0_164_166)">
<path d="M181.375 81.6108H14.8694C13.3133 81.6089 11.8215 80.9908 10.7212 79.8922C9.62087 78.7935 9.00188 77.3039 9 75.7502V57.8606C9.00188 56.3068 9.62087 54.8173 10.7212 53.7186C11.8215 52.6199 13.3133 52.0019 14.8694 52H181.375C182.931 52.0019 184.422 52.6199 185.523 53.7186C186.623 54.8173 187.242 56.3068 187.244 57.8606V75.7508C187.242 77.3046 186.623 78.7941 185.523 79.8928C184.422 80.9915 182.931 81.6095 181.375 81.6114V81.6108ZM14.8694 52.6131C13.4771 52.6146 12.1423 53.1676 11.1577 54.1506C10.1732 55.1336 9.61944 56.4665 9.6179 57.8567V75.7469C9.61944 77.1372 10.1732 78.47 11.1577 79.4531C12.1423 80.4361 13.4771 80.989 14.8694 80.9906H181.375C182.767 80.989 184.102 80.4361 185.086 79.4531C186.071 78.47 186.625 77.1372 186.626 75.7469V57.8606C186.625 56.4701 186.071 55.137 185.087 54.1537C184.102 53.1703 182.767 52.6172 181.375 52.6157L14.8694 52.6131Z" fill="#CCCCCC"/>
<path d="M37.3684 77.006C35.3479 77.006 33.3727 76.4078 31.6927 75.2869C30.0126 74.166 28.7032 72.5729 27.93 70.709C27.1568 68.8451 26.9545 66.7941 27.3486 64.8153C27.7428 62.8366 28.7158 61.019 30.1446 59.5924C31.5733 58.1658 33.3936 57.1943 35.3754 56.8007C37.3571 56.4071 39.4112 56.6092 41.2779 57.3812C43.1447 58.1533 44.7402 59.4607 45.8627 61.1382C46.9853 62.8157 47.5845 64.7879 47.5845 66.8054C47.5845 69.5108 46.5081 72.1053 44.5922 74.0183C42.6764 75.9313 40.0779 77.006 37.3684 77.006Z" fill="#6C63FF"/>
<path d="M166.292 75.1339H57.2459C56.918 75.1392 56.5923 75.0793 56.2879 74.9577C55.9834 74.836 55.7062 74.6551 55.4725 74.4255C55.2387 74.1958 55.0531 73.922 54.9263 73.62C54.7996 73.318 54.7344 72.9938 54.7344 72.6664C54.7344 72.3389 54.7996 72.0148 54.9263 71.7128C55.0531 71.4107 55.2387 71.1369 55.4725 70.9073C55.7062 70.6776 55.9834 70.4967 56.2879 70.3751C56.5923 70.2534 56.918 70.1935 57.2459 70.1988H166.292C166.62 70.1935 166.946 70.2534 167.25 70.3751C167.555 70.4967 167.832 70.6776 168.066 70.9073C168.3 71.1369 168.485 71.4107 168.612 71.7128C168.739 72.0148 168.804 72.3389 168.804 72.6664C168.804 72.9938 168.739 73.318 168.612 73.62C168.485 73.922 168.3 74.1958 168.066 74.4255C167.832 74.6551 167.555 74.836 167.25 74.9577C166.946 75.0793 166.62 75.1392 166.292 75.1339Z" fill="#6C63FF"/>
<path d="M130.764 64.6466H57.242C56.9141 64.6519 56.5885 64.592 56.284 64.4704C55.9795 64.3487 55.7023 64.1678 55.4686 63.9382C55.2348 63.7085 55.0492 63.4347 54.9225 63.1327C54.7957 62.8307 54.7305 62.5065 54.7305 62.1791C54.7305 61.8516 54.7957 61.5275 54.9225 61.2254C55.0492 60.9234 55.2348 60.6496 55.4686 60.42C55.7023 60.1903 55.9795 60.0094 56.284 59.8878C56.5885 59.7661 56.9141 59.7062 57.242 59.7115H130.764C131.092 59.7062 131.418 59.7661 131.722 59.8878C132.027 60.0094 132.304 60.1903 132.538 60.42C132.771 60.6496 132.957 60.9234 133.084 61.2254C133.21 61.5275 133.276 61.8516 133.276 62.1791C133.276 62.5065 133.21 62.8307 133.084 63.1327C132.957 63.4347 132.771 63.7085 132.538 63.9382C132.304 64.1678 132.027 64.3487 131.722 64.4704C131.418 64.592 131.092 64.6519 130.764 64.6466Z" fill="#6C63FF"/>
<path d="M181.375 127.449H14.8694C13.3133 127.447 11.8215 126.829 10.7212 125.73C9.62087 124.632 9.00188 123.142 9 121.588V103.699C9.00188 102.145 9.62087 100.655 10.7212 99.5567C11.8215 98.4581 13.3133 97.84 14.8694 97.8381H181.375C182.931 97.84 184.422 98.4581 185.523 99.5567C186.623 100.655 187.242 102.145 187.244 103.699V121.589C187.242 123.143 186.623 124.632 185.523 125.731C184.422 126.83 182.931 127.448 181.375 127.45V127.449ZM14.8694 98.4512C13.4771 98.4528 12.1423 99.0057 11.1577 99.9887C10.1732 100.972 9.61944 102.305 9.6179 103.695V121.585C9.61944 122.975 10.1732 124.308 11.1577 125.291C12.1423 126.274 13.4771 126.827 14.8694 126.829H181.375C182.767 126.827 184.102 126.274 185.086 125.291C186.071 124.308 186.625 122.975 186.626 121.585V103.699C186.625 102.308 186.071 100.975 185.087 99.9918C184.102 99.0085 182.767 98.4553 181.375 98.4538L14.8694 98.4512Z" fill="#CCCCCC"/>
<path d="M37.3684 122.844C35.3479 122.844 33.3727 122.246 31.6927 121.125C30.0126 120.004 28.7032 118.411 27.93 116.547C27.1568 114.683 26.9545 112.632 27.3486 110.653C27.7428 108.675 28.7158 106.857 30.1446 105.431C31.5733 104.004 33.3936 103.032 35.3754 102.639C37.3571 102.245 39.4112 102.447 41.2779 103.219C43.1447 103.991 44.7402 105.299 45.8627 106.976C46.9853 108.654 47.5845 110.626 47.5845 112.644C47.5845 115.349 46.5081 117.943 44.5922 119.856C42.6764 121.769 40.0779 122.844 37.3684 122.844Z" fill="#E6E6E6"/>
<path d="M166.292 120.972H57.2459C56.918 120.977 56.5923 120.917 56.2879 120.796C55.9834 120.674 55.7062 120.493 55.4725 120.264C55.2387 120.034 55.0531 119.76 54.9263 119.458C54.7996 119.156 54.7344 118.832 54.7344 118.505C54.7344 118.177 54.7996 117.853 54.9263 117.551C55.0531 117.249 55.2387 116.975 55.4725 116.745C55.7062 116.516 55.9834 116.335 56.2879 116.213C56.5923 116.092 56.918 116.032 57.2459 116.037H166.292C166.62 116.032 166.946 116.092 167.25 116.213C167.555 116.335 167.832 116.516 168.066 116.745C168.3 116.975 168.485 117.249 168.612 117.551C168.739 117.853 168.804 118.177 168.804 118.505C168.804 118.832 168.739 119.156 168.612 119.458C168.485 119.76 168.3 120.034 168.066 120.264C167.832 120.493 167.555 120.674 167.25 120.796C166.946 120.917 166.62 120.977 166.292 120.972Z" fill="#E6E6E6"/>
<path d="M130.764 110.485H57.242C56.9141 110.49 56.5885 110.43 56.284 110.309C55.9795 110.187 55.7023 110.006 55.4686 109.776C55.2348 109.547 55.0492 109.273 54.9225 108.971C54.7957 108.669 54.7305 108.345 54.7305 108.017C54.7305 107.69 54.7957 107.366 54.9225 107.064C55.0492 106.762 55.2348 106.488 55.4686 106.258C55.7023 106.028 55.9795 105.848 56.284 105.726C56.5885 105.604 56.9141 105.544 57.242 105.55H130.764C131.092 105.544 131.418 105.604 131.722 105.726C132.027 105.848 132.304 106.028 132.538 106.258C132.771 106.488 132.957 106.762 133.084 107.064C133.21 107.366 133.276 107.69 133.276 108.017C133.276 108.345 133.21 108.669 133.084 108.971C132.957 109.273 132.771 109.547 132.538 109.776C132.304 110.006 132.027 110.187 131.722 110.309C131.418 110.43 131.092 110.49 130.764 110.485Z" fill="#E6E6E6"/>
<path d="M181.375 172.625H14.8694C13.3133 172.623 11.8215 172.005 10.7212 170.906C9.62087 169.808 9.00188 168.318 9 166.764V148.875C9.00188 147.321 9.62087 145.831 10.7212 144.733C11.8215 143.634 13.3133 143.016 14.8694 143.014H181.375C182.931 143.016 184.422 143.634 185.523 144.733C186.623 145.831 187.242 147.321 187.244 148.875V166.765C187.242 168.319 186.623 169.808 185.523 170.907C184.422 172.006 182.931 172.624 181.375 172.626V172.625ZM14.8694 143.627C13.4771 143.629 12.1423 144.182 11.1577 145.165C10.1732 146.148 9.61944 147.481 9.6179 148.871V166.761C9.61944 168.151 10.1732 169.484 11.1577 170.467C12.1423 171.45 13.4771 172.003 14.8694 172.005H181.375C182.767 172.003 184.102 171.45 185.086 170.467C186.071 169.484 186.625 168.151 186.626 166.761V148.875C186.625 147.484 186.071 146.151 185.087 145.168C184.102 144.185 182.767 143.631 181.375 143.63L14.8694 143.627Z" fill="#CCCCCC"/>
<path d="M37.3684 168.02C35.3479 168.02 33.3727 167.422 31.6927 166.301C30.0126 165.18 28.7032 163.587 27.93 161.723C27.1568 159.859 26.9545 157.808 27.3486 155.829C27.7428 153.851 28.7158 152.033 30.1446 150.607C31.5733 149.18 33.3936 148.208 35.3754 147.815C37.3571 147.421 39.4112 147.623 41.2779 148.395C43.1447 149.167 44.7402 150.475 45.8627 152.152C46.9853 153.83 47.5845 155.802 47.5845 157.82C47.5845 160.525 46.5081 163.119 44.5922 165.032C42.6764 166.945 40.0779 168.02 37.3684 168.02Z" fill="#E6E6E6"/>
<path d="M166.292 166.148H57.2459C56.918 166.153 56.5923 166.093 56.2879 165.972C55.9834 165.85 55.7062 165.669 55.4725 165.44C55.2387 165.21 55.0531 164.936 54.9263 164.634C54.7996 164.332 54.7344 164.008 54.7344 163.681C54.7344 163.353 54.7996 163.029 54.9263 162.727C55.0531 162.425 55.2387 162.151 55.4725 161.921C55.7062 161.692 55.9834 161.511 56.2879 161.389C56.5923 161.268 56.918 161.208 57.2459 161.213H166.292C166.62 161.208 166.946 161.268 167.25 161.389C167.555 161.511 167.832 161.692 168.066 161.921C168.3 162.151 168.485 162.425 168.612 162.727C168.739 163.029 168.804 163.353 168.804 163.681C168.804 164.008 168.739 164.332 168.612 164.634C168.485 164.936 168.3 165.21 168.066 165.44C167.832 165.669 167.555 165.85 167.25 165.972C166.946 166.093 166.62 166.153 166.292 166.148Z" fill="#E6E6E6"/>
<path d="M130.764 155.661H57.242C56.9141 155.666 56.5885 155.606 56.284 155.485C55.9795 155.363 55.7023 155.182 55.4686 154.952C55.2348 154.723 55.0492 154.449 54.9225 154.147C54.7957 153.845 54.7305 153.521 54.7305 153.193C54.7305 152.866 54.7957 152.542 54.9225 152.24C55.0492 151.938 55.2348 151.664 55.4686 151.434C55.7023 151.204 55.9795 151.024 56.284 150.902C56.5885 150.78 56.9141 150.72 57.242 150.726H130.764C131.092 150.72 131.418 150.78 131.722 150.902C132.027 151.024 132.304 151.204 132.538 151.434C132.771 151.664 132.957 151.938 133.084 152.24C133.21 152.542 133.276 152.866 133.276 153.193C133.276 153.521 133.21 153.845 133.084 154.147C132.957 154.449 132.771 154.723 132.538 154.952C132.304 155.182 132.027 155.363 131.722 155.485C131.418 155.606 131.092 155.666 130.764 155.661Z" fill="#E6E6E6"/>
<path d="M181.375 218.464H14.8694C13.3133 218.462 11.8215 217.844 10.7212 216.745C9.62087 215.647 9.00188 214.157 9 212.603V194.714C9.00188 193.16 9.62087 191.67 10.7212 190.572C11.8215 189.473 13.3133 188.855 14.8694 188.853H181.375C182.931 188.855 184.422 189.473 185.523 190.572C186.623 191.67 187.242 193.16 187.244 194.714V212.604C187.242 214.158 186.623 215.647 185.523 216.746C184.422 217.845 182.931 218.463 181.375 218.464V218.464ZM14.8694 189.466C13.4771 189.468 12.1423 190.021 11.1577 191.004C10.1732 191.987 9.61944 193.32 9.6179 194.71V212.6C9.61944 213.99 10.1732 215.323 11.1577 216.306C12.1423 217.289 13.4771 217.842 14.8694 217.844H181.375C182.767 217.842 184.102 217.289 185.086 216.306C186.071 215.323 186.625 213.99 186.626 212.6V194.714C186.625 193.323 186.071 191.99 185.087 191.007C184.102 190.023 182.767 189.47 181.375 189.469L14.8694 189.466Z" fill="#CCCCCC"/>
<path d="M37.3684 213.859C35.3479 213.859 33.3727 213.261 31.6927 212.14C30.0126 211.019 28.7032 209.426 27.93 207.562C27.1568 205.698 26.9545 203.647 27.3486 201.668C27.7428 199.69 28.7158 197.872 30.1446 196.445C31.5733 195.019 33.3936 194.047 35.3754 193.654C37.3571 193.26 39.4112 193.462 41.2779 194.234C43.1447 195.006 44.7402 196.314 45.8627 197.991C46.9853 199.669 47.5845 201.641 47.5845 203.658C47.5845 206.364 46.5081 208.958 44.5922 210.871C42.6764 212.784 40.0779 213.859 37.3684 213.859Z" fill="#E6E6E6"/>
<path d="M166.292 211.987H57.2459C56.918 211.992 56.5923 211.932 56.2879 211.811C55.9834 211.689 55.7062 211.508 55.4725 211.278C55.2387 211.049 55.0531 210.775 54.9263 210.473C54.7996 210.171 54.7344 209.847 54.7344 209.519C54.7344 209.192 54.7996 208.868 54.9263 208.566C55.0531 208.264 55.2387 207.99 55.4725 207.76C55.7062 207.531 55.9834 207.35 56.2879 207.228C56.5923 207.106 56.918 207.047 57.2459 207.052H166.292C166.62 207.047 166.946 207.106 167.25 207.228C167.555 207.35 167.832 207.531 168.066 207.76C168.3 207.99 168.485 208.264 168.612 208.566C168.739 208.868 168.804 209.192 168.804 209.519C168.804 209.847 168.739 210.171 168.612 210.473C168.485 210.775 168.3 211.049 168.066 211.278C167.832 211.508 167.555 211.689 167.25 211.811C166.946 211.932 166.62 211.992 166.292 211.987Z" fill="#E6E6E6"/>
<path d="M130.764 201.5H57.242C56.9141 201.505 56.5885 201.445 56.284 201.323C55.9795 201.202 55.7023 201.021 55.4686 200.791C55.2348 200.562 55.0492 200.288 54.9225 199.986C54.7957 199.684 54.7305 199.36 54.7305 199.032C54.7305 198.705 54.7957 198.38 54.9225 198.078C55.0492 197.776 55.2348 197.503 55.4686 197.273C55.7023 197.043 55.9795 196.862 56.284 196.741C56.5885 196.619 56.9141 196.559 57.242 196.565H130.764C131.092 196.559 131.418 196.619 131.722 196.741C132.027 196.862 132.304 197.043 132.538 197.273C132.771 197.503 132.957 197.776 133.084 198.078C133.21 198.38 133.276 198.705 133.276 199.032C133.276 199.36 133.21 199.684 133.084 199.986C132.957 200.288 132.771 200.562 132.538 200.791C132.304 201.021 132.027 201.202 131.722 201.323C131.418 201.445 131.092 201.505 130.764 201.5Z" fill="#E6E6E6"/>
<path d="M327 80.25C327 72.2065 325.514 64.2419 322.624 56.8107C319.734 49.3794 315.497 42.6273 310.16 36.9397C304.82 31.2521 298.48 26.7405 291.503 23.6624C284.527 20.5843 277.052 19 269.5 19C261.948 19 254.473 20.5843 247.497 23.6624C240.52 26.7405 234.18 31.2521 228.841 36.9397C223.502 42.6273 219.267 49.3794 216.377 56.8107C213.487 64.2419 212 72.2065 212 80.25C212 92.3864 215.36 103.674 221.077 113.194H221.011L269.5 194L317.989 113.194H317.933C323.854 103.364 327 91.9296 327 80.25ZM269.5 106.5C262.966 106.5 256.697 103.734 252.076 98.8116C247.452 93.8887 244.858 87.212 244.858 80.25C244.858 73.288 247.452 66.6113 252.076 61.6884C256.697 56.7656 262.966 54 269.5 54C276.034 54 282.303 56.7656 286.924 61.6884C291.548 66.6113 294.142 73.288 294.142 80.25C294.142 87.212 291.548 93.8887 286.924 98.8116C282.303 103.734 276.034 106.5 269.5 106.5Z" fill="#C2BFFF"/>
<path d="M78.4842 267.215L121.214 310.846L99.2722 320.576L62.4337 281.064C57.0504 280.747 51.4109 278.005 47.1909 273.101C39.807 264.521 39.57 252.604 46.6616 246.485C53.7532 240.366 65.4878 242.361 72.8717 250.942C77.0917 255.846 78.9666 261.836 78.4842 267.215Z" fill="#FFB8B8"/>
<path d="M41.3877 334L0 370H334L303.322 334.281L41.3877 334Z" fill="#C2BFFF"/>
<path d="M311.96 354.006L279.45 366.119L230 364.25C230 364.25 261.019 351.134 269.811 351.009C278.603 350.885 299.388 352.017 311.96 354.006Z" fill="white"/>
<path d="M214.115 170.32C219.536 152.624 209.605 133.877 191.933 128.448C174.26 123.019 155.539 132.964 150.117 150.66C145.72 165.012 151.423 180.053 163.161 188.123L142.731 239.401L243.094 230.884C243.094 230.884 192.252 203.551 191.601 192.631C201.993 189.545 210.697 181.475 214.115 170.32Z" fill="#FFB8B8"/>
<path d="M238.121 218.399L245.894 214.803C245.894 214.803 254.775 215.937 257.424 225.97C260.073 236.002 272.166 289.752 272.166 289.752C272.166 289.752 279.251 296.753 275.19 306.407C275.19 306.407 276.605 317.1 272.166 318.71C267.728 320.32 237.99 343.307 237.99 343.307L238.121 218.399Z" fill="#2F2E41"/>
<path d="M214.709 204.394L192.062 192.558C187.429 215.646 166.077 216.498 161.443 193.41L146.667 204.394L115.48 214.803L120.017 335.885L183.318 335.702L183.323 335.885H241.359L245.895 214.803L214.709 204.394Z" fill="#2F2E41"/>
<path d="M123.253 218.399L115.48 214.803C115.48 214.803 106.6 215.937 103.951 225.97C101.302 236.002 106.219 294.01 106.219 294.01C106.219 294.01 99.1338 301.011 103.194 310.665C103.194 310.665 101.78 321.358 106.219 322.968C110.657 324.578 123.253 325.291 123.253 325.291V218.399Z" fill="#2F2E41"/>
<path d="M109.786 282.768L95.2561 282.37L84.6717 271.961C84.6717 271.961 75.124 287.573 67.6611 288.616C67.6611 288.616 87.5984 327.32 106.219 322.968L112.596 293.276L109.786 282.768Z" fill="#2F2E41"/>
<path d="M243.053 348.852H112.994C109.344 348.852 106.323 346.109 105.967 342.471L97.9145 260.373C97.7201 258.391 98.3746 256.408 99.7107 254.932C101.046 253.457 102.953 252.611 104.942 252.611H251.837C253.838 252.611 255.753 253.465 257.09 254.956C258.427 256.446 259.072 258.443 258.859 260.435L250.075 342.533C249.689 346.135 246.671 348.852 243.053 348.852Z" fill="#6C63FF"/>
<path d="M77.209 288.807H55.9458L48.291 236.854H81.4617L77.209 288.807Z" fill="#6C63FF"/>
<path d="M288.611 338.582H260.449L256.29 340.434L273.679 354.67L306.755 355.616L306.566 351.263L288.611 338.582Z" fill="#2F2E41"/>
<path d="M96.9577 350.695L64.4485 362.808L14.998 360.939C14.998 360.939 46.0174 347.822 54.8092 347.698C63.6009 347.574 84.3858 348.706 96.9577 350.695Z" fill="#F2F2F2"/>
<path d="M90.153 346.436L57.6438 358.549L8.19336 356.68C8.19336 356.68 39.2128 343.564 48.0045 343.44C56.7962 343.315 77.5811 344.447 90.153 346.436Z" fill="white"/>
<path d="M153.943 144.491L151.636 168.064C151.636 168.064 127.422 121.016 157.534 112.316C157.534 112.316 154.602 108.34 158.857 107.017C163.113 105.694 203.46 99.3498 206.676 119.13C206.676 119.13 227.753 132.211 221.374 146.206L213.858 162.661L207.054 163.039C207.054 163.039 206.862 131.714 196.47 132.757C186.077 133.8 153.943 144.491 153.943 144.491Z" fill="#2F2E41"/>
<path d="M211.965 159.444C211.965 159.444 209.124 171.947 207.882 181.273C201.648 188.7 192.3 193.41 181.856 193.41C169.242 193.41 158.237 186.536 152.359 176.325C152.045 171.666 152.623 168.097 152.623 168.097C153.184 178.667 163.161 180.251 163.161 180.251C163.161 180.251 169.064 176.674 178.7 176.333C188.337 175.984 197.038 180.447 197.038 180.447C203.74 179.902 207.057 159.581 207.057 159.581L211.965 159.444Z" fill="#2F2E41"/>
</g>
<defs>
<clipPath id="clip0_164_166">
<rect width="330" height="390" fill="white"/>
</clipPath>
</defs>
</svg>
