<svg width="331" height="358" viewBox="0 0 331 358" fill="none" xmlns="http://www.w3.org/2000/svg">
<path d="M234.517 356.155H96.9299C80.1536 356.155 66.5049 342.537 66.5049 325.799V30.7839C66.5049 14.0455 80.1536 0.427734 96.9299 0.427734H234.517C251.293 0.427734 264.942 14.0455 264.942 30.7839V325.799C264.942 342.537 251.293 356.155 234.517 356.155Z" fill="#3F3D56"/>
<path d="M264.942 108.944C264.233 108.944 263.655 109.52 263.655 110.228V151.323C263.655 152.031 264.233 152.607 264.942 152.607C265.652 152.607 266.23 152.031 266.23 151.323V110.228C266.23 109.52 265.652 108.944 264.942 108.944Z" fill="#3F3D56"/>
<path d="M262.046 30.784V325.793C262.046 340.363 250.681 352.28 236.31 353.205H236.304C236.091 353.218 235.879 353.231 235.66 353.237C235.28 353.256 234.901 353.263 234.515 353.263C234.515 353.263 233.099 353.16 230.512 352.967C227.899 352.775 224.095 352.486 219.352 352.107C217.93 351.998 216.43 351.876 214.847 351.747C211.694 351.491 208.231 351.208 204.518 350.887C203.038 350.765 201.506 350.63 199.942 350.495C191.949 349.808 182.997 349.006 173.556 348.094C171.96 347.946 170.351 347.792 168.73 347.632C168.305 347.587 167.874 347.548 167.442 347.503C160.711 346.842 69.4014 329.235 69.4014 325.793V30.784C69.4014 15.6111 81.7256 3.3147 96.9331 3.3147H113.37C115.995 3.3147 118.106 5.3566 118.332 7.96998C118.351 8.14336 118.37 8.31669 118.402 8.49008C118.879 11.1163 121.292 12.9463 123.969 12.9463H207.479C210.156 12.9463 212.569 11.1163 213.045 8.49008C213.077 8.31669 213.097 8.14336 213.116 7.96998C213.341 5.3566 215.452 3.3147 218.078 3.3147H234.515C249.722 3.3147 262.046 15.6111 262.046 30.784Z" fill="white"/>
<path d="M65.8613 78.1228C65.1515 78.1228 64.5742 78.6988 64.5742 79.407V89.6807C64.5742 90.389 65.1515 90.9649 65.8613 90.9649C66.5712 90.9649 67.1485 90.389 67.1485 89.6807V79.407C67.1485 78.6988 66.5712 78.1228 65.8613 78.1228Z" fill="#3F3D56"/>
<path d="M65.8613 108.944C65.1515 108.944 64.5742 109.52 64.5742 110.228V130.133C64.5742 130.842 65.1515 131.418 65.8613 131.418C66.5712 131.418 67.1485 130.842 67.1485 130.133V110.228C67.1485 109.52 66.5712 108.944 65.8613 108.944Z" fill="#3F3D56"/>
<path d="M65.8613 137.197C65.1515 137.197 64.5742 137.772 64.5742 138.481V158.386C64.5742 159.094 65.1515 159.67 65.8613 159.67C66.5712 159.67 67.1485 159.094 67.1485 158.386V138.481C67.1485 137.772 66.5712 137.197 65.8613 137.197Z" fill="#3F3D56"/>
<path d="M112.922 7.81201H88.3064C88.1728 7.81201 88.0645 7.92007 88.0645 8.05338V10.7812C88.0645 10.9145 88.1728 11.0225 88.3064 11.0225H112.922C113.055 11.0225 113.163 10.9145 113.163 10.7812V8.05338C113.163 7.92007 113.055 7.81201 112.922 7.81201Z" fill="#E6E6E6"/>
<path d="M222.145 11.0228C223.566 11.0228 224.719 9.87292 224.719 8.45441C224.719 7.03591 223.566 5.88599 222.145 5.88599C220.723 5.88599 219.57 7.03591 219.57 8.45441C219.57 9.87292 220.723 11.0228 222.145 11.0228Z" fill="#E6E6E6"/>
<path d="M229.224 11.0228C230.645 11.0228 231.798 9.87292 231.798 8.45441C231.798 7.03591 230.645 5.88599 229.224 5.88599C227.802 5.88599 226.649 7.03591 226.649 8.45441C226.649 9.87292 227.802 11.0228 229.224 11.0228Z" fill="#E6E6E6"/>
<path d="M236.304 11.0228C237.725 11.0228 238.878 9.87292 238.878 8.45441C238.878 7.03591 237.725 5.88599 236.304 5.88599C234.882 5.88599 233.729 7.03591 233.729 8.45441C233.729 9.87292 234.882 11.0228 236.304 11.0228Z" fill="#E6E6E6"/>
<path d="M219.992 233.464H110.811C109.091 233.464 107.691 232.068 107.691 230.352C107.691 228.635 109.091 227.239 110.811 227.239H219.992C221.712 227.239 223.111 228.635 223.111 230.352C223.111 232.068 221.712 233.464 219.992 233.464Z" fill="#E6E6E6"/>
<path d="M151.184 196.893H110.631C108.911 196.893 107.512 195.497 107.512 193.781C107.512 192.065 108.911 190.669 110.631 190.669H151.184C152.904 190.669 154.304 192.065 154.304 193.781C154.304 195.497 152.904 196.893 151.184 196.893Z" fill="#E6E6E6"/>
<g opacity="0.41">
<mask id="path-13-outside-1_164_240" maskUnits="userSpaceOnUse" x="7.05273" y="30.7153" width="320" height="296" fill="black">
<rect fill="white" x="7.05273" y="30.7153" width="320" height="296"/>
<path d="M21.103 118.08C21.103 118.08 22.8356 118.453 23.824 118.08C24.8143 117.707 25.4316 118.453 25.4316 119.821C25.4316 121.19 25.8027 121.313 27.5353 121.437C29.268 121.561 30.3814 121.686 31.2467 123.055C32.1121 124.423 33.4736 125.915 33.8447 123.304C34.2159 120.693 32.7313 118.828 33.7217 118.082C34.712 117.336 36.0715 116.714 37.185 116.714C38.2984 116.714 38.2985 115.719 38.2985 114.849C38.2985 113.98 39.4118 112.611 40.5252 113.73C41.6386 114.849 42.0098 114.476 42.504 113.234C42.9981 111.989 42.8751 110.996 42.627 109.504C42.3789 108.012 39.6579 107.39 41.3906 104.903C43.1232 102.416 42.7521 100.924 43.4944 101.546C44.2366 102.168 45.7212 102.789 46.0924 102.789C46.4635 102.789 47.0827 101.67 47.3288 101.173C47.5769 100.677 48.071 99.3083 50.1748 100.178C52.2786 101.048 53.7632 99.432 54.5054 100.178C55.2477 100.924 54.9997 101.919 56.2382 100.675C57.4746 99.432 56.7323 97.4415 56.7323 97.4415C56.7323 97.4415 55.7419 95.7004 55.1247 95.2037C54.5074 94.7071 55.2478 94.7071 53.6402 93.8355C52.0325 92.9639 52.0326 92.593 51.7845 91.1011C51.5364 89.6092 51.7845 88.3667 51.7845 88.3667L50.548 84.2641C50.548 84.2641 49.4345 82.6465 50.9191 80.2851C52.4036 77.9236 51.9095 75.4365 51.9095 75.4365L53.5171 73.4481C53.5171 73.4481 53.1459 72.7021 53.269 71.3339C53.392 69.9657 54.3825 68.2265 54.3825 68.2265C54.3825 68.2265 53.6402 65.4921 55.7439 65.4921C57.8477 65.4921 62.1783 67.7299 63.7859 68.2265C65.3936 68.7232 66.8801 68.7231 69.353 69.3454C71.8279 69.9677 74.549 68.3502 73.8067 70.4643C73.0645 72.5785 73.0644 71.2102 73.0644 72.5785C73.0644 72.5785 71.703 75.1892 72.3222 75.6858C72.9414 76.1825 72.3241 77.427 73.9317 76.3081C75.5394 75.1892 75.4162 74.3196 77.1489 74.8163C78.8815 75.3129 82.3449 75.5622 84.2006 75.5622C86.0563 75.5622 87.1696 75.5622 88.6542 76.3081C90.1388 77.0541 90.8811 77.5507 92.2426 77.3034C93.6041 77.0541 93.479 77.9256 94.8405 76.1845C96.202 74.4433 97.8097 73.3244 97.8097 73.3244L101.027 71.9801C101.027 71.9801 101.027 71.3339 103.379 70.8373C105.729 70.3407 110.802 70.588 112.286 69.0961C113.771 67.6042 118.844 66.8583 119.338 65.4901C119.832 64.1219 126.266 60.1449 129.235 60.8909C132.205 61.6368 138.514 62.2591 140.618 63.7509C142.721 65.2428 146.927 68.7232 148.908 70.59C150.887 72.4548 156.208 74.196 159.919 73.9467C163.63 73.6974 171.672 76.0608 175.509 75.4385C179.343 74.8163 190.727 73.4959 194.685 71.9821C198.644 70.4663 206.933 68.4778 211.511 66.1144C216.09 63.7509 225.368 59.401 226.73 57.4105C228.091 55.422 231.184 54.4268 234.153 54.0538C237.122 53.6809 238.855 51.4431 243.431 50.0748C248.01 48.7066 254.071 47.5877 256.794 48.7066C259.515 49.8255 265.95 52.189 267.682 52.189C269.415 52.189 280.549 51.6924 281.911 51.1937C283.272 50.6971 296.387 47.837 298.614 47.0911C300.841 46.3452 308.017 43.3615 309.502 41.4966C310.987 39.6318 312.842 35.1562 313.585 37.2703C314.327 39.3845 315.192 40.7507 316.182 40.627C317.173 40.5034 318.532 41.2493 318.409 43.6108C318.286 45.9722 318.161 46.5945 318.657 48.0864C319.152 49.5782 322.988 50.5735 320.761 52.6876C318.534 54.8017 316.925 56.9139 315.194 59.028C313.461 61.1422 296.389 78.5479 295.151 79.1702C293.914 79.7925 275.849 82.8998 274.488 85.014C273.126 87.1281 269.54 95.457 269.54 96.7016C269.54 97.9461 267.313 110.378 268.55 111.62C269.786 112.863 273.623 125.296 274.365 128.653C275.107 132.01 274.365 137.357 272.013 141.21C269.663 145.063 269.044 151.033 268.302 154.14C267.559 157.248 266.94 171.049 267.065 174.033C267.188 177.017 268.798 186.714 266.2 188.705C263.602 190.693 261.25 203.252 254.694 205.987C248.137 208.721 239.23 210.462 236.507 212.08C233.786 213.695 207.185 229.611 207.185 229.611L63.006 321.285L43.0458 318.467C43.0458 318.467 35.6231 310.012 33.8071 310.012C31.9931 310.012 31.6616 310.178 29.5181 310.012C27.3726 309.847 26.8784 309.681 26.5489 308.189C26.2195 306.697 25.888 305.206 24.8997 303.383C23.9093 301.56 26.5489 302.056 22.5895 300.896C18.63 299.735 17.3101 299.073 16.6512 298.739C15.9923 298.408 15.002 300.231 15.3314 297.248C15.6609 294.264 16.816 294.098 17.6416 292.606C18.4673 291.115 20.7755 284.982 19.7871 283.655C18.7967 282.329 18.1377 279.345 16.9827 277.522C15.8276 275.699 15.6629 276.527 16.159 274.373C16.6532 272.217 17.4789 272.051 16.4885 269.897C15.4982 267.741 15.6986 268.737 15.268 267.079C14.8393 265.422 14.873 265.587 15.268 264.427C15.6629 263.266 20.7774 261.277 21.7678 259.121C22.7582 256.965 22.5935 255.972 22.9229 254.811C23.2524 253.65 24.4075 254.48 25.2331 253.816C26.0588 253.152 28.5317 252.655 27.2119 251.494C25.8921 250.334 26.7176 250.003 24.078 249.506C21.4383 249.009 22.0993 247.019 22.7582 245.693C23.4171 244.366 23.7485 244.366 25.5625 242.378C27.3765 240.389 27.2119 240.555 29.1926 239.394C31.1714 238.233 29.8515 236.741 32.4912 237.405C35.1308 238.07 36.4506 238.566 37.2742 237.737C38.0979 236.907 36.7801 235.249 38.4294 235.748C40.0787 236.245 39.4198 237.571 41.2338 237.24C43.0478 236.909 43.0479 238.401 43.0479 236.909C43.0479 235.417 42.3869 235.086 40.2434 234.256C38.098 233.427 36.6133 233.427 39.0883 231.438C41.5632 229.45 40.2434 231.935 41.5632 229.45C42.883 226.962 43.2126 223.979 44.5324 225.636C45.8522 227.294 47.172 227.792 47.6662 226.631C48.1604 225.471 47.6662 223.151 47.6662 223.151L49.1507 220.995L53.2749 216.685C53.2749 216.685 51.9551 213.037 51.7904 212.044C51.6257 211.049 56.5735 214.862 51.6257 209.06C46.6758 203.258 46.6758 203.258 46.6758 201.932C46.6758 200.606 46.6758 200.606 46.6758 200.606C46.6758 200.606 48.3252 200.771 46.5111 199.943C44.6971 199.116 41.3965 199.943 40.2434 199.612C39.0883 199.281 40.4081 196.714 41.5632 196.008C42.7183 195.302 44.5324 194.806 44.5324 193.645C44.5324 192.484 46.8426 191.822 44.5324 191.656C42.2222 191.491 41.3985 191.325 39.7492 191.491C38.0999 191.656 35.2956 192.32 35.2956 192.32C35.2956 192.32 31.8303 192.985 29.5221 192.486C27.2119 191.989 24.737 193.812 24.5722 191.989C24.4075 190.166 23.5819 191.16 22.7582 187.183C21.9326 183.204 19.7891 183.702 20.2833 180.22C20.7775 176.74 17.6436 167.621 19.6223 164.803C21.6011 161.985 22.7561 156.679 22.7561 156.679C22.7561 156.679 21.9305 152.535 21.2716 150.546C20.6127 148.558 21.2716 148.723 19.2928 146.402C17.3141 144.08 17.0582 142.754 14.9583 141.43C12.8585 140.103 11.0445 137.782 12.6938 137.616C14.3431 137.451 15.0039 137.12 15.1686 134.798C15.3334 132.476 13.6842 133.472 15.004 131.649C16.3238 129.826 17.8084 129.162 18.1378 128.499C18.4673 127.835 16.159 128.168 17.1474 124.355C18.1378 120.541 19.1262 119.714 19.6223 119.548C20.1126 119.367 21.103 118.08 21.103 118.08Z"/>
</mask>
<path d="M21.103 118.08C21.103 118.08 22.8356 118.453 23.824 118.08C24.8143 117.707 25.4316 118.453 25.4316 119.821C25.4316 121.19 25.8027 121.313 27.5353 121.437C29.268 121.561 30.3814 121.686 31.2467 123.055C32.1121 124.423 33.4736 125.915 33.8447 123.304C34.2159 120.693 32.7313 118.828 33.7217 118.082C34.712 117.336 36.0715 116.714 37.185 116.714C38.2984 116.714 38.2985 115.719 38.2985 114.849C38.2985 113.98 39.4118 112.611 40.5252 113.73C41.6386 114.849 42.0098 114.476 42.504 113.234C42.9981 111.989 42.8751 110.996 42.627 109.504C42.3789 108.012 39.6579 107.39 41.3906 104.903C43.1232 102.416 42.7521 100.924 43.4944 101.546C44.2366 102.168 45.7212 102.789 46.0924 102.789C46.4635 102.789 47.0827 101.67 47.3288 101.173C47.5769 100.677 48.071 99.3083 50.1748 100.178C52.2786 101.048 53.7632 99.432 54.5054 100.178C55.2477 100.924 54.9997 101.919 56.2382 100.675C57.4746 99.432 56.7323 97.4415 56.7323 97.4415C56.7323 97.4415 55.7419 95.7004 55.1247 95.2037C54.5074 94.7071 55.2478 94.7071 53.6402 93.8355C52.0325 92.9639 52.0326 92.593 51.7845 91.1011C51.5364 89.6092 51.7845 88.3667 51.7845 88.3667L50.548 84.2641C50.548 84.2641 49.4345 82.6465 50.9191 80.2851C52.4036 77.9236 51.9095 75.4365 51.9095 75.4365L53.5171 73.4481C53.5171 73.4481 53.1459 72.7021 53.269 71.3339C53.392 69.9657 54.3825 68.2265 54.3825 68.2265C54.3825 68.2265 53.6402 65.4921 55.7439 65.4921C57.8477 65.4921 62.1783 67.7299 63.7859 68.2265C65.3936 68.7232 66.8801 68.7231 69.353 69.3454C71.8279 69.9677 74.549 68.3502 73.8067 70.4643C73.0645 72.5785 73.0644 71.2102 73.0644 72.5785C73.0644 72.5785 71.703 75.1892 72.3222 75.6858C72.9414 76.1825 72.3241 77.427 73.9317 76.3081C75.5394 75.1892 75.4162 74.3196 77.1489 74.8163C78.8815 75.3129 82.3449 75.5622 84.2006 75.5622C86.0563 75.5622 87.1696 75.5622 88.6542 76.3081C90.1388 77.0541 90.8811 77.5507 92.2426 77.3034C93.6041 77.0541 93.479 77.9256 94.8405 76.1845C96.202 74.4433 97.8097 73.3244 97.8097 73.3244L101.027 71.9801C101.027 71.9801 101.027 71.3339 103.379 70.8373C105.729 70.3407 110.802 70.588 112.286 69.0961C113.771 67.6042 118.844 66.8583 119.338 65.4901C119.832 64.1219 126.266 60.1449 129.235 60.8909C132.205 61.6368 138.514 62.2591 140.618 63.7509C142.721 65.2428 146.927 68.7232 148.908 70.59C150.887 72.4548 156.208 74.196 159.919 73.9467C163.63 73.6974 171.672 76.0608 175.509 75.4385C179.343 74.8163 190.727 73.4959 194.685 71.9821C198.644 70.4663 206.933 68.4778 211.511 66.1144C216.09 63.7509 225.368 59.401 226.73 57.4105C228.091 55.422 231.184 54.4268 234.153 54.0538C237.122 53.6809 238.855 51.4431 243.431 50.0748C248.01 48.7066 254.071 47.5877 256.794 48.7066C259.515 49.8255 265.95 52.189 267.682 52.189C269.415 52.189 280.549 51.6924 281.911 51.1937C283.272 50.6971 296.387 47.837 298.614 47.0911C300.841 46.3452 308.017 43.3615 309.502 41.4966C310.987 39.6318 312.842 35.1562 313.585 37.2703C314.327 39.3845 315.192 40.7507 316.182 40.627C317.173 40.5034 318.532 41.2493 318.409 43.6108C318.286 45.9722 318.161 46.5945 318.657 48.0864C319.152 49.5782 322.988 50.5735 320.761 52.6876C318.534 54.8017 316.925 56.9139 315.194 59.028C313.461 61.1422 296.389 78.5479 295.151 79.1702C293.914 79.7925 275.849 82.8998 274.488 85.014C273.126 87.1281 269.54 95.457 269.54 96.7016C269.54 97.9461 267.313 110.378 268.55 111.62C269.786 112.863 273.623 125.296 274.365 128.653C275.107 132.01 274.365 137.357 272.013 141.21C269.663 145.063 269.044 151.033 268.302 154.14C267.559 157.248 266.94 171.049 267.065 174.033C267.188 177.017 268.798 186.714 266.2 188.705C263.602 190.693 261.25 203.252 254.694 205.987C248.137 208.721 239.23 210.462 236.507 212.08C233.786 213.695 207.185 229.611 207.185 229.611L63.006 321.285L43.0458 318.467C43.0458 318.467 35.6231 310.012 33.8071 310.012C31.9931 310.012 31.6616 310.178 29.5181 310.012C27.3726 309.847 26.8784 309.681 26.5489 308.189C26.2195 306.697 25.888 305.206 24.8997 303.383C23.9093 301.56 26.5489 302.056 22.5895 300.896C18.63 299.735 17.3101 299.073 16.6512 298.739C15.9923 298.408 15.002 300.231 15.3314 297.248C15.6609 294.264 16.816 294.098 17.6416 292.606C18.4673 291.115 20.7755 284.982 19.7871 283.655C18.7967 282.329 18.1377 279.345 16.9827 277.522C15.8276 275.699 15.6629 276.527 16.159 274.373C16.6532 272.217 17.4789 272.051 16.4885 269.897C15.4982 267.741 15.6986 268.737 15.268 267.079C14.8393 265.422 14.873 265.587 15.268 264.427C15.6629 263.266 20.7774 261.277 21.7678 259.121C22.7582 256.965 22.5935 255.972 22.9229 254.811C23.2524 253.65 24.4075 254.48 25.2331 253.816C26.0588 253.152 28.5317 252.655 27.2119 251.494C25.8921 250.334 26.7176 250.003 24.078 249.506C21.4383 249.009 22.0993 247.019 22.7582 245.693C23.4171 244.366 23.7485 244.366 25.5625 242.378C27.3765 240.389 27.2119 240.555 29.1926 239.394C31.1714 238.233 29.8515 236.741 32.4912 237.405C35.1308 238.07 36.4506 238.566 37.2742 237.737C38.0979 236.907 36.7801 235.249 38.4294 235.748C40.0787 236.245 39.4198 237.571 41.2338 237.24C43.0478 236.909 43.0479 238.401 43.0479 236.909C43.0479 235.417 42.3869 235.086 40.2434 234.256C38.098 233.427 36.6133 233.427 39.0883 231.438C41.5632 229.45 40.2434 231.935 41.5632 229.45C42.883 226.962 43.2126 223.979 44.5324 225.636C45.8522 227.294 47.172 227.792 47.6662 226.631C48.1604 225.471 47.6662 223.151 47.6662 223.151L49.1507 220.995L53.2749 216.685C53.2749 216.685 51.9551 213.037 51.7904 212.044C51.6257 211.049 56.5735 214.862 51.6257 209.06C46.6758 203.258 46.6758 203.258 46.6758 201.932C46.6758 200.606 46.6758 200.606 46.6758 200.606C46.6758 200.606 48.3252 200.771 46.5111 199.943C44.6971 199.116 41.3965 199.943 40.2434 199.612C39.0883 199.281 40.4081 196.714 41.5632 196.008C42.7183 195.302 44.5324 194.806 44.5324 193.645C44.5324 192.484 46.8426 191.822 44.5324 191.656C42.2222 191.491 41.3985 191.325 39.7492 191.491C38.0999 191.656 35.2956 192.32 35.2956 192.32C35.2956 192.32 31.8303 192.985 29.5221 192.486C27.2119 191.989 24.737 193.812 24.5722 191.989C24.4075 190.166 23.5819 191.16 22.7582 187.183C21.9326 183.204 19.7891 183.702 20.2833 180.22C20.7775 176.74 17.6436 167.621 19.6223 164.803C21.6011 161.985 22.7561 156.679 22.7561 156.679C22.7561 156.679 21.9305 152.535 21.2716 150.546C20.6127 148.558 21.2716 148.723 19.2928 146.402C17.3141 144.08 17.0582 142.754 14.9583 141.43C12.8585 140.103 11.0445 137.782 12.6938 137.616C14.3431 137.451 15.0039 137.12 15.1686 134.798C15.3334 132.476 13.6842 133.472 15.004 131.649C16.3238 129.826 17.8084 129.162 18.1378 128.499C18.4673 127.835 16.159 128.168 17.1474 124.355C18.1378 120.541 19.1262 119.714 19.6223 119.548C20.1126 119.367 21.103 118.08 21.103 118.08Z" fill="#6C63FF"/>
<path d="M21.103 118.08C21.103 118.08 22.8356 118.453 23.824 118.08C24.8143 117.707 25.4316 118.453 25.4316 119.821C25.4316 121.19 25.8027 121.313 27.5353 121.437C29.268 121.561 30.3814 121.686 31.2467 123.055C32.1121 124.423 33.4736 125.915 33.8447 123.304C34.2159 120.693 32.7313 118.828 33.7217 118.082C34.712 117.336 36.0715 116.714 37.185 116.714C38.2984 116.714 38.2985 115.719 38.2985 114.849C38.2985 113.98 39.4118 112.611 40.5252 113.73C41.6386 114.849 42.0098 114.476 42.504 113.234C42.9981 111.989 42.8751 110.996 42.627 109.504C42.3789 108.012 39.6579 107.39 41.3906 104.903C43.1232 102.416 42.7521 100.924 43.4944 101.546C44.2366 102.168 45.7212 102.789 46.0924 102.789C46.4635 102.789 47.0827 101.67 47.3288 101.173C47.5769 100.677 48.071 99.3083 50.1748 100.178C52.2786 101.048 53.7632 99.432 54.5054 100.178C55.2477 100.924 54.9997 101.919 56.2382 100.675C57.4746 99.432 56.7323 97.4415 56.7323 97.4415C56.7323 97.4415 55.7419 95.7004 55.1247 95.2037C54.5074 94.7071 55.2478 94.7071 53.6402 93.8355C52.0325 92.9639 52.0326 92.593 51.7845 91.1011C51.5364 89.6092 51.7845 88.3667 51.7845 88.3667L50.548 84.2641C50.548 84.2641 49.4345 82.6465 50.9191 80.2851C52.4036 77.9236 51.9095 75.4365 51.9095 75.4365L53.5171 73.4481C53.5171 73.4481 53.1459 72.7021 53.269 71.3339C53.392 69.9657 54.3825 68.2265 54.3825 68.2265C54.3825 68.2265 53.6402 65.4921 55.7439 65.4921C57.8477 65.4921 62.1783 67.7299 63.7859 68.2265C65.3936 68.7232 66.8801 68.7231 69.353 69.3454C71.8279 69.9677 74.549 68.3502 73.8067 70.4643C73.0645 72.5785 73.0644 71.2102 73.0644 72.5785C73.0644 72.5785 71.703 75.1892 72.3222 75.6858C72.9414 76.1825 72.3241 77.427 73.9317 76.3081C75.5394 75.1892 75.4162 74.3196 77.1489 74.8163C78.8815 75.3129 82.3449 75.5622 84.2006 75.5622C86.0563 75.5622 87.1696 75.5622 88.6542 76.3081C90.1388 77.0541 90.8811 77.5507 92.2426 77.3034C93.6041 77.0541 93.479 77.9256 94.8405 76.1845C96.202 74.4433 97.8097 73.3244 97.8097 73.3244L101.027 71.9801C101.027 71.9801 101.027 71.3339 103.379 70.8373C105.729 70.3407 110.802 70.588 112.286 69.0961C113.771 67.6042 118.844 66.8583 119.338 65.4901C119.832 64.1219 126.266 60.1449 129.235 60.8909C132.205 61.6368 138.514 62.2591 140.618 63.7509C142.721 65.2428 146.927 68.7232 148.908 70.59C150.887 72.4548 156.208 74.196 159.919 73.9467C163.63 73.6974 171.672 76.0608 175.509 75.4385C179.343 74.8163 190.727 73.4959 194.685 71.9821C198.644 70.4663 206.933 68.4778 211.511 66.1144C216.09 63.7509 225.368 59.401 226.73 57.4105C228.091 55.422 231.184 54.4268 234.153 54.0538C237.122 53.6809 238.855 51.4431 243.431 50.0748C248.01 48.7066 254.071 47.5877 256.794 48.7066C259.515 49.8255 265.95 52.189 267.682 52.189C269.415 52.189 280.549 51.6924 281.911 51.1937C283.272 50.6971 296.387 47.837 298.614 47.0911C300.841 46.3452 308.017 43.3615 309.502 41.4966C310.987 39.6318 312.842 35.1562 313.585 37.2703C314.327 39.3845 315.192 40.7507 316.182 40.627C317.173 40.5034 318.532 41.2493 318.409 43.6108C318.286 45.9722 318.161 46.5945 318.657 48.0864C319.152 49.5782 322.988 50.5735 320.761 52.6876C318.534 54.8017 316.925 56.9139 315.194 59.028C313.461 61.1422 296.389 78.5479 295.151 79.1702C293.914 79.7925 275.849 82.8998 274.488 85.014C273.126 87.1281 269.54 95.457 269.54 96.7016C269.54 97.9461 267.313 110.378 268.55 111.62C269.786 112.863 273.623 125.296 274.365 128.653C275.107 132.01 274.365 137.357 272.013 141.21C269.663 145.063 269.044 151.033 268.302 154.14C267.559 157.248 266.94 171.049 267.065 174.033C267.188 177.017 268.798 186.714 266.2 188.705C263.602 190.693 261.25 203.252 254.694 205.987C248.137 208.721 239.23 210.462 236.507 212.08C233.786 213.695 207.185 229.611 207.185 229.611L63.006 321.285L43.0458 318.467C43.0458 318.467 35.6231 310.012 33.8071 310.012C31.9931 310.012 31.6616 310.178 29.5181 310.012C27.3726 309.847 26.8784 309.681 26.5489 308.189C26.2195 306.697 25.888 305.206 24.8997 303.383C23.9093 301.56 26.5489 302.056 22.5895 300.896C18.63 299.735 17.3101 299.073 16.6512 298.739C15.9923 298.408 15.002 300.231 15.3314 297.248C15.6609 294.264 16.816 294.098 17.6416 292.606C18.4673 291.115 20.7755 284.982 19.7871 283.655C18.7967 282.329 18.1377 279.345 16.9827 277.522C15.8276 275.699 15.6629 276.527 16.159 274.373C16.6532 272.217 17.4789 272.051 16.4885 269.897C15.4982 267.741 15.6986 268.737 15.268 267.079C14.8393 265.422 14.873 265.587 15.268 264.427C15.6629 263.266 20.7774 261.277 21.7678 259.121C22.7582 256.965 22.5935 255.972 22.9229 254.811C23.2524 253.65 24.4075 254.48 25.2331 253.816C26.0588 253.152 28.5317 252.655 27.2119 251.494C25.8921 250.334 26.7176 250.003 24.078 249.506C21.4383 249.009 22.0993 247.019 22.7582 245.693C23.4171 244.366 23.7485 244.366 25.5625 242.378C27.3765 240.389 27.2119 240.555 29.1926 239.394C31.1714 238.233 29.8515 236.741 32.4912 237.405C35.1308 238.07 36.4506 238.566 37.2742 237.737C38.0979 236.907 36.7801 235.249 38.4294 235.748C40.0787 236.245 39.4198 237.571 41.2338 237.24C43.0478 236.909 43.0479 238.401 43.0479 236.909C43.0479 235.417 42.3869 235.086 40.2434 234.256C38.098 233.427 36.6133 233.427 39.0883 231.438C41.5632 229.45 40.2434 231.935 41.5632 229.45C42.883 226.962 43.2126 223.979 44.5324 225.636C45.8522 227.294 47.172 227.792 47.6662 226.631C48.1604 225.471 47.6662 223.151 47.6662 223.151L49.1507 220.995L53.2749 216.685C53.2749 216.685 51.9551 213.037 51.7904 212.044C51.6257 211.049 56.5735 214.862 51.6257 209.06C46.6758 203.258 46.6758 203.258 46.6758 201.932C46.6758 200.606 46.6758 200.606 46.6758 200.606C46.6758 200.606 48.3252 200.771 46.5111 199.943C44.6971 199.116 41.3965 199.943 40.2434 199.612C39.0883 199.281 40.4081 196.714 41.5632 196.008C42.7183 195.302 44.5324 194.806 44.5324 193.645C44.5324 192.484 46.8426 191.822 44.5324 191.656C42.2222 191.491 41.3985 191.325 39.7492 191.491C38.0999 191.656 35.2956 192.32 35.2956 192.32C35.2956 192.32 31.8303 192.985 29.5221 192.486C27.2119 191.989 24.737 193.812 24.5722 191.989C24.4075 190.166 23.5819 191.16 22.7582 187.183C21.9326 183.204 19.7891 183.702 20.2833 180.22C20.7775 176.74 17.6436 167.621 19.6223 164.803C21.6011 161.985 22.7561 156.679 22.7561 156.679C22.7561 156.679 21.9305 152.535 21.2716 150.546C20.6127 148.558 21.2716 148.723 19.2928 146.402C17.3141 144.08 17.0582 142.754 14.9583 141.43C12.8585 140.103 11.0445 137.782 12.6938 137.616C14.3431 137.451 15.0039 137.12 15.1686 134.798C15.3334 132.476 13.6842 133.472 15.004 131.649C16.3238 129.826 17.8084 129.162 18.1378 128.499C18.4673 127.835 16.159 128.168 17.1474 124.355C18.1378 120.541 19.1262 119.714 19.6223 119.548C20.1126 119.367 21.103 118.08 21.103 118.08Z" stroke="#6C63FF" stroke-width="10" mask="url(#path-13-outside-1_164_240)"/>
</g>
<path d="M166.615 141.453C191.596 141.453 211.847 121.248 211.847 96.3232C211.847 71.3988 191.596 51.1936 166.615 51.1936C141.634 51.1936 121.383 71.3988 121.383 96.3232C121.383 121.248 141.634 141.453 166.615 141.453Z" fill="#6C63FF"/>
<path d="M173.803 81.5878C169.986 81.7442 165.671 82.0057 162.849 84.9282C160.398 87.4671 159.861 91.2349 162.346 93.9456C164.839 96.6634 168.714 97.0311 171.586 99.1513C174.96 101.641 174.466 106.566 171.201 108.925C167.352 111.708 162.382 110.411 158.863 107.763C157.961 107.085 157.085 108.604 157.977 109.275C161.13 111.647 165.244 112.967 169.143 111.832C172.661 110.808 175.388 107.946 175.666 104.223C175.798 102.446 175.292 100.642 174.184 99.2393C173.015 97.7584 171.331 96.8472 169.629 96.1058C166.699 94.8293 161.654 93.1777 162.506 89.022C163.538 83.9848 169.683 83.5074 173.803 83.3385C174.929 83.2924 174.934 81.5415 173.803 81.5878Z" fill="white"/>
<path d="M166.722 79.2052L166.554 117.638C166.549 118.765 168.303 118.766 168.308 117.638L168.477 79.2052C168.482 78.0785 166.727 78.077 166.722 79.2052Z" fill="white"/>
<g clip-path="url(#clip0_164_240)">
<path d="M331 357.055C331 357.123 330.987 357.19 330.961 357.253C330.935 357.316 330.897 357.373 330.849 357.421C330.801 357.469 330.743 357.507 330.68 357.533C330.617 357.559 330.55 357.572 330.482 357.572H1.112C0.974555 357.572 0.84274 357.518 0.745549 357.421C0.648358 357.324 0.59375 357.192 0.59375 357.055C0.59375 356.918 0.648358 356.787 0.745549 356.69C0.84274 356.593 0.974555 356.538 1.112 356.538H330.482C330.55 356.538 330.617 356.551 330.68 356.577C330.743 356.603 330.801 356.641 330.849 356.689C330.897 356.737 330.935 356.794 330.961 356.857C330.987 356.92 331 356.987 331 357.055Z" fill="#CCCCCC"/>
<path d="M161.877 191.848C166.447 191.848 170.152 188.151 170.152 183.591C170.152 179.032 166.447 175.335 161.877 175.335C157.307 175.335 153.603 179.032 153.603 183.591C153.603 188.151 157.307 191.848 161.877 191.848Z" fill="#6C63FF"/>
<path d="M166.125 180.15C166.001 180.032 165.835 179.966 165.663 179.966C165.491 179.966 165.326 180.032 165.202 180.15C163.446 181.548 161.869 183.155 160.506 184.936C160.171 184.29 159.837 183.644 159.502 182.998C159.116 182.253 157.988 182.911 158.374 183.656C158.864 184.601 159.353 185.546 159.842 186.49C159.901 186.587 159.984 186.666 160.083 186.722C160.182 186.777 160.293 186.806 160.406 186.806C160.52 186.806 160.631 186.777 160.73 186.722C160.828 186.666 160.911 186.587 160.97 186.49C162.423 184.45 164.158 182.625 166.125 181.072C166.247 180.949 166.315 180.784 166.315 180.611C166.315 180.439 166.247 180.273 166.125 180.15Z" fill="white"/>
<path d="M124.853 207.003L112.375 187.451L126.824 179.73L130.617 194.647L157.337 209.054C158.392 208.675 159.535 208.611 160.626 208.869C161.717 209.127 162.709 209.696 163.481 210.507C164.254 211.318 164.773 212.335 164.976 213.435C165.179 214.536 165.056 215.671 164.624 216.703C164.191 217.735 163.467 218.619 162.539 219.247C161.612 219.876 160.521 220.221 159.4 220.242C158.279 220.262 157.176 219.957 156.226 219.363C155.276 218.769 154.52 217.912 154.049 216.897L124.853 207.003Z" fill="#A0616A"/>
<path d="M103.258 164C99.3374 169.743 113.27 190.621 113.27 190.621C113.949 189.161 120.437 205.554 121.524 204.586C124.613 201.833 129.448 194.167 132.135 193.825C133.672 193.63 128.571 182.754 128.571 182.754C128.571 182.754 126.239 176.332 123.076 168.128C122.224 165.792 120.794 163.709 118.919 162.073C117.044 160.437 114.784 159.301 112.351 158.77C112.351 158.77 107.179 158.256 103.258 164Z" fill="#3F3D56"/>
<path d="M103.45 351.126L109.375 351.125L112.195 328.319L103.448 328.319L103.45 351.126Z" fill="#A0616A"/>
<path d="M101.938 349.195L103.605 349.195L110.118 346.553L113.608 349.195H113.608C115.581 349.195 117.473 349.977 118.867 351.368C120.262 352.76 121.046 354.647 121.046 356.615V356.857L101.938 356.857L101.938 349.195Z" fill="#2F2E41"/>
<path d="M130.98 351.126L136.906 351.125L139.726 328.319L130.979 328.319L130.98 351.126Z" fill="#A0616A"/>
<path d="M129.469 349.195L131.137 349.195L137.649 346.553L141.139 349.195H141.14C143.112 349.195 145.004 349.977 146.399 351.368C147.793 352.76 148.577 354.647 148.577 356.615V356.857L129.469 356.857L129.469 349.195Z" fill="#2F2E41"/>
<path d="M133.545 226.441L94.9999 227.402C87.6793 231.369 87.5682 239.956 89.9668 250.151C89.9668 250.151 89.157 256.211 90.7765 257.826C92.396 259.442 93.2058 259.442 92.396 262.27C91.5863 265.098 95.8645 269.716 95.3449 270.235C94.8253 270.753 93.6106 273.581 93.6106 273.581L97.6594 296.607C97.6594 296.607 100.493 336.6 101.303 337.408C102.113 338.216 102.923 337.408 102.113 339.428C101.303 341.448 100.493 340.64 101.303 341.448C102.02 342.219 102.696 343.029 103.328 343.872H113.116C113.116 343.872 113.854 339.832 113.854 339.428C113.854 339.024 114.664 336.6 114.664 336.196C114.664 335.792 113.948 335.078 113.948 335.078C113.701 334.257 113.534 333.414 113.449 332.561C113.449 331.753 111.02 300.647 111.02 300.647L115.879 260.25L127.62 299.839C127.62 299.839 127.62 334.58 128.43 335.388C129.239 336.196 129.239 335.792 128.834 337.408C128.43 339.024 126.81 338.62 128.025 339.832C129.239 341.044 129.644 339.024 129.239 341.044L128.834 343.064L140.981 343.237C140.981 343.237 142.6 339.832 141.79 338.62C140.981 337.408 141.029 337.739 142.017 335.756C143.005 333.772 143.41 333.369 143.005 332.965C142.6 332.561 142.6 330.412 142.6 330.412L140.576 291.76C140.576 291.76 140.171 250.959 140.171 249.747C140.14 249.124 140.256 248.501 140.507 247.93V246.285L138.956 240.456L133.545 226.441Z" fill="#2F2E41"/>
<path d="M110.391 146.47C117.006 146.47 122.368 141.12 122.368 134.521C122.368 127.921 117.006 122.571 110.391 122.571C103.777 122.571 98.415 127.921 98.415 134.521C98.415 141.12 103.777 146.47 110.391 146.47Z" fill="#A0616A"/>
<path d="M116.38 154.368C118.96 155.898 120.503 158.71 121.389 161.572C123.03 166.87 124.017 172.347 124.329 177.883L125.265 194.457L136.855 229.747C126.811 238.227 89.0543 231.674 89.0543 231.674C89.0543 231.674 87.8953 231.289 89.0543 230.133C90.2133 228.976 91.3416 230.001 90.1826 228.844C89.0236 227.688 89.8226 228.976 90.2089 227.82C90.5952 226.663 90.2089 227.434 89.8226 227.049C89.4362 226.663 92.8133 223.194 92.8133 223.194L89.7227 202.937L85.8594 162.077C90.4954 156.295 99.819 152.887 99.819 152.887L102.228 148.56L114.274 149.522L116.38 154.368Z" fill="#3F3D56"/>
<path d="M120.263 128.172C121.194 128.865 121.884 129.831 122.235 130.936C122.37 129.131 122.378 127.319 122.261 125.513C122.119 124.244 121.224 123.959 120.187 123.628C119.251 123.329 118.192 122.992 117.907 121.76C114.142 118.106 107.589 118.29 103.104 119.564C100.636 120.266 99.2158 121.167 99.0887 121.695L99.0624 121.804L98.9622 121.854C97.0598 122.803 96.6895 125.8 96.714 128.146C96.7603 132.568 98.2905 137.59 99.1525 137.998C99.1981 138.02 99.2097 138.011 99.2294 137.995C100.527 136.96 102.111 138.074 102.807 138.679C103.217 135.931 104.539 133.399 106.561 131.488C108.582 129.577 111.187 128.398 113.96 128.137C114.865 128.05 115.764 127.9 116.648 127.688C117.097 127.572 117.558 127.511 118.021 127.508C118.819 127.496 119.601 127.727 120.263 128.172Z" fill="#2F2E41"/>
<path d="M194.611 235.962L217.649 212.62L223.719 193.951L213.951 190.009C209.112 194.879 204.132 209.787 204.132 209.787L188.407 230.843C188.282 230.89 188.157 230.939 188.033 230.997C187.309 231.339 186.686 231.86 186.223 232.512C185.76 233.164 185.474 233.924 185.391 234.718C185.308 235.513 185.433 236.315 185.752 237.048C186.071 237.78 186.574 238.418 187.212 238.9C187.851 239.382 188.603 239.692 189.397 239.799C190.19 239.906 190.998 239.807 191.741 239.511C192.485 239.216 193.14 238.734 193.643 238.112C194.145 237.491 194.479 236.75 194.611 235.962Z" fill="#FFB8B8"/>
<path d="M211.287 192.144L223.639 195.71L223.685 195.701C228.226 194.821 231.818 187.292 234.031 181.132C234.759 179.099 234.687 176.867 233.829 174.886C232.97 172.905 231.391 171.324 229.408 170.46C227.941 169.834 226.328 169.629 224.751 169.869C223.174 170.108 221.695 170.784 220.482 171.818L214.324 177.11L211.287 192.144Z" fill="#6C63FF"/>
<path d="M200.718 350.432L194.075 350.432L190.915 324.866L200.719 324.866L200.718 350.432Z" fill="#FFB8B8"/>
<path d="M202.414 348.268L200.544 348.268L193.244 345.306L189.331 348.268H189.33C187.119 348.268 184.999 349.144 183.435 350.704C181.872 352.264 180.993 354.38 180.993 356.586V356.856L202.413 356.857L202.414 348.268Z" fill="#2F2E41"/>
<path d="M230.195 350.432L223.552 350.432L220.392 324.866L230.196 324.866L230.195 350.432Z" fill="#FFB8B8"/>
<path d="M231.889 348.268L230.019 348.268L222.719 345.306L218.807 348.268H218.806C216.595 348.268 214.474 349.144 212.911 350.704C211.347 352.264 210.469 354.38 210.469 356.586V356.856L231.889 356.857L231.889 348.268Z" fill="#2F2E41"/>
<path d="M240.325 240.31C240.325 240.31 241.1 249.598 239.161 258.498C237.222 267.399 237.222 292.466 237.222 292.466L232.955 341.312L220.156 340.152L216.666 258.498L204.255 285.974L205.418 289.844L203.868 290.811C203.868 290.811 205.03 298.357 204.255 298.357C203.479 298.357 201.54 299.518 201.54 299.518L203.091 339.378L189.904 338.991L185.25 282.878L190.292 250.759L190.68 244.567L192.425 244.638L193.314 242.051L194.946 237.601L240.325 240.31Z" fill="#2F2E41"/>
<path d="M240.995 242.261L241.064 242.164C244.756 237.007 239.204 224.615 238.366 222.819L241.893 221.677L241.099 214.94L240.723 211.937L243.419 209.247L243.426 209.18L244.978 195.636L247.233 186.64C248.083 183.239 248.011 179.673 247.023 176.31C246.036 172.946 244.169 169.905 241.615 167.499L236.401 162.594L230.064 153.239H219.846L216.342 159.842C212.945 160.626 209.931 162.573 207.826 165.346C205.72 168.118 204.656 171.54 204.818 175.015L205.612 192.333L202.504 213.896L202.502 217.798L199.003 221.678L199.767 225.489L197.105 226.627L195.929 232.101C195.443 232.742 192.231 237.014 192.231 238.182C192.231 238.357 192.361 238.527 192.64 238.715C194.828 240.193 206.924 243.208 212.278 241.07C217.98 238.795 240.649 242.208 240.877 242.243L240.995 242.261Z" fill="#6C63FF"/>
<path d="M223.635 150.219C231.109 150.219 237.168 144.174 237.168 136.716C237.168 129.259 231.109 123.213 223.635 123.213C216.161 123.213 210.102 129.259 210.102 136.716C210.102 144.174 216.161 150.219 223.635 150.219Z" fill="#FFB8B8"/>
<path d="M222.338 150.438C224.434 150.416 226.524 150.216 228.586 149.84C230.627 149.371 235.131 145.896 236.358 143.844C237.27 142.319 237.817 139.96 238.116 138.249C238.519 135.986 238.441 133.663 237.888 131.432C237.334 129.2 236.317 127.11 234.902 125.295C234.357 124.535 233.615 123.936 232.757 123.562C232.681 123.535 232.603 123.511 232.524 123.49C231.28 123.198 230.151 122.541 229.284 121.604C229.115 121.414 228.934 121.236 228.74 121.073C227.767 120.295 226.623 119.759 225.402 119.507C223.43 119.034 220.609 119.626 217.017 121.268C215.213 122.093 213.21 121.863 211.666 121.571C211.58 121.556 211.491 121.565 211.409 121.595C211.327 121.626 211.254 121.677 211.198 121.744C210.56 122.373 209.708 122.738 208.813 122.765C208.265 122.803 207.709 123.576 207.038 124.582C206.886 124.811 206.709 125.077 206.58 125.24L206.554 124.935L206.253 125.284C205.779 125.833 205.452 126.493 205.302 127.202C205.153 127.911 205.185 128.647 205.397 129.34C205.609 130.033 205.994 130.661 206.514 131.166C207.035 131.671 207.676 132.037 208.376 132.228C208.932 132.36 209.5 132.436 210.071 132.453C210.417 132.475 210.775 132.498 211.119 132.548C212.224 132.745 213.259 133.223 214.122 133.938C214.986 134.652 215.65 135.578 216.048 136.624C216.142 136.866 216.291 137.083 216.482 137.259C216.674 137.434 216.903 137.564 217.153 137.637C217.402 137.71 217.665 137.725 217.921 137.68C218.177 137.636 218.42 137.533 218.63 137.38C218.98 137.094 219.393 136.896 219.836 136.804C220.279 136.712 220.737 136.728 221.172 136.85C221.55 137.048 221.849 137.369 222.019 137.76C222.223 138.195 222.553 138.56 222.966 138.807C224.375 139.487 224.553 142.653 224.122 145.308C223.707 147.866 222.803 149.733 221.924 149.847C221.248 149.934 221.171 149.984 221.125 150.105L221.084 150.213L221.163 150.312C221.541 150.438 221.942 150.481 222.338 150.438Z" fill="#2F2E41"/>
<path d="M211.11 193.589L204.605 185.319C197.979 187.139 186.222 197.595 186.222 197.595L162.077 208.05C161.271 207.915 160.444 207.994 159.678 208.279C158.913 208.565 158.236 209.046 157.716 209.675C157.197 210.305 156.852 211.059 156.718 211.864C156.583 212.668 156.664 213.493 156.95 214.257C157.237 215.02 157.721 215.695 158.352 216.213C158.983 216.73 159.74 217.073 160.546 217.206C161.352 217.339 162.18 217.258 162.944 216.971C163.709 216.684 164.385 216.201 164.903 215.57L196.533 206.766L211.11 193.589Z" fill="#FFB8B8"/>
<path d="M209.551 195.479L219.815 184.063L220.385 175.974C220.491 174.385 220.15 172.799 219.4 171.394C218.65 169.989 217.521 168.821 216.14 168.022C214.262 166.953 212.046 166.634 209.941 167.132C207.837 167.63 206 168.907 204.803 170.704C201.176 176.158 197.275 183.531 199.282 187.689L199.302 187.731L209.551 195.479Z" fill="#6C63FF"/>
<path d="M114.949 238.389L88.272 224.758C86.3745 223.788 85.746 221.216 86.8709 219.024L104.265 185.138C105.39 182.946 107.849 181.952 109.746 182.922L136.423 196.553C138.32 197.523 138.949 200.095 137.824 202.287L120.43 236.173C119.305 238.365 116.846 239.359 114.949 238.389Z" fill="#E6E6E6"/>
<path d="M110.391 232.123L92.266 222.861C90.4888 221.953 89.9001 219.544 90.9537 217.492L105.404 189.339C106.458 187.287 108.761 186.356 110.538 187.264L132.429 198.45C134.206 199.358 134.794 201.767 133.741 203.819L125.89 219.113C121.198 228.256 118.307 236.168 110.391 232.123Z" fill="white"/>
<path d="M119.352 216.749L103.298 208.545C103.102 208.406 102.963 208.201 102.906 207.967C102.848 207.733 102.877 207.487 102.987 207.273C103.097 207.059 103.281 206.891 103.504 206.801C103.727 206.711 103.976 206.704 104.204 206.781L120.257 214.984C120.454 215.124 120.593 215.329 120.65 215.563C120.707 215.797 120.678 216.043 120.568 216.257C120.459 216.471 120.275 216.638 120.052 216.729C119.828 216.819 119.58 216.826 119.352 216.749Z" fill="#6C63FF"/>
<path d="M105.173 213.903L101.509 212.031C101.313 211.892 101.174 211.686 101.116 211.453C101.059 211.219 101.088 210.973 101.198 210.759C101.308 210.545 101.492 210.377 101.715 210.287C101.938 210.197 102.187 210.19 102.415 210.267L106.079 212.139C106.275 212.279 106.414 212.484 106.471 212.718C106.528 212.951 106.499 213.197 106.39 213.412C106.28 213.626 106.096 213.793 105.873 213.883C105.65 213.974 105.401 213.981 105.173 213.903Z" fill="#6C63FF"/>
<path d="M109.872 220.705L99.7202 215.517C99.5239 215.378 99.3845 215.173 99.3274 214.939C99.2703 214.705 99.2993 214.459 99.4092 214.245C99.5191 214.031 99.7025 213.863 99.9258 213.773C100.149 213.683 100.398 213.676 100.626 213.753L110.778 218.941C110.974 219.08 111.114 219.286 111.171 219.519C111.228 219.753 111.199 219.999 111.089 220.213C110.979 220.427 110.796 220.595 110.572 220.685C110.349 220.775 110.101 220.783 109.872 220.705Z" fill="#6C63FF"/>
<path d="M125.705 204.372L109.652 196.169C109.456 196.029 109.316 195.824 109.259 195.59C109.202 195.357 109.231 195.11 109.341 194.896C109.451 194.682 109.634 194.515 109.857 194.425C110.081 194.334 110.329 194.327 110.558 194.405L126.611 202.608C126.807 202.747 126.947 202.953 127.004 203.186C127.061 203.42 127.032 203.666 126.922 203.88C126.812 204.095 126.629 204.262 126.405 204.352C126.182 204.443 125.934 204.45 125.705 204.372Z" fill="#6C63FF"/>
<path d="M111.525 201.527L107.862 199.655C107.666 199.516 107.526 199.31 107.469 199.077C107.412 198.843 107.441 198.597 107.551 198.383C107.661 198.169 107.844 198.001 108.067 197.911C108.291 197.82 108.539 197.813 108.768 197.891L112.431 199.763C112.627 199.902 112.767 200.108 112.824 200.341C112.881 200.575 112.852 200.821 112.742 201.035C112.632 201.249 112.449 201.417 112.225 201.507C112.002 201.597 111.754 201.605 111.525 201.527Z" fill="#6C63FF"/>
<path d="M116.225 208.329L106.073 203.141C105.876 203.001 105.737 202.796 105.68 202.562C105.623 202.329 105.652 202.082 105.762 201.868C105.872 201.654 106.055 201.487 106.278 201.397C106.502 201.306 106.75 201.299 106.978 201.376L117.131 206.564C117.327 206.704 117.466 206.909 117.523 207.143C117.581 207.376 117.551 207.623 117.442 207.837C117.332 208.051 117.148 208.218 116.925 208.309C116.702 208.399 116.453 208.406 116.225 208.329Z" fill="#6C63FF"/>
<path d="M92.843 208.888L86.8164 186.502L102.921 183.46L102.055 198.826L123.215 220.565C124.336 220.52 125.445 220.8 126.408 221.373C127.372 221.945 128.147 222.785 128.64 223.79C129.133 224.794 129.323 225.92 129.186 227.031C129.048 228.141 128.59 229.187 127.867 230.042C127.144 230.897 126.188 231.524 125.114 231.846C124.04 232.168 122.896 232.171 121.82 231.855C120.745 231.54 119.785 230.918 119.057 230.067C118.329 229.216 117.865 228.173 117.721 227.063L92.843 208.888Z" fill="#A0616A"/>
<path d="M85.1689 161.403C79.7024 165.709 86.7187 189.794 86.7187 189.794C87.805 188.605 89.0674 206.185 90.3952 205.586C94.1689 203.885 101.086 198.018 103.752 198.496C105.277 198.77 103.679 186.868 103.679 186.868C103.679 186.868 103.386 180.044 102.833 171.271C102.723 168.788 101.985 166.373 100.688 164.251C99.3913 162.129 97.5772 160.369 95.415 159.134C95.415 159.134 90.6355 157.097 85.1689 161.403Z" fill="#3F3D56"/>
<path d="M176.127 258.576L161.57 251.717C161.258 251.571 160.984 251.357 160.768 251.09C160.551 250.823 160.398 250.511 160.32 250.177C160.241 249.85 160.237 249.51 160.309 249.181C160.381 248.853 160.526 248.545 160.735 248.28C164.951 242.903 167.847 236.615 169.189 229.92C169.29 229.407 169.567 228.945 169.971 228.613C170.376 228.281 170.883 228.099 171.407 228.099C178.831 228.124 184.38 230.829 187.898 236.137C188.084 236.413 188.207 236.726 188.259 237.055C188.31 237.383 188.29 237.719 188.198 238.039C186.161 245.045 183.061 251.699 179.006 257.769C178.705 258.228 178.247 258.563 177.718 258.711C177.189 258.859 176.624 258.811 176.127 258.576Z" fill="#E6E6E6"/>
<path d="M180.41 248.956L169.279 243.711C169.002 243.581 168.788 243.346 168.685 243.058C168.582 242.771 168.597 242.454 168.728 242.178C168.859 241.901 169.094 241.688 169.382 241.585C169.67 241.482 169.988 241.497 170.265 241.628L181.396 246.872C181.533 246.937 181.656 247.028 181.758 247.14C181.86 247.252 181.938 247.383 181.99 247.525C182.041 247.668 182.063 247.819 182.056 247.97C182.049 248.121 182.011 248.269 181.947 248.406C181.882 248.543 181.791 248.665 181.679 248.767C181.566 248.869 181.435 248.947 181.292 248.998C181.15 249.05 180.998 249.072 180.847 249.065C180.695 249.057 180.547 249.02 180.41 248.956Z" fill="white"/>
<path d="M182.138 245.302L171.007 240.058C170.73 239.927 170.517 239.693 170.413 239.405C170.31 239.117 170.325 238.8 170.456 238.524C170.587 238.248 170.822 238.035 171.111 237.932C171.399 237.828 171.716 237.844 171.993 237.974L183.124 243.219C183.401 243.349 183.615 243.584 183.718 243.872C183.821 244.159 183.806 244.476 183.675 244.752C183.544 245.029 183.309 245.242 183.021 245.345C182.733 245.448 182.415 245.433 182.138 245.302Z" fill="white"/>
</g>
<defs>
<clipPath id="clip0_164_240">
<rect width="330.406" height="267.381" fill="white" transform="translate(0.59375 90.1914)"/>
</clipPath>
</defs>
</svg>
