<svg width="32" height="29" viewBox="0 0 32 29" fill="none" xmlns="http://www.w3.org/2000/svg">
<g filter="url(#filter0_d_1700_425)">
<path d="M15.98 20.0944C15.786 20.0944 15.5937 20.0591 15.403 19.9884C15.2123 19.9184 15.0447 19.8107 14.9 19.6654L13.752 18.6304C11.972 17.0137 10.402 15.4414 9.042 13.9134C7.68067 12.3861 7 10.7984 7 9.15039C7 7.87839 7.432 6.81039 8.296 5.94639C9.16 5.08239 10.228 4.65039 11.5 4.65039C12.2293 4.65039 12.989 4.83472 13.779 5.20339C14.569 5.57206 15.3093 6.26739 16 7.28939C16.6913 6.26739 17.4317 5.57206 18.221 5.20339C19.0103 4.83472 19.77 4.65039 20.5 4.65039C21.772 4.65039 22.84 5.08239 23.704 5.94639C24.568 6.81039 25 7.87839 25 9.15039C25 10.8364 24.2917 12.4571 22.875 14.0124C21.4583 15.5677 19.9077 17.1084 18.223 18.6344L17.081 19.6654C16.9357 19.8107 16.7647 19.9184 16.568 19.9884C16.3713 20.0584 16.1757 20.0937 15.981 20.0944" fill="#DD3541"/>
</g>
<defs>
<filter id="filter0_d_1700_425" x="0.5" y="0.150391" width="31" height="28.4443" filterUnits="userSpaceOnUse" color-interpolation-filters="sRGB">
<feFlood flood-opacity="0" result="BackgroundImageFix"/>
<feColorMatrix in="SourceAlpha" type="matrix" values="0 0 0 0 0 0 0 0 0 0 0 0 0 0 0 0 0 0 127 0" result="hardAlpha"/>
<feOffset dy="2"/>
<feGaussianBlur stdDeviation="3.25"/>
<feComposite in2="hardAlpha" operator="out"/>
<feColorMatrix type="matrix" values="0 0 0 0 1 0 0 0 0 0.483377 0 0 0 0 0.520279 0 0 0 0.4 0"/>
<feBlend mode="normal" in2="BackgroundImageFix" result="effect1_dropShadow_1700_425"/>
<feBlend mode="normal" in="SourceGraphic" in2="effect1_dropShadow_1700_425" result="shape"/>
</filter>
</defs>
</svg>
