<svg width="39" height="30" viewBox="0 0 39 30" fill="none" xmlns="http://www.w3.org/2000/svg">
<path d="M27.7025 21V19.864H33.6705L32.6465 20.776V17.288C32.6465 16.4987 32.5558 15.8747 32.3745 15.416C32.1932 14.9573 31.8945 14.632 31.4785 14.44C31.0732 14.2373 30.5238 14.136 29.8305 14.136H28.5345V13H29.8305C30.6838 13 31.4145 13.1333 32.0225 13.4C32.6305 13.6667 33.0945 14.1147 33.4145 14.744C33.7345 15.3627 33.8945 16.2107 33.8945 17.288V21H27.7025ZM34.9409 24.536C34.8022 24.536 34.6582 24.5253 34.5089 24.504C34.3489 24.4933 34.1942 24.4827 34.0449 24.472L34.1889 23.336C34.3382 23.3467 34.4769 23.3573 34.6049 23.368C34.7329 23.3893 34.8449 23.4 34.9409 23.4C35.4422 23.4 35.8475 23.208 36.1569 22.824C36.4662 22.4507 36.6209 21.928 36.6209 21.256V13H37.8689V21.256C37.8689 21.9067 37.7409 22.4773 37.4849 22.968C37.2395 23.4693 36.8982 23.8533 36.4609 24.12C36.0235 24.3973 35.5169 24.536 34.9409 24.536Z" fill="#615D81"/>
<path d="M7.91667 14.1237V10.957L2.375 16.4987L7.91667 22.0404V18.7945C11.875 18.7945 14.6458 20.0612 16.625 22.832C15.8333 18.8737 13.4583 14.9154 7.91667 14.1237Z" fill="#615D81"/>
</svg>
