<svg width="14" height="14" viewBox="0 0 14 14" fill="none" xmlns="http://www.w3.org/2000/svg">
<path fill-rule="evenodd" clip-rule="evenodd" d="M4.08802 9.3192L0.8311 12.5769L1.50243 13.2482L4.76647 9.9842C5.86867 10.8931 7.27926 11.3412 8.7039 11.235C10.1285 11.1288 11.4571 10.4766 12.4124 9.41442C13.3677 8.35223 13.8759 6.96215 13.831 5.53428C13.786 4.1064 13.1914 2.75104 12.1712 1.75105C11.1509 0.751061 9.78395 0.183695 8.35545 0.167355C6.92696 0.151015 5.54735 0.686965 4.50451 1.66336C3.46167 2.63975 2.83619 3.98115 2.75859 5.40763C2.68098 6.8341 3.15726 8.23544 4.08802 9.3192ZM3.7001 5.70841C3.7001 4.49062 4.18386 3.32271 5.04497 2.46161C5.90607 1.60051 7.07398 1.11674 8.29177 1.11674C9.50955 1.11674 10.6775 1.60051 11.5386 2.46161C12.3997 3.32271 12.8834 4.49062 12.8834 5.70841C12.8834 6.92619 12.3997 8.0941 11.5386 8.95521C10.6775 9.81631 9.50955 10.3001 8.29177 10.3001C7.07398 10.3001 5.90607 9.81631 5.04497 8.95521C4.18386 8.0941 3.7001 6.92619 3.7001 5.70841Z" fill="white"/>
</svg>
