<svg width="373" height="324" viewBox="0 0 373 324" fill="none" xmlns="http://www.w3.org/2000/svg">
<g clip-path="url(#clip0_1492_322)">
<path d="M345.352 300.28L355.4 297.09C356.652 291.693 356.569 286.072 355.158 280.715C351.121 289.697 339.278 291.898 332.531 299.068C330.443 301.32 328.889 304.013 327.983 306.948C327.077 309.883 326.843 312.985 327.298 316.023L325.184 323.2C330.121 322.777 334.908 321.289 339.215 318.837C343.522 316.385 347.247 313.028 350.132 308.997C351.729 306.719 353.033 304.249 354.012 301.646C349.727 301.216 345.352 300.28 345.352 300.28Z" fill="#F2F2F2"/>
<path d="M334.616 287.009L342.187 279.669C340.903 274.28 338.324 269.286 334.674 265.121C335.063 274.962 325.444 282.218 322.6 291.647C321.735 294.594 321.544 297.699 322.041 300.73C322.539 303.762 323.711 306.642 325.472 309.158L326.778 316.525C331.009 313.944 334.63 310.475 337.392 306.358C340.155 302.241 341.992 297.574 342.779 292.677C343.193 289.926 343.259 287.134 342.976 284.366C338.949 285.895 334.616 287.009 334.616 287.009Z" fill="#F2F2F2"/>
<path d="M284.284 21.5119H1.10156C0.80702 21.5056 0.526652 21.3841 0.320551 21.1735C0.114449 20.9628 -0.000976562 20.6797 -0.000976562 20.3848C-0.000976562 20.09 0.114449 19.8069 0.320551 19.5962C0.526652 19.3855 0.80702 19.2641 1.10156 19.2578H284.284C284.578 19.2641 284.859 19.3855 285.065 19.5962C285.271 19.8069 285.386 20.09 285.386 20.3848C285.386 20.6797 285.271 20.9628 285.065 21.1735C284.859 21.3841 284.578 21.5056 284.284 21.5119Z" fill="#3F3D56"/>
<path d="M20.3783 13.5042C24.0232 13.5042 26.978 10.4811 26.978 6.75208C26.978 3.02301 24.0232 0 20.3783 0C16.7333 0 13.7786 3.02301 13.7786 6.75208C13.7786 10.4811 16.7333 13.5042 20.3783 13.5042Z" fill="#3F3D56"/>
<path d="M43.1771 13.5042C46.822 13.5042 49.7768 10.4811 49.7768 6.75208C49.7768 3.02301 46.822 0 43.1771 0C39.5322 0 36.5774 3.02301 36.5774 6.75208C36.5774 10.4811 39.5322 13.5042 43.1771 13.5042Z" fill="#3F3D56"/>
<path d="M65.9759 13.5042C69.6208 13.5042 72.5756 10.4811 72.5756 6.75208C72.5756 3.02301 69.6208 0 65.9759 0C62.331 0 59.3762 3.02301 59.3762 6.75208C59.3762 10.4811 62.331 13.5042 65.9759 13.5042Z" fill="#3F3D56"/>
<path d="M270.557 1.67188H254.362C254.041 1.67827 253.735 1.81038 253.51 2.03983C253.286 2.26929 253.16 2.57779 253.16 2.8991C253.16 3.22042 253.286 3.52892 253.51 3.75838C253.735 3.98783 254.041 4.11994 254.362 4.12633H270.557C270.878 4.11994 271.184 3.98783 271.408 3.75838C271.633 3.52892 271.759 3.22042 271.759 2.8991C271.759 2.57779 271.633 2.26929 271.408 2.03983C271.184 1.81038 270.878 1.67827 270.557 1.67188Z" fill="#3F3D56"/>
<path d="M270.557 6.28125H254.362C254.041 6.28761 253.735 6.4197 253.51 6.64916C253.285 6.87862 253.159 7.18714 253.159 7.50848C253.159 7.82982 253.285 8.13835 253.51 8.36781C253.735 8.59727 254.041 8.72935 254.362 8.73571H270.557C270.878 8.72935 271.184 8.59727 271.408 8.36781C271.633 8.13835 271.759 7.82982 271.759 7.50848C271.759 7.18714 271.633 6.87862 271.408 6.64916C271.184 6.4197 270.878 6.28761 270.557 6.28125Z" fill="#3F3D56"/>
<path d="M270.557 10.8789H254.362C254.041 10.8853 253.735 11.0173 253.51 11.2468C253.285 11.4763 253.159 11.7848 253.159 12.1061C253.159 12.4275 253.285 12.736 253.51 12.9655C253.735 13.1949 254.041 13.327 254.362 13.3334H270.557C270.878 13.327 271.184 13.1949 271.408 12.9655C271.633 12.736 271.759 12.4275 271.759 12.1061C271.759 11.7848 271.633 11.4763 271.408 11.2468C271.184 11.0173 270.878 10.8853 270.557 10.8789Z" fill="#3F3D56"/>
<path d="M21.9378 67.3039C26.444 67.3039 30.097 63.6481 30.097 59.1383C30.097 54.6285 26.444 50.9727 21.9378 50.9727C17.4316 50.9727 13.7786 54.6285 13.7786 59.1383C13.7786 63.6481 17.4316 67.3039 21.9378 67.3039Z" fill="#E6E7E8"/>
<path d="M229.713 77.2186H16.2082C15.5638 77.2186 14.9458 76.9624 14.4902 76.5064C14.0345 76.0504 13.7786 75.4319 13.7786 74.787C13.7786 74.1422 14.0345 73.5237 14.4902 73.0677C14.9458 72.6117 15.5638 72.3555 16.2082 72.3555H229.713C230.358 72.3555 230.976 72.6117 231.431 73.0677C231.887 73.5237 232.143 74.1422 232.143 74.787C232.143 75.4319 231.887 76.0504 231.431 76.5064C230.976 76.9624 230.358 77.2186 229.713 77.2186Z" fill="#E6E7E8"/>
<path d="M173.718 86.8282H16.2083C15.5639 86.8282 14.9459 86.572 14.4902 86.116C14.0346 85.66 13.7786 85.0414 13.7786 84.3965C13.7786 83.7516 14.0346 83.1331 14.4902 82.6771C14.9459 82.221 15.5639 81.9648 16.2083 81.9648H173.718C174.362 81.9648 174.98 82.221 175.436 82.6771C175.892 83.1331 176.148 83.7516 176.148 84.3965C176.148 85.0414 175.892 85.66 175.436 86.116C174.98 86.572 174.362 86.8282 173.718 86.8282Z" fill="#E6E7E8"/>
<path d="M21.9378 194.757C26.444 194.757 30.097 191.101 30.097 186.591C30.097 182.082 26.444 178.426 21.9378 178.426C17.4316 178.426 13.7786 182.082 13.7786 186.591C13.7786 191.101 17.4316 194.757 21.9378 194.757Z" fill="#E6E7E8"/>
<path d="M229.713 204.672H16.2082C15.8888 204.672 15.5724 204.61 15.2772 204.488C14.982 204.366 14.7137 204.187 14.4877 203.961C14.2616 203.735 14.0823 203.467 13.96 203.172C13.8376 202.876 13.7747 202.56 13.7747 202.24C13.7747 201.921 13.8376 201.604 13.96 201.309C14.0823 201.013 14.2616 200.745 14.4877 200.519C14.7137 200.294 14.982 200.115 15.2772 199.993C15.5724 199.871 15.8888 199.808 16.2082 199.809H229.713C230.39 199.846 231.029 200.136 231.503 200.621C231.978 201.105 232.254 201.75 232.278 202.428C232.258 202.744 232.176 203.053 232.036 203.338C231.896 203.622 231.701 203.876 231.463 204.084C231.224 204.293 230.947 204.452 230.647 204.553C230.346 204.654 230.029 204.694 229.713 204.672Z" fill="#E6E7E8"/>
<path d="M173.718 214.281H16.2083C15.5639 214.281 14.9459 214.025 14.4902 213.569C14.0346 213.113 13.7786 212.495 13.7786 211.85C13.7786 211.205 14.0346 210.586 14.4902 210.13C14.9459 209.674 15.5639 209.418 16.2083 209.418H173.718C174.362 209.418 174.98 209.674 175.436 210.13C175.892 210.586 176.148 211.205 176.148 211.85C176.148 212.495 175.892 213.113 175.436 213.569C174.98 214.025 174.362 214.281 173.718 214.281Z" fill="#E6E7E8"/>
<path d="M21.9378 126.226C26.444 126.226 30.097 122.57 30.097 118.06C30.097 113.55 26.444 109.895 21.9378 109.895C17.4316 109.895 13.7786 113.55 13.7786 118.06C13.7786 122.57 17.4316 126.226 21.9378 126.226Z" fill="#E6E7E8"/>
<path d="M229.713 136.14H16.2082C15.5638 136.14 14.9458 135.884 14.4902 135.428C14.0345 134.972 13.7786 134.354 13.7786 133.709C13.7786 133.064 14.0345 132.446 14.4902 131.99C14.9458 131.534 15.5638 131.277 16.2082 131.277H229.713C230.358 131.277 230.976 131.534 231.431 131.99C231.887 132.446 232.143 133.064 232.143 133.709C232.143 134.354 231.887 134.972 231.431 135.428C230.976 135.884 230.358 136.14 229.713 136.14Z" fill="#E6E7E8"/>
<path d="M199.981 145.75H16.2083C15.5639 145.75 14.9459 145.494 14.4902 145.038C14.0346 144.582 13.7786 143.963 13.7786 143.318C13.7786 142.673 14.0346 142.055 14.4902 141.599C14.9459 141.143 15.5639 140.887 16.2083 140.887H199.981C200.626 140.887 201.244 141.143 201.699 141.599C202.155 142.055 202.411 142.673 202.411 143.318C202.411 143.963 202.155 144.582 201.699 145.038C201.244 145.494 200.626 145.75 199.981 145.75Z" fill="#E6E7E8"/>
<path d="M187.508 155.356H16.2083C15.5639 155.356 14.9459 155.099 14.4902 154.643C14.0346 154.187 13.7786 153.569 13.7786 152.924C13.7786 152.279 14.0346 151.66 14.4902 151.204C14.9459 150.748 15.5639 150.492 16.2083 150.492H187.508C188.153 150.492 188.771 150.748 189.226 151.204C189.682 151.66 189.938 152.279 189.938 152.924C189.938 153.569 189.682 154.187 189.226 154.643C188.771 155.099 188.153 155.356 187.508 155.356Z" fill="#E6E7E8"/>
<path d="M191.052 262.856C224.423 262.856 251.476 235.782 251.476 202.385C251.476 168.988 224.423 141.914 191.052 141.914C157.682 141.914 130.629 168.988 130.629 202.385C130.629 235.782 157.682 262.856 191.052 262.856Z" fill="#6C63FF"/>
<path d="M190.97 223.484C195.737 223.484 199.601 219.617 199.601 214.846C199.601 210.075 195.737 206.207 190.97 206.207C186.202 206.207 182.338 210.075 182.338 214.846C182.338 219.617 186.202 223.484 190.97 223.484Z" fill="#3F3D56"/>
<path d="M190.97 218.834C193.17 218.834 194.954 217.048 194.954 214.846C194.954 212.644 193.17 210.859 190.97 210.859C188.769 210.859 186.986 212.644 186.986 214.846C186.986 217.048 188.769 218.834 190.97 218.834Z" fill="#6C63FF"/>
<path d="M206.993 234.074H175.112C171.956 234.07 168.929 232.814 166.697 230.58C164.465 228.346 163.209 225.317 163.206 222.158V207.53C163.209 204.37 164.465 201.341 166.697 199.107C168.929 196.874 171.956 195.617 175.112 195.613H206.993C210.15 195.617 213.176 196.874 215.408 199.108C217.64 201.342 218.896 204.37 218.9 207.53V222.158C218.896 225.317 217.64 228.346 215.408 230.58C213.176 232.814 210.15 234.07 206.993 234.074ZM175.112 196.861C172.286 196.864 169.577 197.989 167.578 199.989C165.58 201.989 164.455 204.701 164.452 207.53V222.158C164.456 224.986 165.58 227.698 167.578 229.698C169.577 231.698 172.286 232.823 175.112 232.826H206.993C209.819 232.823 212.529 231.698 214.527 229.698C216.526 227.698 217.65 224.986 217.653 222.158V207.53C217.65 204.701 216.526 201.989 214.527 199.989C212.529 197.989 209.819 196.864 206.993 196.861L175.112 196.861Z" fill="white"/>
<path d="M173.224 226.137H201.521C202.99 226.137 204.444 225.847 205.801 225.285C207.158 224.722 208.391 223.898 209.43 222.858C210.469 221.819 211.292 220.585 211.854 219.227C212.417 217.869 212.706 216.413 212.706 214.943V202.701C212.704 201.344 212.454 199.998 211.968 198.73C213.349 199.771 214.469 201.118 215.24 202.665C216.011 204.213 216.413 205.919 216.413 207.648V219.89C216.413 221.36 216.124 222.816 215.562 224.174C215 225.532 214.176 226.766 213.137 227.805C212.099 228.844 210.866 229.669 209.509 230.231C208.152 230.794 206.697 231.083 205.229 231.083H176.932C174.664 231.082 172.45 230.391 170.584 229.101C168.718 227.811 167.289 225.983 166.485 223.861C168.422 225.338 170.789 226.137 173.224 226.137Z" fill="#3F3D56"/>
<path d="M259.879 315.999L252.926 315.998L249.618 289.156L259.881 289.157L259.879 315.999Z" fill="#A0616A"/>
<path d="M260.124 323.257L238.742 323.257V322.986C238.742 320.777 239.619 318.659 241.18 317.097C242.74 315.535 244.857 314.657 247.064 314.657L250.971 311.691L258.258 314.657L260.125 314.657L260.124 323.257Z" fill="#2F2E41"/>
<path d="M309.079 315.999L316.033 315.998L319.341 289.156L309.078 289.157L309.079 315.999Z" fill="#A0616A"/>
<path d="M308.834 323.257L330.217 323.257V322.986C330.217 320.777 329.34 318.659 327.779 317.097C326.218 315.535 324.102 314.657 321.894 314.657L317.988 311.691L310.701 314.657L308.834 314.657L308.834 323.257Z" fill="#2F2E41"/>
<path d="M249.312 269.432C249.415 267.901 250.231 259.43 250.231 259.43L252.187 241.467L255.634 193.851L255.859 190.734L273.916 187.265L286.257 181.344L300.925 186.036L312.346 190.323C312.346 190.323 312.366 192.158 312.454 194.375C312.571 197.276 312.777 200.834 313.266 201.758C314.082 203.393 313.877 212.166 313.877 212.166C313.877 212.166 314.688 230.017 315.71 231.974C316.732 233.932 316.938 238.008 316.63 238.825C316.322 239.642 317.651 261.079 317.651 261.079C317.651 261.079 321.065 299.016 318.923 304.736C316.782 310.456 308.689 306.709 308.689 306.709C308.689 306.709 309.08 305.182 306.733 304.463C304.386 303.744 297.238 249.952 297.238 249.952C297.238 249.952 295.908 238.923 294.686 235.762C293.464 232.601 292.339 223.719 292.339 223.719C292.339 223.719 284.79 209.02 284.692 205.751C284.692 205.751 283.704 202.693 282.77 206.06C281.837 209.426 279.084 217.49 279.084 217.49L276.4 227.394L273.241 242.191L271.197 254.65C271.197 254.65 268.136 271.184 267.647 271.898C267.159 272.613 267.647 287.718 267.647 287.718C267.647 287.718 265.281 300.583 261.937 302.829C258.592 305.075 249.732 302.864 249.732 302.864C249.732 302.864 249.21 270.964 249.312 269.432Z" fill="#2F2E41"/>
<path d="M257.015 147.307L261.03 159.408L256.076 165.309L258.258 167.555L256.649 170.731L252.454 204.015L275.453 212.744L283.198 203.026L289.305 212.744L315.918 206.237L309.131 163.792V161.018L307.215 155.66V144.317L312.276 110.554L297.172 105.259L289.95 99.5391L287.614 107.583L277.664 105.812L277.404 99.7686L269.791 106.967L263.381 108.797L255.705 110.554L254.727 113L256.682 112.511L256.365 144.342L257.015 147.307Z" fill="#2F2E41"/>
<path d="M250.141 191.584L254.003 154.166L255.023 138.765L244.211 136.809C244.211 136.809 244.64 147.82 243.223 154.033C241.826 160.164 243.038 190.763 243.124 191.581C242.33 192.292 241.77 193.227 241.519 194.263C241.268 195.299 241.336 196.386 241.716 197.382C242.096 198.378 242.769 199.235 243.646 199.84C244.523 200.445 245.563 200.769 246.628 200.77C247.693 200.77 248.733 200.447 249.611 199.843C250.489 199.239 251.163 198.383 251.543 197.387C251.924 196.391 251.994 195.304 251.743 194.267C251.493 193.231 250.934 192.296 250.141 191.584Z" fill="#A0616A"/>
<path d="M239.594 161.918L242.601 162.54L252.918 164.678L253.49 164.795L254.708 159.951L256.121 158.444L258.81 144.342L258.952 143.608L263.015 134.917L265.826 108.797L255.372 110.676C255.318 110.73 255.27 110.788 255.221 110.847C253.72 112.55 252.649 114.918 250.898 117.301C245.202 125.057 240.831 143.901 241.003 154.226C241.008 154.392 240.836 154.573 240.631 154.759C239.662 155.651 239.029 156.85 238.84 158.154C238.652 159.458 238.918 160.788 239.594 161.918Z" fill="#2F2E41"/>
<path d="M317.351 191.584L313.488 154.166L312.469 138.765L323.281 136.809C323.281 136.809 322.852 147.82 324.268 154.033C325.666 160.164 324.454 190.763 324.368 191.581C325.162 192.292 325.721 193.227 325.973 194.263C326.224 195.299 326.155 196.386 325.776 197.382C325.396 198.378 324.723 199.235 323.846 199.84C322.969 200.445 321.929 200.769 320.864 200.77C319.798 200.77 318.758 200.447 317.881 199.843C317.003 199.239 316.329 198.383 315.948 197.387C315.568 196.391 315.498 195.304 315.748 194.267C315.999 193.231 316.558 192.296 317.351 191.584Z" fill="#A0616A"/>
<path d="M327.897 161.918L324.89 162.54L314.574 164.678L314.002 164.795L312.784 159.951L311.371 158.444L308.682 144.342L308.54 143.608L304.477 134.917L305.406 108.797L312.119 110.676C312.173 110.73 312.222 110.788 312.271 110.847C313.772 112.55 314.843 114.918 316.593 117.301C322.289 125.057 326.66 143.901 326.489 154.226C326.484 154.392 326.655 154.573 326.861 154.759C327.83 155.651 328.463 156.85 328.651 158.154C328.84 159.458 328.574 160.788 327.897 161.918Z" fill="#2F2E41"/>
<path d="M272.493 112.662L277.404 99.769L289.951 99.5391L294.114 112.662L309.078 196.321C309.078 196.321 263.234 209.097 263.699 193.739C264.188 177.591 266.394 156.142 266.394 156.142L272.493 112.662Z" fill="#6C63FF"/>
<path d="M283.397 96.1644C291.56 96.1644 298.177 89.5422 298.177 81.3732C298.177 73.2043 291.56 66.582 283.397 66.582C275.234 66.582 268.617 73.2043 268.617 81.3732C268.617 89.5422 275.234 96.1644 283.397 96.1644Z" fill="#A0616A"/>
<path d="M267.746 70.6415C270.152 68.0205 273.162 63.2228 282.278 61.2081C293.542 58.7187 298.864 68.9023 296.024 69.0692C304.33 71.5865 298.994 88.7891 296.613 87.3464C296.592 87.3321 296.573 87.3168 296.554 87.3004C295.273 86.3566 294.198 85.1613 293.395 83.7877C292.591 82.414 292.076 80.8908 291.881 79.3112L291.429 75.2404C291.364 78.5525 287.981 78.9907 284.526 77.7708C284.73 77.0447 285.12 76.3843 285.657 75.855C286.194 75.3257 286.86 74.9458 287.589 74.7526C285.18 76.9382 282.12 78.2707 278.88 78.545C279.049 77.7157 279.394 76.9323 279.892 76.2475C280.389 75.5627 281.027 74.9924 281.763 74.5747L281.626 74.4406C280.277 75.5796 278.727 76.4576 277.057 77.0298C275.152 77.5762 272.87 77.2806 271.564 75.7883C271.213 75.3764 270.947 74.8983 270.784 74.3821C271.066 77.0051 269.308 79.9993 267.942 79.4853C266.806 79.2643 266.144 72.3863 267.746 70.6415Z" fill="#2F2E41"/>
<path d="M373 323.258C373 323.356 372.981 323.452 372.944 323.542C372.907 323.633 372.852 323.715 372.783 323.784C372.714 323.853 372.632 323.907 372.542 323.944C372.452 323.982 372.356 324.001 372.258 324H197.54C197.343 324 197.155 323.922 197.016 323.783C196.877 323.644 196.798 323.455 196.798 323.258C196.798 323.061 196.877 322.872 197.016 322.733C197.155 322.594 197.343 322.516 197.54 322.516H372.258C372.356 322.515 372.452 322.534 372.542 322.572C372.632 322.609 372.714 322.663 372.783 322.732C372.852 322.801 372.907 322.883 372.944 322.974C372.981 323.064 373 323.16 373 323.258Z" fill="#CCCCCC"/>
<path d="M191.543 169.598C185.633 169.598 180.439 172.275 177.497 176.294C180.642 174.004 184.438 172.785 188.327 172.817C197.478 172.817 204.924 179.233 204.924 187.119V193.674H208.141V183.899C208.14 176.013 200.695 169.598 191.543 169.598Z" fill="#3F3D56"/>
<path d="M210.351 197.029H171.754V185.664C171.754 176.495 180.411 169.035 191.052 169.035C201.693 169.035 210.351 176.495 210.351 185.664V197.029ZM173.001 195.782H209.104V185.664C209.104 177.183 201.006 170.283 191.052 170.283C181.099 170.283 173.001 177.183 173.001 185.664V195.782Z" fill="white"/>
<path d="M200.937 192.691H181.168C180.278 192.69 179.426 192.336 178.797 191.707C178.168 191.077 177.814 190.224 177.813 189.334V184.811C177.813 178.505 183.752 173.375 191.052 173.375C198.352 173.375 204.291 178.505 204.291 184.811V189.334C204.291 190.224 203.937 191.077 203.308 191.707C202.679 192.336 201.826 192.69 200.937 192.691ZM191.052 174.623C184.44 174.623 179.06 179.193 179.06 184.811V189.334C179.06 189.893 179.283 190.43 179.678 190.825C180.073 191.221 180.609 191.443 181.168 191.444H200.937C201.496 191.443 202.032 191.221 202.427 190.825C202.822 190.43 203.044 189.893 203.045 189.334V184.811C203.045 179.193 197.665 174.623 191.052 174.623Z" fill="white"/>
</g>
<defs>
<clipPath id="clip0_1492_322">
<rect width="373" height="324" fill="white"/>
</clipPath>
</defs>
</svg>
