<svg width="16" height="18" viewBox="0 0 16 18" fill="none" xmlns="http://www.w3.org/2000/svg">
<path fill-rule="evenodd" clip-rule="evenodd" d="M15.9998 2.99978C15.9994 2.62504 15.9149 2.25516 15.7523 1.91751C15.5898 1.57986 15.3534 1.28308 15.0607 1.0491C14.7679 0.815131 14.4264 0.649959 14.0612 0.565805C13.696 0.481651 13.3166 0.480668 12.951 0.562929C12.5854 0.645189 12.243 0.808589 11.949 1.04104C11.6551 1.27349 11.4172 1.56905 11.2529 1.90586C11.0886 2.24266 11.0021 2.61209 10.9998 2.98683C10.9976 3.36156 11.0796 3.73202 11.2398 4.07078L4.53477 7.54778C4.22714 7.11652 3.79048 6.79413 3.28777 6.6271C2.78505 6.46008 2.24228 6.45705 1.73774 6.61847C1.23319 6.77988 0.792965 7.09739 0.480553 7.5252C0.168141 7.953 -0.000305781 8.46899 -0.000488133 8.99872C-0.000670486 9.52845 0.16742 10.0446 0.479538 10.4726C0.791656 10.9006 1.23167 11.2184 1.7361 11.3802C2.24053 11.5419 2.78331 11.5393 3.28613 11.3726C3.78896 11.2059 4.22585 10.8838 4.53377 10.4528L11.0888 14.3368C10.9875 14.7079 10.9732 15.0973 11.0467 15.4748C11.1203 15.8523 11.2799 16.2079 11.5131 16.5138C11.7462 16.8197 12.0468 17.0677 12.3913 17.2387C12.7358 17.4097 13.1151 17.4991 13.4998 17.4998C13.9229 17.4997 14.3391 17.3923 14.7094 17.1875C15.0797 16.9827 15.3919 16.6873 15.6169 16.329C15.8419 15.9706 15.9722 15.561 15.9957 15.1385C16.0191 14.716 15.935 14.2945 15.7511 13.9134C15.5673 13.5323 15.2897 13.2041 14.9443 12.9596C14.599 12.715 14.1973 12.5621 13.7768 12.5152C13.3562 12.4683 12.9307 12.5289 12.54 12.6913C12.1492 12.8537 11.8061 13.1126 11.5428 13.4438L5.00477 9.56978L4.94177 9.53778C5.01987 9.18337 5.01987 8.8162 4.94177 8.46178L4.97977 8.44378L11.7298 4.94378C11.7693 4.92341 11.806 4.89785 11.8388 4.86778C12.1989 5.18797 12.644 5.39723 13.1203 5.47038C13.5967 5.54352 14.084 5.47743 14.5237 5.28005C14.9633 5.08268 15.3365 4.76244 15.5984 4.35789C15.8603 3.95333 15.9997 3.4817 15.9998 2.99978ZM13.4998 1.49978C13.8976 1.49978 14.2791 1.65782 14.5604 1.93912C14.8417 2.22043 14.9998 2.60196 14.9998 2.99978C14.9998 3.39761 14.8417 3.77914 14.5604 4.06044C14.2791 4.34175 13.8976 4.49978 13.4998 4.49978C13.1019 4.49978 12.7204 4.34175 12.4391 4.06044C12.1578 3.77914 11.9998 3.39761 11.9998 2.99978C11.9998 2.60196 12.1578 2.22043 12.4391 1.93912C12.7204 1.65782 13.1019 1.49978 13.4998 1.49978ZM2.49977 7.49978C2.8976 7.49978 3.27913 7.65782 3.56043 7.93912C3.84174 8.22043 3.99977 8.60196 3.99977 8.99978C3.99977 9.39761 3.84174 9.77914 3.56043 10.0604C3.27913 10.3417 2.8976 10.4998 2.49977 10.4998C2.10195 10.4998 1.72041 10.3417 1.43911 10.0604C1.15781 9.77914 0.99977 9.39761 0.99977 8.99978C0.99977 8.60196 1.15781 8.22043 1.43911 7.93912C1.72041 7.65782 2.10195 7.49978 2.49977 7.49978ZM13.4998 13.4998C13.8976 13.4998 14.2791 13.6578 14.5604 13.9391C14.8417 14.2204 14.9998 14.602 14.9998 14.9998C14.9998 15.3976 14.8417 15.7791 14.5604 16.0604C14.2791 16.3417 13.8976 16.4998 13.4998 16.4998C13.1019 16.4998 12.7204 16.3417 12.4391 16.0604C12.1578 15.7791 11.9998 15.3976 11.9998 14.9998C11.9998 14.602 12.1578 14.2204 12.4391 13.9391C12.7204 13.6578 13.1019 13.4998 13.4998 13.4998Z" fill="black"/>
</svg>
