<svg width="48" height="45" viewBox="0 0 48 45" fill="none" xmlns="http://www.w3.org/2000/svg">
<path d="M23.7251 36.4331L36.344 43.8644C36.7148 44.0429 37.059 44.1152 37.3765 44.0813C37.6917 44.0452 37.9988 43.9389 38.2977 43.7627C38.599 43.5818 38.8261 43.3265 38.9791 42.9965C39.132 42.6665 39.1459 42.306 39.0208 41.915L35.6627 27.9814L46.7695 18.5905C47.0823 18.3419 47.2886 18.0447 47.3882 17.6989C47.4879 17.3531 47.4659 17.022 47.3222 16.7056C47.1785 16.3892 46.9873 16.1293 46.7486 15.9259C46.5076 15.7292 46.1831 15.5959 45.7752 15.5258L31.1192 14.2782L25.4041 1.08364C25.2465 0.710725 25.0194 0.441769 24.7228 0.27678C24.4261 0.111791 24.0935 0.0292969 23.7251 0.0292969C23.3566 0.0292969 23.0228 0.111791 22.7239 0.27678C22.4249 0.441769 22.199 0.710725 22.046 1.08364L16.331 14.2782L1.67836 15.5258C1.26816 15.5936 0.942543 15.7281 0.701519 15.9293C0.460499 16.1281 0.268139 16.3869 0.124454 16.7056C-0.0169144 17.022 -0.0377731 17.3531 0.061882 17.6989C0.161533 18.0447 0.367794 18.3419 0.68066 18.5905L11.7874 27.9814L8.42934 41.915C8.29956 42.3015 8.3123 42.6608 8.46758 42.9931C8.62285 43.3253 8.85113 43.5807 9.15241 43.7593C9.44905 43.9401 9.75612 44.0474 10.0736 44.0813C10.3888 44.1152 10.7318 44.0429 11.1026 43.8644L23.7251 36.4331Z" fill="#DCDCDC"/>
</svg>
