<svg width="12" height="11" viewBox="0 0 12 11" fill="none" xmlns="http://www.w3.org/2000/svg">
<path d="M5.923 9.08852L2.77257 10.9438C2.67999 10.9884 2.59407 11.0064 2.5148 10.998C2.43612 10.9889 2.35945 10.9624 2.28481 10.9184C2.2096 10.8733 2.15289 10.8095 2.11471 10.7271C2.07652 10.6447 2.07305 10.5547 2.10429 10.4571L2.94267 6.97848L0.169767 4.63398C0.0916573 4.57191 0.0401626 4.49771 0.0152831 4.41138C-0.00959639 4.32505 -0.00409971 4.24238 0.031773 4.16339C0.0676458 4.08439 0.11538 4.0195 0.174975 3.96872C0.235148 3.91963 0.316151 3.88634 0.417984 3.86884L4.077 3.55737L5.50381 0.263227C5.54316 0.170124 5.59986 0.102977 5.67392 0.0617863C5.74798 0.0205954 5.83101 0 5.923 0C6.015 0 6.09832 0.0205954 6.17296 0.0617863C6.24759 0.102977 6.30401 0.170124 6.34219 0.263227L7.769 3.55737L11.4272 3.86884C11.5296 3.88577 11.6109 3.91934 11.671 3.96956C11.7312 4.01922 11.7792 4.08383 11.8151 4.16339C11.8504 4.24238 11.8556 4.32505 11.8307 4.41138C11.8058 4.49771 11.7544 4.57191 11.6762 4.63398L8.90333 6.97848L9.74172 10.4571C9.77412 10.5536 9.77094 10.6433 9.73217 10.7263C9.6934 10.8092 9.63641 10.873 9.56119 10.9176C9.48713 10.9627 9.41047 10.9895 9.3312 10.998C9.25252 11.0064 9.16688 10.9884 9.07431 10.9438L5.923 9.08852Z" fill="#FDBF18"/>
</svg>
