<svg width="332" height="253" viewBox="0 0 332 253" fill="none" xmlns="http://www.w3.org/2000/svg">
<g filter="url(#filter0_f_2263_5547)">
<ellipse cx="93.5623" cy="70.4196" rx="47.9876" ry="25.1364" fill="#FFFF8D"/>
</g>
<g filter="url(#filter1_f_2263_5547)">
<ellipse cx="238.668" cy="88.7008" rx="47.9876" ry="25.1364" fill="#FFFF8D"/>
</g>
<g filter="url(#filter2_f_2263_5547)">
<ellipse cx="174.684" cy="182.39" rx="47.9876" ry="25.1364" fill="#FFFF8D"/>
</g>
<path d="M177.189 54.2625L194.434 93.5967C195.083 95.0768 196.118 96.3557 197.429 97.2999C198.741 98.2442 200.282 98.8192 201.891 98.9652L243.903 102.732C248.657 103.424 250.553 109.254 247.106 112.61L215.46 139.196C212.897 141.349 211.731 144.731 212.436 147.998L221.635 191.061C222.442 195.789 217.484 199.402 213.23 197.16L176.561 175.686C175.178 174.874 173.603 174.446 172 174.446C170.396 174.446 168.821 174.874 167.438 175.686L130.769 197.147C126.528 199.376 121.557 195.776 122.364 191.048L131.564 147.986C132.255 144.718 131.102 141.336 128.54 139.183L96.8802 112.623C93.4464 109.279 95.3427 103.437 100.083 102.745L142.095 98.978C143.705 98.8321 145.246 98.257 146.557 97.3127C147.869 96.3685 148.903 95.0896 149.552 93.6095L166.798 54.2753C168.938 49.9703 175.062 49.9703 177.189 54.2625Z" fill="#FDD835"/>
<path d="M175.933 95.9555L173.012 66.9737C172.897 65.3593 172.563 62.5918 175.152 62.5918C177.202 62.5918 178.316 66.8583 178.316 66.8583L187.08 90.1258C190.386 98.9792 189.027 102.016 185.837 103.81C182.173 105.86 176.766 104.258 175.933 95.9555Z" fill="#FFFF8D"/>
<path d="M212.077 136.621L237.215 117.006C238.458 115.968 240.7 114.315 238.907 112.432C237.484 110.945 233.641 113.085 233.641 113.085L211.642 121.682C205.082 123.95 200.725 127.307 200.341 131.535C199.841 137.172 204.902 141.516 212.077 136.621Z" fill="#F4B400"/>
<g clip-path="url(#clip0_2263_5547)">
<path d="M270.27 28.8796L269.915 47.0795C269.901 47.7644 270.072 48.4403 270.409 49.0367C270.746 49.6331 271.236 50.1283 271.83 50.4705L287.326 59.3867C289.032 60.4978 288.725 63.0779 286.802 63.757L269.9 68.3619C268.532 68.7347 267.482 69.829 267.172 71.2114L263.059 89.4158C262.529 91.3784 259.979 91.8874 258.741 90.2686L248.448 75.4888C248.06 74.9306 247.53 74.4859 246.913 74.2009C246.296 73.9159 245.614 73.8008 244.938 73.8675L227.014 75.6078C224.986 75.7119 223.713 73.443 224.864 71.7673L236.057 56.8329C236.904 55.6987 237.061 54.1923 236.458 52.9086L228.997 37.062C228.27 35.165 230.038 33.254 231.985 33.8304L248.82 39.8478C249.465 40.0777 250.16 40.1303 250.833 40.0001C251.505 39.8699 252.13 39.5617 252.643 39.1075L266.27 27.0377C267.858 25.7616 270.215 26.8501 270.27 28.8796Z" fill="#FDD835"/>
<path d="M262.377 44.697L266.404 33.0263C266.647 32.3846 267.01 31.2606 268.006 31.7205C268.795 32.0849 268.466 33.9247 268.466 33.9247L267.702 44.435C267.401 48.4291 266.338 49.3561 264.792 49.4792C263.018 49.6168 261.222 48.0396 262.377 44.697Z" fill="#FFFF8D"/>
<path d="M269.057 66.7697L282.215 63.6898C282.878 63.5114 284.035 63.2739 283.679 62.2304C283.396 61.4058 281.537 61.5459 281.537 61.5459L271.544 60.944C268.617 60.6507 266.344 61.1681 265.445 62.7266C264.251 64.807 265.426 67.3777 269.057 66.7697Z" fill="#F4B400"/>
</g>
<g clip-path="url(#clip1_2263_5547)">
<path d="M63.5742 28.8796L63.9294 47.0795C63.9428 47.7644 63.7721 48.4403 63.4353 49.0367C63.0984 49.6331 62.6077 50.1283 62.0144 50.4705L46.5187 59.3867C44.8126 60.4978 45.1191 63.0779 47.0419 63.757L63.9439 68.3619C65.3125 68.7347 66.3623 69.829 66.6718 71.2114L70.7857 89.4158C71.3154 91.3784 73.8654 91.8874 75.1037 90.2686L85.3965 75.4888C85.7843 74.9306 86.3141 74.4859 86.9311 74.2009C87.5482 73.9159 88.2302 73.8008 88.9066 73.8675L106.83 75.6078C108.858 75.7119 110.131 73.443 108.98 71.7673L97.7871 56.8329C96.9403 55.6987 96.7828 54.1923 97.3862 52.9086L104.847 37.062C105.574 35.165 103.806 33.254 101.859 33.8304L85.0246 39.8478C84.3793 40.0777 83.6842 40.1303 83.0117 40.0001C82.3392 39.8699 81.714 39.5617 81.2012 39.1075L67.5746 27.0377C65.9862 25.7616 63.6297 26.8501 63.5742 28.8796Z" fill="#FDD835"/>
<path d="M71.4671 44.697L67.4402 33.0263C67.1976 32.3846 66.8339 31.2606 65.8381 31.7205C65.0493 32.0849 65.3787 33.9247 65.3787 33.9247L66.142 44.435C66.4436 48.4291 67.5059 49.3561 69.0522 49.4792C70.8265 49.6168 72.6223 48.0396 71.4671 44.697Z" fill="#FFFF8D"/>
<path d="M64.7876 66.7697L51.6288 63.6898C50.9661 63.5114 49.8096 63.2739 50.1651 62.2304C50.4481 61.4058 52.3074 61.5459 52.3074 61.5459L62.3 60.944C65.2272 60.6507 67.5 61.1681 68.3994 62.7266C69.5936 64.807 68.4182 67.3777 64.7876 66.7697Z" fill="#F4B400"/>
</g>
<defs>
<filter id="filter0_f_2263_5547" x="0.374706" y="0.0832024" width="186.375" height="140.673" filterUnits="userSpaceOnUse" color-interpolation-filters="sRGB">
<feFlood flood-opacity="0" result="BackgroundImageFix"/>
<feBlend mode="normal" in="SourceGraphic" in2="BackgroundImageFix" result="shape"/>
<feGaussianBlur stdDeviation="22.6" result="effect1_foregroundBlur_2263_5547"/>
</filter>
<filter id="filter1_f_2263_5547" x="145.48" y="18.3645" width="186.375" height="140.673" filterUnits="userSpaceOnUse" color-interpolation-filters="sRGB">
<feFlood flood-opacity="0" result="BackgroundImageFix"/>
<feBlend mode="normal" in="SourceGraphic" in2="BackgroundImageFix" result="shape"/>
<feGaussianBlur stdDeviation="22.6" result="effect1_foregroundBlur_2263_5547"/>
</filter>
<filter id="filter2_f_2263_5547" x="81.4968" y="112.054" width="186.375" height="140.673" filterUnits="userSpaceOnUse" color-interpolation-filters="sRGB">
<feFlood flood-opacity="0" result="BackgroundImageFix"/>
<feBlend mode="normal" in="SourceGraphic" in2="BackgroundImageFix" result="shape"/>
<feGaussianBlur stdDeviation="22.6" result="effect1_foregroundBlur_2263_5547"/>
</filter>
<clipPath id="clip0_2263_5547">
<rect width="69.5095" height="69.5095" fill="white" transform="translate(221.045 21.2891)"/>
</clipPath>
<clipPath id="clip1_2263_5547">
<rect width="69.5095" height="69.5095" fill="white" transform="matrix(-1 0 0 1 112.799 21.2891)"/>
</clipPath>
</defs>
</svg>
