<svg width="557" height="350" viewBox="0 0 557 350" fill="none" xmlns="http://www.w3.org/2000/svg">
<g clip-path="url(#clip0_322_105)">
<path d="M557 143.749H556.059V117.986C556.059 116.027 555.674 114.089 554.924 112.279C554.175 110.47 553.076 108.827 551.691 107.442C550.306 106.057 548.662 104.959 546.852 104.21C545.043 103.46 543.103 103.075 541.144 103.075H486.547C484.588 103.075 482.649 103.46 480.839 104.21C479.03 104.959 477.386 106.057 476.001 107.442C474.616 108.827 473.517 110.47 472.767 112.279C472.018 114.089 471.632 116.027 471.632 117.986V259.323C471.632 261.281 472.018 263.22 472.767 265.029C473.517 266.839 474.616 268.482 476.001 269.867C477.386 271.251 479.03 272.35 480.839 273.099C482.649 273.848 484.588 274.234 486.547 274.234H541.144C543.103 274.234 545.043 273.848 546.852 273.099C548.662 272.35 550.306 271.251 551.691 269.867C553.076 268.482 554.175 266.839 554.924 265.029C555.674 263.22 556.059 261.281 556.059 259.323V162.087H557V143.749Z" fill="#3F3D56"/>
<path d="M552.885 118.861V259.993C552.885 262.947 551.712 265.78 549.622 267.868C547.533 269.957 544.7 271.13 541.745 271.13H486.886C485.423 271.13 483.975 270.842 482.624 270.282C481.272 269.722 480.045 268.902 479.011 267.868C477.977 266.834 477.157 265.606 476.597 264.255C476.038 262.904 475.75 261.456 475.751 259.993V118.861C475.751 115.909 476.924 113.078 479.012 110.99C481.1 108.902 483.933 107.73 486.886 107.729H493.541C493.215 108.533 493.09 109.404 493.18 110.266C493.269 111.129 493.568 111.956 494.052 112.676C494.536 113.395 495.189 113.985 495.954 114.393C496.72 114.801 497.573 115.015 498.441 115.016H529.72C530.588 115.017 531.443 114.805 532.21 114.398C532.976 113.991 533.631 113.401 534.115 112.68C534.599 111.96 534.899 111.131 534.987 110.268C535.075 109.404 534.948 108.533 534.619 107.729H541.745C544.699 107.729 547.532 108.902 549.621 110.989C551.71 113.077 552.884 115.909 552.885 118.861Z" fill="#C2BFFF"/>
<path d="M542.5 179.986H478.727V197.19H542.5V179.986Z" fill="#6C63FF"/>
<path d="M545.03 194.154H483.282C482.88 194.153 482.494 193.993 482.209 193.709C481.924 193.424 481.764 193.038 481.764 192.636V177.456C481.764 177.054 481.924 176.668 482.209 176.383C482.494 176.098 482.88 175.938 483.282 175.938H545.03C545.433 175.938 545.819 176.098 546.103 176.383C546.388 176.668 546.548 177.054 546.549 177.456V192.636C546.548 193.038 546.388 193.424 546.103 193.709C545.819 193.993 545.433 194.153 545.03 194.154ZM483.282 176.95C483.148 176.95 483.019 177.003 482.924 177.098C482.829 177.193 482.776 177.322 482.776 177.456V192.636C482.776 192.77 482.829 192.899 482.924 192.994C483.019 193.088 483.148 193.142 483.282 193.142H545.03C545.165 193.142 545.293 193.088 545.388 192.994C545.483 192.899 545.536 192.77 545.536 192.636V177.456C545.536 177.322 545.483 177.193 545.388 177.098C545.293 177.003 545.165 176.95 545.03 176.95H483.282Z" fill="#3F3D56"/>
<path d="M493.911 189.6H485.813V190.612H493.911V189.6Z" fill="#3F3D56"/>
<path d="M505.046 189.6H496.948V190.612H505.046V189.6Z" fill="#3F3D56"/>
<path d="M516.181 189.6H508.083V190.612H516.181V189.6Z" fill="#3F3D56"/>
<path d="M527.316 189.6H519.218V190.612H527.316V189.6Z" fill="#3F3D56"/>
<path d="M538.451 189.6H530.353V190.612H538.451V189.6Z" fill="#3F3D56"/>
<path opacity="0.1" d="M552.885 245.643V259.994C552.885 262.947 551.712 265.78 549.622 267.868C547.533 269.957 544.7 271.13 541.745 271.13H486.886C485.423 271.13 483.975 270.842 482.624 270.282C481.272 269.722 480.045 268.902 479.011 267.868C477.977 266.834 477.157 265.606 476.597 264.255C476.038 262.904 475.75 261.456 475.751 259.994V193.981L552.885 245.643Z" fill="black"/>
<path d="M289.939 232.609H50.5381V350H289.939V232.609Z" fill="#C2BFFF"/>
<path opacity="0.1" d="M229.077 350H51.5504C51.2821 349.999 51.0251 349.893 50.8354 349.703C50.6458 349.513 50.5389 349.256 50.5381 348.988V233.621C50.5389 233.353 50.6458 233.096 50.8354 232.907C51.0251 232.717 51.2821 232.61 51.5504 232.609H53.7976L229.077 350Z" fill="black"/>
<path d="M532.377 248.295H161.381V249.307H532.377V248.295Z" fill="#3F3D56"/>
<path d="M278.673 2.18476H172.644V0H124.566V2.18476H18.0989C17.157 2.18476 16.2244 2.37022 15.3542 2.73056C14.4841 3.09089 13.6934 3.61904 13.0274 4.28485C12.3614 4.95066 11.8331 5.74109 11.4727 6.61101C11.1123 7.48093 10.9268 8.41331 10.9268 9.35491V154.502C10.9268 156.404 11.6824 158.228 13.0274 159.573C14.3724 160.917 16.1967 161.673 18.0989 161.673H278.673C280.576 161.673 282.4 160.917 283.745 159.573C285.09 158.228 285.845 156.404 285.845 154.502V9.35491C285.845 8.41331 285.66 7.48093 285.3 6.61101C284.939 5.74109 284.411 4.95066 283.745 4.28485C283.079 3.61904 282.288 3.09089 281.418 2.73056C280.548 2.37022 279.615 2.18476 278.673 2.18476Z" fill="#3F3D56"/>
<path d="M276.228 14.8545H20.5447V159.053H276.228V14.8545Z" fill="#C2BFFF"/>
<path d="M148.168 10.9236C149.616 10.9236 150.79 9.74983 150.79 8.3019C150.79 6.85396 149.616 5.68018 148.168 5.68018C146.719 5.68018 145.545 6.85396 145.545 8.3019C145.545 9.74983 146.719 10.9236 148.168 10.9236Z" fill="#6C63FF"/>
<path d="M96.5962 68.667H90.5226C90.12 68.6665 89.734 68.5065 89.4494 68.2219C89.1647 67.9373 89.0046 67.5515 89.0042 67.149V61.0771C89.0046 60.6746 89.1647 60.2888 89.4494 60.0042C89.734 59.7196 90.12 59.5595 90.5226 59.5591H96.5962C96.9987 59.5595 97.3847 59.7196 97.6693 60.0042C97.954 60.2888 98.1141 60.6746 98.1145 61.0771V67.149C98.1141 67.5515 97.954 67.9373 97.6693 68.2219C97.3847 68.5065 96.9987 68.6665 96.5962 68.667ZM90.5226 60.5711C90.3884 60.5712 90.2597 60.6246 90.1649 60.7195C90.07 60.8143 90.0166 60.9429 90.0164 61.0771V67.149C90.0166 67.2831 90.07 67.4117 90.1649 67.5066C90.2597 67.6015 90.3884 67.6548 90.5226 67.655H96.5962C96.7303 67.6548 96.859 67.6015 96.9538 67.5066C97.0487 67.4117 97.1021 67.2831 97.1023 67.149V61.0771C97.1021 60.9429 97.0487 60.8143 96.9538 60.7195C96.859 60.6246 96.7303 60.5712 96.5962 60.5711H90.5226Z" fill="#3F3D56"/>
<path d="M204.909 67.6548H89.5103V68.6668H204.909V67.6548Z" fill="#3F3D56"/>
<path d="M201.872 95.4849H175.047V103.581H201.872V95.4849Z" fill="#6C63FF"/>
<path d="M203.897 101.557H179.096C178.693 101.556 178.308 101.396 178.023 101.112C177.738 100.827 177.578 100.441 177.578 100.039V93.9667C177.578 93.5643 177.738 93.1784 178.023 92.8938C178.308 92.6092 178.693 92.4492 179.096 92.4487H203.897C204.299 92.4492 204.685 92.6092 204.97 92.8938C205.254 93.1784 205.415 93.5643 205.415 93.9667V100.039C205.415 100.441 205.254 100.827 204.97 101.112C204.685 101.396 204.299 101.556 203.897 101.557ZM179.096 93.4607C178.962 93.4609 178.833 93.5143 178.738 93.6091C178.643 93.704 178.59 93.8326 178.59 93.9667V100.039C178.59 100.173 178.643 100.301 178.738 100.396C178.833 100.491 178.962 100.544 179.096 100.545H203.897C204.031 100.544 204.159 100.491 204.254 100.396C204.349 100.301 204.403 100.173 204.403 100.039V93.9667C204.403 93.8326 204.349 93.704 204.254 93.6091C204.159 93.5143 204.031 93.4609 203.897 93.4607H179.096Z" fill="#3F3D56"/>
<path d="M406.856 104.593H356.243V140.012H406.856V104.593Z" fill="#6C63FF"/>
<path d="M411.917 137.229H363.328C362.792 137.229 362.277 137.015 361.898 136.636C361.518 136.256 361.305 135.742 361.304 135.205V101.81C361.305 101.273 361.518 100.759 361.898 100.379C362.277 99.9996 362.792 99.7862 363.328 99.7856H411.917C412.454 99.7862 412.969 99.9996 413.348 100.379C413.728 100.759 413.941 101.273 413.942 101.81V135.205C413.941 135.742 413.728 136.256 413.348 136.636C412.969 137.015 412.454 137.229 411.917 137.229ZM363.328 101.81V135.205H411.919L411.917 101.81H363.328Z" fill="#3F3D56"/>
<path d="M406.35 100.545H404.325C404.325 96.116 402.566 91.8689 399.433 88.7374C396.301 85.606 392.053 83.8467 387.623 83.8467C383.193 83.8467 378.945 85.606 375.813 88.7374C372.68 91.8689 370.921 96.116 370.921 100.545H368.896C368.896 95.5792 370.869 90.8173 374.381 87.3062C377.893 83.7952 382.656 81.8228 387.623 81.8228C392.59 81.8228 397.353 83.7952 400.865 87.3062C404.377 90.8173 406.35 95.5792 406.35 100.545Z" fill="#3F3D56"/>
<path d="M392.684 114.459C392.685 113.578 392.456 112.712 392.019 111.947C391.583 111.181 390.954 110.543 390.195 110.096C389.436 109.648 388.573 109.406 387.691 109.394C386.81 109.382 385.941 109.6 385.17 110.027C384.399 110.454 383.753 111.075 383.296 111.828C382.838 112.582 382.586 113.441 382.563 114.322C382.54 115.203 382.748 116.074 383.165 116.85C383.583 117.626 384.196 118.28 384.943 118.747V124.178C384.943 124.529 385.013 124.878 385.147 125.203C385.282 125.528 385.479 125.823 385.728 126.072C385.977 126.32 386.272 126.518 386.597 126.652C386.923 126.787 387.271 126.856 387.623 126.856C388.333 126.856 389.015 126.574 389.518 126.072C390.02 125.569 390.302 124.888 390.302 124.178V118.747C391.031 118.293 391.632 117.661 392.049 116.911C392.465 116.161 392.684 115.317 392.684 114.459Z" fill="#3F3D56"/>
<path d="M152.018 284.727H143.92V285.739H152.018V284.727Z" fill="#3F3D56"/>
<path d="M163.153 284.727H155.055V285.739H163.153V284.727Z" fill="#3F3D56"/>
<path d="M174.288 284.727H166.189V285.739H174.288V284.727Z" fill="#3F3D56"/>
<path d="M185.423 284.727H177.324V285.739H185.423V284.727Z" fill="#3F3D56"/>
<path d="M196.558 284.727H188.459V285.739H196.558V284.727Z" fill="#3F3D56"/>
<path d="M300.568 341.398H63.1915C62.6548 341.398 62.1401 341.184 61.7606 340.805C61.381 340.425 61.1676 339.911 61.167 339.374V224.007C61.1676 223.471 61.381 222.956 61.7606 222.577C62.1401 222.197 62.6548 221.984 63.1915 221.983H300.568C301.105 221.984 301.619 222.197 301.999 222.577C302.378 222.956 302.592 223.471 302.592 224.007V339.374C302.592 339.911 302.378 340.425 301.999 340.805C301.619 341.184 301.105 341.398 300.568 341.398ZM63.1915 224.007V339.374H300.569L300.568 224.007H63.1915Z" fill="#3F3D56"/>
<path d="M73.8202 241.211C75.4974 241.211 76.857 239.852 76.857 238.175C76.857 236.498 75.4974 235.139 73.8202 235.139C72.1431 235.139 70.7834 236.498 70.7834 238.175C70.7834 239.852 72.1431 241.211 73.8202 241.211Z" fill="#3F3D56"/>
<path d="M84.4489 241.211C86.1261 241.211 87.4857 239.852 87.4857 238.175C87.4857 236.498 86.1261 235.139 84.4489 235.139C82.7717 235.139 81.4121 236.498 81.4121 238.175C81.4121 239.852 82.7717 241.211 84.4489 241.211Z" fill="#3F3D56"/>
<path d="M95.0778 241.211C96.755 241.211 98.1146 239.852 98.1146 238.175C98.1146 236.498 96.755 235.139 95.0778 235.139C93.4006 235.139 92.041 236.498 92.041 238.175C92.041 239.852 93.4006 241.211 95.0778 241.211Z" fill="#3F3D56"/>
<path d="M204.403 291.811H136.075C135.672 291.81 135.286 291.65 135.001 291.365C134.717 291.081 134.557 290.695 134.556 290.293V273.089C134.557 272.686 134.717 272.3 135.001 272.016C135.286 271.731 135.672 271.571 136.075 271.571H204.403C204.805 271.571 205.191 271.731 205.476 272.016C205.76 272.3 205.921 272.686 205.921 273.089V290.293C205.921 290.695 205.76 291.081 205.476 291.365C205.191 291.65 204.805 291.81 204.403 291.811ZM136.075 272.583C135.94 272.583 135.812 272.636 135.717 272.731C135.622 272.826 135.569 272.955 135.568 273.089V290.293C135.569 290.427 135.622 290.555 135.717 290.65C135.812 290.745 135.94 290.798 136.075 290.799H204.403C204.537 290.798 204.665 290.745 204.76 290.65C204.855 290.555 204.909 290.427 204.909 290.293V273.089C204.909 272.955 204.855 272.826 204.76 272.731C204.665 272.636 204.537 272.583 204.403 272.583H136.075Z" fill="#3F3D56"/>
<path d="M221.611 292.316C226.643 292.316 230.722 288.239 230.722 283.208C230.722 278.178 226.643 274.101 221.611 274.101C216.58 274.101 212.501 278.178 212.501 283.208C212.501 288.239 216.58 292.316 221.611 292.316Z" fill="#6C63FF"/>
<path d="M224.648 291.304C222.746 291.304 220.887 290.741 219.305 289.684C217.724 288.628 216.491 287.126 215.764 285.37C215.036 283.613 214.845 281.68 215.216 279.815C215.587 277.95 216.503 276.237 217.848 274.893C219.193 273.548 220.907 272.632 222.772 272.261C224.637 271.89 226.571 272.081 228.328 272.808C230.085 273.536 231.587 274.768 232.644 276.349C233.701 277.93 234.265 279.789 234.265 281.691C234.262 284.239 233.248 286.683 231.445 288.485C229.642 290.288 227.198 291.302 224.648 291.304ZM224.648 273.089C222.946 273.089 221.283 273.593 219.868 274.538C218.453 275.484 217.35 276.827 216.699 278.399C216.047 279.971 215.877 281.7 216.209 283.369C216.541 285.037 217.361 286.57 218.564 287.773C219.767 288.976 221.3 289.795 222.969 290.127C224.638 290.459 226.369 290.289 227.941 289.638C229.513 288.987 230.857 287.884 231.802 286.47C232.748 285.055 233.252 283.392 233.252 281.691C233.25 279.41 232.342 277.224 230.729 275.611C229.116 273.998 226.929 273.091 224.648 273.089Z" fill="#3F3D56"/>
<path d="M224.783 285.282L219.883 280.382L221.314 278.952L224.513 282.148L233.437 269.47L235.092 270.636L224.783 285.282Z" fill="#3F3D56"/>
<path opacity="0.1" d="M219.541 159.053H20.5444V25.7788L219.541 159.053Z" fill="black"/>
<path d="M293.025 156.429H268.071V154.632C268.071 154.585 268.062 154.539 268.044 154.495C268.026 154.452 268 154.413 267.967 154.38C267.934 154.347 267.894 154.32 267.851 154.303C267.808 154.285 267.762 154.275 267.715 154.275H259.159C259.113 154.275 259.066 154.285 259.023 154.303C258.98 154.32 258.94 154.347 258.907 154.38C258.874 154.413 258.848 154.452 258.83 154.495C258.812 154.539 258.803 154.585 258.803 154.632V156.429H253.456V154.632C253.456 154.585 253.446 154.539 253.429 154.495C253.411 154.452 253.384 154.413 253.351 154.38C253.318 154.347 253.279 154.32 253.236 154.303C253.192 154.285 253.146 154.275 253.099 154.275H244.544C244.497 154.275 244.451 154.285 244.407 154.303C244.364 154.32 244.325 154.347 244.292 154.38C244.259 154.413 244.232 154.452 244.214 154.495C244.196 154.539 244.187 154.585 244.187 154.632V156.429H238.84V154.632C238.84 154.585 238.831 154.539 238.813 154.495C238.795 154.452 238.769 154.413 238.736 154.38C238.703 154.347 238.663 154.32 238.62 154.303C238.577 154.285 238.53 154.275 238.484 154.275H229.928C229.881 154.275 229.835 154.285 229.792 154.303C229.749 154.32 229.709 154.347 229.676 154.38C229.643 154.413 229.617 154.452 229.599 154.495C229.581 154.539 229.572 154.585 229.572 154.632V156.429H224.225V154.632C224.225 154.585 224.215 154.539 224.197 154.495C224.179 154.452 224.153 154.413 224.12 154.38C224.087 154.347 224.048 154.32 224.004 154.303C223.961 154.285 223.915 154.275 223.868 154.275H215.313C215.266 154.275 215.219 154.285 215.176 154.303C215.133 154.32 215.094 154.347 215.061 154.38C215.027 154.413 215.001 154.452 214.983 154.495C214.965 154.539 214.956 154.585 214.956 154.632V156.429H209.609V154.632C209.609 154.585 209.6 154.539 209.582 154.495C209.564 154.452 209.538 154.413 209.505 154.38C209.471 154.347 209.432 154.32 209.389 154.303C209.346 154.285 209.299 154.275 209.252 154.275H200.697C200.65 154.275 200.604 154.285 200.561 154.303C200.517 154.32 200.478 154.347 200.445 154.38C200.412 154.413 200.386 154.452 200.368 154.495C200.35 154.539 200.34 154.585 200.34 154.632V156.429H194.993V154.632C194.993 154.585 194.984 154.539 194.966 154.495C194.948 154.452 194.922 154.413 194.889 154.38C194.856 154.347 194.817 154.32 194.773 154.303C194.73 154.285 194.684 154.275 194.637 154.275H186.081C186.035 154.275 185.988 154.285 185.945 154.303C185.902 154.32 185.862 154.347 185.829 154.38C185.796 154.413 185.77 154.452 185.752 154.495C185.734 154.539 185.725 154.585 185.725 154.632V156.429H180.378V154.632C180.378 154.585 180.369 154.539 180.351 154.495C180.333 154.452 180.306 154.413 180.273 154.38C180.24 154.347 180.201 154.32 180.158 154.303C180.114 154.285 180.068 154.275 180.021 154.275H113.003C112.957 154.275 112.91 154.285 112.867 154.303C112.824 154.32 112.784 154.347 112.751 154.38C112.718 154.413 112.692 154.452 112.674 154.495C112.656 154.539 112.647 154.585 112.647 154.632V156.429H107.3V154.632C107.3 154.585 107.291 154.539 107.273 154.495C107.255 154.452 107.228 154.413 107.195 154.38C107.162 154.347 107.123 154.32 107.08 154.303C107.036 154.285 106.99 154.275 106.943 154.275H98.3879C98.341 154.275 98.2947 154.285 98.2514 154.303C98.2082 154.32 98.1689 154.347 98.1358 154.38C98.1027 154.413 98.0764 154.452 98.0585 154.495C98.0406 154.539 98.0314 154.585 98.0314 154.632V156.429H92.6842V154.632C92.6842 154.585 92.675 154.539 92.6571 154.495C92.6392 154.452 92.6129 154.413 92.5798 154.38C92.5467 154.347 92.5074 154.32 92.4642 154.303C92.4209 154.285 92.3746 154.275 92.3277 154.275H83.7723C83.7255 154.275 83.6791 154.285 83.6359 154.303C83.5926 154.32 83.5533 154.347 83.5202 154.38C83.4871 154.413 83.4608 154.452 83.4429 154.495C83.425 154.539 83.4158 154.585 83.4158 154.632V156.429H78.0686V154.632C78.0686 154.585 78.0594 154.539 78.0415 154.495C78.0236 154.452 77.9973 154.413 77.9642 154.38C77.9311 154.347 77.8918 154.32 77.8486 154.303C77.8053 154.285 77.759 154.275 77.7122 154.275H69.1567C69.1099 154.275 69.0635 154.285 69.0203 154.303C68.977 154.32 68.9377 154.347 68.9046 154.38C68.8715 154.413 68.8453 154.452 68.8274 154.495C68.8094 154.539 68.8002 154.585 68.8002 154.632V156.429H63.453V154.632C63.453 154.585 63.4438 154.539 63.4259 154.495C63.408 154.452 63.3817 154.413 63.3486 154.38C63.3155 154.347 63.2762 154.32 63.233 154.303C63.1897 154.285 63.1434 154.275 63.0966 154.275H54.5411C54.4943 154.275 54.4479 154.285 54.4047 154.303C54.3614 154.32 54.3221 154.347 54.289 154.38C54.2559 154.413 54.2297 154.452 54.2117 154.495C54.1938 154.539 54.1846 154.585 54.1846 154.632V156.429H48.8375V154.632C48.8375 154.585 48.8283 154.539 48.8103 154.495C48.7924 154.452 48.7662 154.413 48.7331 154.38C48.7 154.347 48.6607 154.32 48.6174 154.303C48.5742 154.285 48.5278 154.275 48.481 154.275H39.9255C39.8787 154.275 39.8323 154.285 39.7891 154.303C39.7458 154.32 39.7065 154.347 39.6734 154.38C39.6403 154.413 39.6141 154.452 39.5962 154.495C39.5783 154.539 39.569 154.585 39.569 154.632V156.429H34.2219V154.632C34.2219 154.585 34.2126 154.539 34.1947 154.495C34.1768 154.452 34.1506 154.413 34.1175 154.38C34.0844 154.347 34.0451 154.32 34.0018 154.303C33.9586 154.285 33.9122 154.275 33.8654 154.275H25.3099C25.2631 154.275 25.2168 154.285 25.1735 154.303C25.1303 154.32 25.091 154.347 25.0578 154.38C25.0247 154.413 24.9985 154.452 24.9806 154.495C24.9627 154.539 24.9534 154.585 24.9534 154.632V156.429H8.55546C7.43194 156.429 6.31943 156.65 5.28143 157.08C4.24343 157.51 3.30028 158.14 2.50584 158.934C1.71139 159.729 1.0812 160.671 0.651244 161.709C0.221292 162.747 -6.64662e-07 163.859 0 164.982V168.85C5.36939e-06 171.118 0.901385 173.294 2.50584 174.898C4.11031 176.502 6.28642 177.403 8.55546 177.403H293.025C294.148 177.403 295.261 177.182 296.299 176.752C297.337 176.322 298.28 175.692 299.074 174.898C299.869 174.104 300.499 173.161 300.929 172.123C301.359 171.085 301.58 169.973 301.58 168.85V164.982C301.58 163.859 301.359 162.747 300.929 161.709C300.499 160.671 299.869 159.729 299.074 158.934C298.28 158.14 297.337 157.51 296.299 157.08C295.261 156.65 294.148 156.429 293.025 156.429Z" fill="#3F3D56"/>
<path d="M215.031 110.158H81.4122C81.0096 110.158 80.6237 109.998 80.339 109.713C80.0544 109.429 79.8942 109.043 79.8938 108.64V52.9809C79.8942 52.5784 80.0544 52.1926 80.339 51.908C80.6237 51.6234 81.0096 51.4633 81.4122 51.4629H215.031C215.434 51.4633 215.82 51.6234 216.105 51.908C216.389 52.1926 216.549 52.5784 216.55 52.9809V108.64C216.549 109.043 216.389 109.429 216.105 109.713C215.82 109.998 215.434 110.158 215.031 110.158ZM81.4122 52.4749C81.278 52.4751 81.1494 52.5284 81.0545 52.6233C80.9596 52.7181 80.9062 52.8467 80.9061 52.9809V108.64C80.9062 108.774 80.9596 108.903 81.0545 108.998C81.1494 109.093 81.278 109.146 81.4122 109.146H215.031C215.166 109.146 215.294 109.093 215.389 108.998C215.484 108.903 215.537 108.774 215.538 108.64V52.9809C215.537 52.8467 215.484 52.7181 215.389 52.6233C215.294 52.5284 215.166 52.4751 215.031 52.4749H81.4122Z" fill="#3F3D56"/>
<path d="M96.5962 83.8467H90.5226C90.12 83.8462 89.734 83.6862 89.4494 83.4016C89.1647 83.117 89.0046 82.7312 89.0042 82.3287V76.2568C89.0046 75.8543 89.1647 75.4684 89.4494 75.1839C89.734 74.8993 90.12 74.7392 90.5226 74.7388H96.5962C96.9987 74.7392 97.3847 74.8993 97.6693 75.1839C97.954 75.4684 98.1141 75.8543 98.1145 76.2568V82.3287C98.1141 82.7312 97.954 83.117 97.6693 83.4016C97.3847 83.6862 96.9987 83.8462 96.5962 83.8467ZM90.5226 75.7508C90.3884 75.7509 90.2597 75.8043 90.1649 75.8992C90.07 75.994 90.0166 76.1226 90.0164 76.2568V82.3287C90.0166 82.4628 90.07 82.5914 90.1649 82.6863C90.2597 82.7812 90.3884 82.8345 90.5226 82.8347H96.5962C96.7303 82.8345 96.859 82.7812 96.9538 82.6863C97.0487 82.5914 97.1021 82.4628 97.1023 82.3287V76.2568C97.1021 76.1226 97.0487 75.994 96.9538 75.8992C96.859 75.8043 96.7303 75.7509 96.5962 75.7508H90.5226Z" fill="#3F3D56"/>
<path d="M204.909 82.835H89.5103V83.847H204.909V82.835Z" fill="#3F3D56"/>
<path d="M505.046 136.47H134.05V137.482H505.046V136.47Z" fill="#3F3D56"/>
<path d="M134.05 143.554C137.963 143.554 141.136 140.382 141.136 136.47C141.136 132.558 137.963 129.386 134.05 129.386C130.137 129.386 126.964 132.558 126.964 136.47C126.964 140.382 130.137 143.554 134.05 143.554Z" fill="#3F3D56"/>
<path d="M505.046 143.048C508.121 143.048 510.613 140.556 510.613 137.482C510.613 134.408 508.121 131.917 505.046 131.917C501.971 131.917 499.478 134.408 499.478 137.482C499.478 140.556 501.971 143.048 505.046 143.048Z" fill="#3F3D56"/>
<path d="M532.377 254.873C535.452 254.873 537.945 252.381 537.945 249.307C537.945 246.233 535.452 243.741 532.377 243.741C529.302 243.741 526.81 246.233 526.81 249.307C526.81 252.381 529.302 254.873 532.377 254.873Z" fill="#3F3D56"/>
<path d="M162.9 254.873C165.975 254.873 168.467 252.381 168.467 249.307C168.467 246.233 165.975 243.741 162.9 243.741C159.825 243.741 157.332 246.233 157.332 249.307C157.332 252.381 159.825 254.873 162.9 254.873Z" fill="#3F3D56"/>
</g>
<defs>
<clipPath id="clip0_322_105">
<rect width="557" height="350" fill="white"/>
</clipPath>
</defs>
</svg>
