<svg width="571" height="380" viewBox="0 0 571 380" fill="none" xmlns="http://www.w3.org/2000/svg">
<g clip-path="url(#clip0_325_693)">
<path d="M204.818 218.693C224.386 184.222 261.713 157.754 301.226 160.304C272.08 192.044 255.084 233.085 253.246 276.165C252.597 292.782 253.603 311.331 242.585 323.774C235.73 331.516 225.252 335.266 214.949 336.052C204.646 336.838 194.345 334.974 184.18 333.118L181.714 333.876C180.775 294.236 185.249 253.164 204.818 218.693Z" fill="#B7B3FF"/>
<path d="M301.286 161.134C272.066 175.22 247.151 198.746 231.856 227.437C228.549 233.64 225.734 240.22 224.506 247.178C223.277 254.139 224.135 260.765 226.51 267.376C228.68 273.42 231.599 279.351 232.265 285.818C232.966 292.635 230.462 299.009 225.953 304.067C220.437 310.257 213.029 314.092 205.654 317.591C197.466 321.475 188.899 325.38 183.1 332.629C182.397 333.508 181.077 332.365 181.779 331.488C191.869 318.874 209.141 316.503 221.118 306.343C226.707 301.601 230.903 295.145 230.638 287.58C230.406 280.964 227.401 274.846 225.151 268.745C222.788 262.339 221.609 255.898 222.457 249.069C223.324 242.082 225.888 235.378 229.022 229.117C236.089 214.999 245.761 202.037 256.841 190.832C269.575 177.952 284.416 167.349 300.72 159.481C301.73 158.994 302.288 160.651 301.286 161.134Z" fill="white"/>
<path d="M236.336 217.848C231.856 214.568 228.687 209.8 227.394 204.396C226.1 198.992 226.768 193.304 229.276 188.347C229.787 187.346 231.365 188.094 230.853 189.096C228.509 193.708 227.888 199.007 229.102 204.036C230.317 209.066 233.287 213.496 237.476 216.525C238.386 217.184 237.24 218.504 236.336 217.848Z" fill="white"/>
<path d="M225.006 264.456C236.23 262.814 246.424 256.995 253.555 248.161C254.261 247.285 255.581 248.428 254.876 249.303C247.438 258.482 236.818 264.516 225.133 266.199C224.02 266.359 223.898 264.615 225.006 264.456Z" fill="white"/>
<path d="M270.437 180.103C271.906 181.733 273.757 182.973 275.823 183.711C277.889 184.448 280.105 184.66 282.273 184.328C283.384 184.155 283.505 185.899 282.401 186.071C280.004 186.427 277.556 186.19 275.272 185.38C272.988 184.57 270.936 183.212 269.297 181.426C269.128 181.27 269.025 181.056 269.008 180.827C268.991 180.598 269.062 180.372 269.206 180.193C269.358 180.019 269.573 179.911 269.803 179.894C270.034 179.878 270.262 179.952 270.437 180.103Z" fill="white"/>
<path d="M379.847 269.047C379.156 269.176 378.465 269.304 377.768 269.445C368.49 271.218 359.371 273.742 350.501 276.993C349.811 277.234 349.116 277.488 348.434 277.748C327.148 285.809 307.541 297.757 290.61 312.986C283.879 319.052 277.618 325.622 271.882 332.639C263.961 342.331 256.142 353.47 245.791 359.789C244.718 360.46 243.605 361.065 242.458 361.598L182.829 336.83C182.721 336.706 182.608 336.595 182.5 336.47L180.074 335.59C180.344 335.207 180.633 334.816 180.904 334.434C181.06 334.211 181.229 333.994 181.385 333.772C181.493 333.625 181.602 333.478 181.692 333.34C181.728 333.291 181.764 333.242 181.794 333.207C181.884 333.068 181.981 332.949 182.065 332.824C183.673 330.634 185.3 328.452 186.945 326.277C186.951 326.263 186.951 326.263 186.97 326.255C199.546 309.715 213.611 294.08 229.599 281.081C230.081 280.69 230.567 280.285 231.075 279.906C238.314 274.086 246.016 268.869 254.104 264.306C258.541 261.822 263.1 259.564 267.765 257.541C279.828 252.339 292.633 249.068 305.711 247.85C331.781 245.426 358.336 251.378 378.331 267.779C378.843 268.199 379.341 268.614 379.847 269.047Z" fill="#B7B3FF"/>
<path d="M379.399 269.75C347.599 263.38 313.562 267.142 284.1 280.828C277.73 283.788 271.526 287.344 266.362 292.159C261.196 296.976 257.898 302.784 255.819 309.495C253.918 315.629 252.683 322.124 249.326 327.689C245.788 333.555 239.956 337.134 233.314 338.455C225.189 340.071 216.968 338.667 208.976 337.014C200.103 335.179 190.915 333.132 181.926 335.423C180.837 335.701 180.47 333.992 181.558 333.715C197.198 329.728 212.414 338.248 228.086 337.357C235.399 336.941 242.631 334.315 246.968 328.115C250.76 322.693 252.04 315.996 253.911 309.769C255.875 303.229 258.807 297.376 263.59 292.434C268.482 287.378 274.561 283.571 280.827 280.462C294.958 273.45 310.474 268.932 326.057 266.666C343.968 264.06 362.193 264.541 379.942 268.089C381.04 268.309 380.49 269.968 379.399 269.75Z" fill="white"/>
<path d="M293.442 275.874C291.838 270.554 292.174 264.836 294.39 259.742C296.607 254.647 300.559 250.508 305.542 248.062C306.552 247.571 307.362 249.12 306.351 249.612C301.706 251.88 298.025 255.737 295.971 260.485C293.916 265.233 293.625 270.56 295.148 275.505C295.478 276.58 293.77 276.942 293.442 275.874Z" fill="white"/>
<path d="M256.373 306.257C266.323 311.713 277.961 313.213 288.966 310.459C290.056 310.185 290.423 311.893 289.334 312.167C277.877 315.012 265.769 313.426 255.428 307.726C254.442 307.182 255.394 305.716 256.373 306.257Z" fill="white"/>
<path d="M343.364 266.296C343.557 268.484 344.289 270.589 345.495 272.424C346.701 274.258 348.343 275.764 350.274 276.806C351.266 277.337 350.313 278.802 349.328 278.275C347.2 277.114 345.389 275.448 344.052 273.425C342.715 271.401 341.893 269.08 341.658 266.665C341.617 266.439 341.663 266.206 341.787 266.013C341.912 265.82 342.105 265.682 342.327 265.626C342.553 265.579 342.789 265.622 342.983 265.748C343.177 265.873 343.314 266.07 343.364 266.296Z" fill="white"/>
<path d="M266.256 309.91C257.905 269.475 247.466 255.994 247.466 255.994L243.479 252.897L238.683 249.167L238.706 248.687L237.568 248.3L237.301 248.092L236.863 247.755L236.793 247.831L236.644 247.985L214.943 240.598L187.411 231.234L174.662 214.639C172.586 211.937 169.913 209.752 166.853 208.257C163.792 206.763 160.427 205.998 157.022 206.023L116.307 206.325C110.801 206.366 105.51 208.467 101.474 212.216L74.712 237.075L33.0117 257.018L32.9413 256.948L32.5034 257.261L26.0604 260.346L26.3262 261.732L22.3384 264.614C22.3384 264.614 11.8996 277.158 3.54862 314.782C1.42422 324.355 0.378506 344.891 0.0010607 370.197C-0.0178983 371.478 0.217469 372.749 0.693472 373.937C1.16947 375.125 1.87662 376.207 2.77379 377.119C3.67096 378.031 4.74025 378.755 5.91949 379.25C7.09873 379.745 8.3644 380 9.6429 380H232.372L260.172 380C261.449 379.999 262.714 379.745 263.893 379.251C265.071 378.757 266.14 378.033 267.037 377.122C267.934 376.211 268.641 375.131 269.118 373.944C269.595 372.757 269.831 371.487 269.814 370.207C269.445 342.671 268.4 320.292 266.256 309.91Z" fill="#3F3D56"/>
<path d="M294.833 35.2627C286.168 35.2627 277.857 38.7099 271.73 44.8458C265.603 50.9818 262.16 59.304 262.16 67.9816C262.16 76.6592 265.603 84.9814 271.73 91.1174C277.857 97.2534 286.168 100.701 294.833 100.701H538.327C546.992 100.701 555.303 97.2534 561.43 91.1174C567.558 84.9814 571 76.6592 571 67.9816C571 59.304 567.558 50.9818 561.43 44.8458C555.303 38.7099 546.992 35.2627 538.327 35.2627H294.833Z" fill="#E5E5E5"/>
<path d="M294.833 41.8843C287.922 41.8843 281.293 44.6338 276.405 49.528C271.518 54.4222 268.772 61.0601 268.772 67.9815C268.772 74.903 271.518 81.5409 276.405 86.4351C281.293 91.3293 287.922 94.0788 294.833 94.0788H538.327C545.238 94.0788 551.867 91.3293 556.754 86.4351C561.642 81.5409 564.388 74.903 564.388 67.9815C564.388 61.0601 561.642 54.4222 556.754 49.528C551.867 44.6338 545.238 41.8843 538.327 41.8843H294.833Z" fill="white"/>
<path d="M143.059 190.705C172.519 190.705 196.401 166.79 196.401 137.289C196.401 107.788 172.519 83.8726 143.059 83.8726C113.599 83.8726 89.7168 107.788 89.7168 137.289C89.7168 166.79 113.599 190.705 143.059 190.705Z" fill="#9E616A"/>
<path d="M129.413 188.09C129.185 187.588 128.958 187.084 128.731 186.578C128.818 186.58 128.905 186.593 128.992 186.595L129.413 188.09Z" fill="#2F2E41"/>
<path d="M88.2331 86.3017C90.931 84.1465 94.0842 82.1635 97.5335 82.275C100.983 82.3863 104.481 85.506 103.766 88.887C110.102 77.6535 120.186 69.0135 132.249 64.4838C144.313 59.9541 157.584 59.8241 169.733 64.1166C178.306 67.1454 186.713 73.2049 188.682 82.0923C189.188 84.3737 189.297 86.8753 190.719 88.7279C192.513 91.0636 195.944 91.592 198.77 90.7703C198.798 90.7621 198.826 90.7538 198.854 90.7454C199.332 90.5821 199.847 90.5661 200.334 90.6993C200.82 90.8325 201.256 91.1088 201.584 91.4926C201.912 91.8763 202.117 92.3498 202.173 92.8517C202.23 93.3537 202.134 93.861 201.9 94.3081L199.474 98.8384C202.532 99.5209 205.709 99.4533 208.735 98.6412C209.238 98.5091 209.769 98.5361 210.256 98.7183C210.742 98.9005 211.161 99.2291 211.454 99.659C211.747 100.089 211.9 100.599 211.892 101.119C211.884 101.64 211.715 102.145 211.409 102.565C203.411 113.562 190.048 120.663 176.411 120.58C166.719 120.521 156.928 117.176 147.495 119.408C143.846 120.271 140.436 121.942 137.516 124.297C134.596 126.652 132.239 129.632 130.619 133.018C128.999 136.404 128.156 140.111 128.153 143.866C128.15 147.62 128.987 151.328 130.601 154.717C127.703 151.543 122.102 152.295 119.138 155.407C116.174 158.518 115.406 163.163 115.705 167.453C116.162 174.015 118.729 180.198 121.435 186.215C98.7444 185.5 77.2824 169.56 70.0583 148.002C62.8039 126.352 70.4067 100.542 88.2331 86.3017Z" fill="#2F2E41"/>
<path opacity="0.2" d="M52.502 297.702L67.4631 379.217L76.4402 380L52.502 297.702Z" fill="black"/>
<path opacity="0.2" d="M217.303 291.555L202.341 379.158L193.364 380L217.303 291.555Z" fill="black"/>
<path d="M100.994 58.8681C98.1255 60.0676 95.1323 58.753 93.8769 55.7426C92.6024 52.6861 93.7928 49.5833 96.7074 48.3646C99.6222 47.1457 102.562 48.4635 103.857 51.5693C105.133 54.6285 103.955 57.6298 100.994 58.8681ZM95.4991 42.3484L93.2182 43.3021C92.6484 43.5375 92.0112 43.5502 91.4325 43.3377C90.8538 43.1251 90.3758 42.7028 90.0932 42.1543L89.9804 41.9333C87.5262 37.5011 87.2452 32.1144 89.1496 25.9312C90.9138 20.3845 91.6465 16.4836 90.1729 12.9496C88.4691 8.86357 84.8309 7.58363 80.1914 9.43778C78.3919 10.1902 77.8193 10.1782 76.4033 11.5849C76.0952 11.8947 75.7281 12.1391 75.3237 12.3036C74.9193 12.4682 74.4859 12.5495 74.0495 12.5428C73.6275 12.5378 73.2109 12.4478 72.8245 12.2781C72.438 12.1084 72.0897 11.8626 71.8002 11.5551C71.2424 10.9627 70.9299 10.1804 70.9258 9.36626C70.9217 8.55208 71.2263 7.76666 71.7781 7.16864C74.1582 4.67357 77.029 2.69965 80.2093 1.37145C90.1777 -2.79683 95.1959 3.35703 97.4922 8.86417C99.7384 14.2508 98.4749 19.2487 96.4448 25.7214C94.7435 31.0998 94.8426 35.0852 96.7751 39.0479C96.9146 39.3475 96.9923 39.6722 97.0033 40.0026C97.0144 40.333 96.9587 40.6622 96.8395 40.9704C96.7203 41.2787 96.5401 41.5596 96.3098 41.7964C96.0795 42.0332 95.8037 42.221 95.4991 42.3484Z" fill="#6C63FF"/>
<path d="M348.618 83.5861H300.172C300.018 83.5872 299.865 83.5577 299.723 83.4995C299.58 83.4412 299.451 83.3553 299.342 83.2467C299.232 83.1381 299.146 83.0089 299.087 82.8666C299.028 82.7243 298.997 82.5717 298.997 82.4176C298.997 82.2634 299.028 82.1109 299.087 81.9686C299.146 81.8263 299.232 81.6971 299.342 81.5885C299.451 81.4799 299.58 81.394 299.723 81.3357C299.865 81.2775 300.018 81.248 300.172 81.2491H348.618C348.926 81.2511 349.221 81.3752 349.438 81.5941C349.655 81.813 349.777 82.109 349.777 82.4176C349.777 82.7261 349.655 83.0221 349.438 83.2411C349.221 83.46 348.926 83.584 348.618 83.5861Z" fill="#6C63FF"/>
<path d="M410.075 83.9758H361.628C361.475 83.9768 361.322 83.9474 361.179 83.8891C361.037 83.8309 360.907 83.745 360.798 83.6363C360.689 83.5277 360.602 83.3986 360.543 83.2563C360.484 83.114 360.454 82.9614 360.454 82.8072C360.454 82.6531 360.484 82.5005 360.543 82.3582C360.602 82.2159 360.689 82.0867 360.798 81.9781C360.907 81.8695 361.037 81.7836 361.179 81.7254C361.322 81.6671 361.475 81.6377 361.628 81.6387H410.075C410.229 81.6377 410.381 81.6671 410.524 81.7254C410.666 81.7836 410.796 81.8695 410.905 81.9781C411.014 82.0867 411.101 82.2159 411.16 82.3582C411.219 82.5005 411.25 82.6531 411.25 82.8072C411.25 82.9614 411.219 83.114 411.16 83.2563C411.101 83.3986 411.014 83.5277 410.905 83.6363C410.796 83.745 410.666 83.8309 410.524 83.8891C410.381 83.9474 410.229 83.9768 410.075 83.9758Z" fill="#6C63FF"/>
<path d="M471.531 84.3654H423.085C422.777 84.3633 422.482 84.2393 422.265 84.0204C422.048 83.8014 421.926 83.5054 421.926 83.1969C421.926 82.8883 422.048 82.5923 422.265 82.3734C422.482 82.1545 422.777 82.0304 423.085 82.0283H471.531C471.685 82.0273 471.838 82.0568 471.98 82.115C472.123 82.1733 472.252 82.2592 472.362 82.3678C472.471 82.4764 472.558 82.6056 472.617 82.7479C472.676 82.8901 472.706 83.0427 472.706 83.1969C472.706 83.351 472.676 83.5036 472.617 83.6459C472.558 83.7882 472.471 83.9174 472.362 84.026C472.252 84.1346 472.123 84.2205 471.98 84.2788C471.838 84.337 471.685 84.3665 471.531 84.3654Z" fill="#6C63FF"/>
<path d="M532.988 84.7545H484.542C484.234 84.7524 483.939 84.6284 483.722 84.4095C483.505 84.1906 483.383 83.8945 483.383 83.586C483.383 83.2775 483.505 82.9814 483.722 82.7625C483.939 82.5436 484.234 82.4196 484.542 82.4175H532.988C533.297 82.4196 533.591 82.5436 533.808 82.7625C534.026 82.9814 534.147 83.2775 534.147 83.586C534.147 83.8945 534.026 84.1906 533.808 84.4095C533.591 84.6284 533.297 84.7524 532.988 84.7545Z" fill="#6C63FF"/>
<path d="M324.288 72.8322C329.261 72.8322 333.292 68.7953 333.292 63.8155C333.292 58.8357 329.261 54.7988 324.288 54.7988C319.315 54.7988 315.284 58.8357 315.284 63.8155C315.284 68.7953 319.315 72.8322 324.288 72.8322Z" fill="#6C63FF"/>
<path d="M386.116 72.8322C391.089 72.8322 395.12 68.7953 395.12 63.8155C395.12 58.8357 391.089 54.7988 386.116 54.7988C381.144 54.7988 377.112 58.8357 377.112 63.8155C377.112 68.7953 381.144 72.8322 386.116 72.8322Z" fill="#6C63FF"/>
<path d="M447.944 72.8322C452.917 72.8322 456.948 68.7953 456.948 63.8155C456.948 58.8357 452.917 54.7988 447.944 54.7988C442.971 54.7988 438.94 58.8357 438.94 63.8155C438.94 68.7953 442.971 72.8322 447.944 72.8322Z" fill="#6C63FF"/>
<path d="M509.772 72.8322C514.745 72.8322 518.776 68.7953 518.776 63.8155C518.776 58.8357 514.745 54.7988 509.772 54.7988C504.799 54.7988 500.768 58.8357 500.768 63.8155C500.768 68.7953 504.799 72.8322 509.772 72.8322Z" fill="#6C63FF"/>
</g>
<defs>
<clipPath id="clip0_325_693">
<rect width="571" height="380" fill="white"/>
</clipPath>
</defs>
</svg>
