<svg width="14" height="15" viewBox="0 0 14 15" fill="none" xmlns="http://www.w3.org/2000/svg">
<path d="M0.25 14.25V11.0625L10.15 1.18125C10.3 1.04375 10.4658 0.9375 10.6473 0.8625C10.8288 0.7875 11.0192 0.75 11.2188 0.75C11.4183 0.75 11.612 0.7875 11.8 0.8625C11.988 0.9375 12.1505 1.05 12.2875 1.2L13.3187 2.25C13.4687 2.3875 13.5783 2.55 13.6473 2.7375C13.7163 2.925 13.7505 3.1125 13.75 3.3C13.75 3.5 13.7158 3.69075 13.6473 3.87225C13.5788 4.05375 13.4692 4.21925 13.3187 4.36875L3.4375 14.25H0.25ZM11.2 4.35L12.25 3.3L11.2 2.25L10.15 3.3L11.2 4.35Z" fill="#B9B5FF"/>
</svg>
