<svg width="39" height="39" viewBox="0 0 39 39" fill="none" xmlns="http://www.w3.org/2000/svg">
<rect width="38.6395" height="38.6395" rx="5" fill="#A4A4A4"/>
<path d="M11.5352 26.4102C11.2872 26.4102 11.0796 26.3262 10.9122 26.1582C10.7447 25.9902 10.6607 25.7825 10.6602 25.5352V23.4133C10.6602 23.1799 10.7039 22.9574 10.7914 22.7457C10.8789 22.5339 11.0029 22.3481 11.1633 22.1883L22.2102 11.1633C22.3852 11.0029 22.5785 10.8789 22.7903 10.7914C23.002 10.7039 23.2243 10.6602 23.457 10.6602C23.6898 10.6602 23.9158 10.7039 24.1352 10.7914C24.3545 10.8789 24.5441 11.0102 24.7039 11.1852L25.907 12.4102C26.082 12.5706 26.2095 12.7602 26.2894 12.9789C26.3693 13.1977 26.4096 13.4164 26.4102 13.6352C26.4102 13.8685 26.3699 14.091 26.2894 14.3028C26.2089 14.5145 26.0814 14.7076 25.907 14.882L14.882 25.907C14.7216 26.0674 14.5355 26.1914 14.3238 26.2789C14.112 26.3664 13.8898 26.4102 13.657 26.4102H11.5352ZM23.4352 14.8602L24.6602 13.6352L23.4352 12.4102L22.2102 13.6352L23.4352 14.8602Z" fill="white"/>
</svg>
