<svg width="18" height="12" viewBox="0 0 18 12" fill="none" xmlns="http://www.w3.org/2000/svg">
<path d="M9.00049 3.6C8.3495 3.6 7.72518 3.85286 7.26486 4.30294C6.80455 4.75303 6.54594 5.36348 6.54594 6C6.54594 6.63652 6.80455 7.24697 7.26486 7.69706C7.72518 8.14714 8.3495 8.4 9.00049 8.4C9.65147 8.4 10.2758 8.14714 10.7361 7.69706C11.1964 7.24697 11.455 6.63652 11.455 6C11.455 5.36348 11.1964 4.75303 10.7361 4.30294C10.2758 3.85286 9.65147 3.6 9.00049 3.6ZM9.00049 10C7.91551 10 6.87497 9.57857 6.10778 8.82843C5.34058 8.07828 4.90958 7.06087 4.90958 6C4.90958 4.93913 5.34058 3.92172 6.10778 3.17157C6.87497 2.42143 7.91551 2 9.00049 2C10.0855 2 11.126 2.42143 11.8932 3.17157C12.6604 3.92172 13.0914 4.93913 13.0914 6C13.0914 7.06087 12.6604 8.07828 11.8932 8.82843C11.126 9.57857 10.0855 10 9.00049 10ZM9.00049 0C4.90958 0 1.41594 2.488 0.000488281 6C1.41594 9.512 4.90958 12 9.00049 12C13.0914 12 16.585 9.512 18.0005 6C16.585 2.488 13.0914 0 9.00049 0Z" fill="#ADADAD"/>
</svg>
