<svg width="44" height="43" viewBox="0 0 44 43" fill="none" xmlns="http://www.w3.org/2000/svg">
<g clip-path="url(#clip0_1497_1528)">
<path d="M1.76159 21.1027C1.7606 24.6916 2.69832 28.1958 4.4814 31.2845L1.59106 41.8375L12.3908 39.0058C15.3779 40.6319 18.7247 41.484 22.1257 41.4842H22.1346C33.362 41.4842 42.5014 32.3482 42.5062 21.1188C42.5084 15.6774 40.3912 10.5606 36.5446 6.711C32.6987 2.86174 27.5837 0.740765 22.1338 0.738281C10.9051 0.738281 1.76639 9.87384 1.76176 21.1027" fill="url(#paint0_linear_1497_1528)"/>
<path d="M1.03433 21.0949C1.03317 24.8129 2.0045 28.4424 3.85115 31.6417L0.857178 42.5731L12.0442 39.6399C15.1266 41.3204 18.597 42.2065 22.1284 42.2078H22.1375C33.7677 42.2078 43.2354 32.7432 43.2403 21.1118C43.2423 15.4748 41.049 10.1741 37.065 6.18662C33.0805 2.19962 27.7826 0.00231783 22.1375 0C10.5053 0 1.03896 9.46337 1.03433 21.0949ZM7.6966 31.0907L7.27889 30.4276C5.52297 27.6357 4.59617 24.4092 4.59749 21.0962C4.60113 11.4284 12.4692 3.56284 22.1441 3.56284C26.8295 3.56482 31.2327 5.39127 34.5445 8.70511C37.8562 12.0193 39.6785 16.4248 39.6773 21.1105C39.673 30.7783 31.8048 38.6448 22.1375 38.6448H22.1305C18.9828 38.6432 15.8956 37.7978 13.2033 36.2004L12.5625 35.8204L5.92395 37.5609L7.6966 31.0907Z" fill="url(#paint1_linear_1497_1528)"/>
<path d="M16.8631 12.2749C16.4681 11.3969 16.0524 11.3792 15.6767 11.3638C15.3691 11.3506 15.0175 11.3516 14.6661 11.3516C14.3145 11.3516 13.7431 11.4839 13.2602 12.0112C12.7768 12.539 11.4146 13.8144 11.4146 16.4086C11.4146 19.0027 13.3041 21.51 13.5675 21.8621C13.8312 22.2136 17.2152 27.7075 22.5747 29.821C27.0289 31.5775 27.9354 31.2281 28.9021 31.14C29.8689 31.0523 32.0219 29.8649 32.4611 28.6336C32.9007 27.4025 32.9007 26.3473 32.7689 26.1267C32.6371 25.9071 32.2854 25.7751 31.7581 25.5115C31.2308 25.248 28.6383 23.9722 28.1551 23.7962C27.6716 23.6203 27.3202 23.5326 26.9685 24.0606C26.6169 24.5877 25.6071 25.7751 25.2993 26.1267C24.9919 26.4792 24.6841 26.5231 24.157 26.2594C23.6293 25.9948 21.9312 25.4387 19.9165 23.6425C18.349 22.2449 17.2907 20.5189 16.9831 19.991C16.6755 19.4638 16.9502 19.1781 17.2146 18.9153C17.4515 18.6791 17.7421 18.2996 18.006 17.9918C18.2689 17.6839 18.3566 17.4642 18.5324 17.1125C18.7084 16.7606 18.6204 16.4526 18.4887 16.1889C18.3566 15.9252 17.332 13.3174 16.8631 12.2749Z" fill="white"/>
</g>
<defs>
<linearGradient id="paint0_linear_1497_1528" x1="2047.35" y1="4110.66" x2="2047.35" y2="0.738281" gradientUnits="userSpaceOnUse">
<stop stop-color="#1FAF38"/>
<stop offset="1" stop-color="#60D669"/>
</linearGradient>
<linearGradient id="paint1_linear_1497_1528" x1="2120.02" y1="4257.31" x2="2120.02" y2="0" gradientUnits="userSpaceOnUse">
<stop stop-color="#F9F9F9"/>
<stop offset="1" stop-color="white"/>
</linearGradient>
<clipPath id="clip0_1497_1528">
<rect width="42.3832" height="42.7143" fill="white" transform="translate(0.857178)"/>
</clipPath>
</defs>
</svg>
