<svg width="54" height="54" viewBox="0 0 54 54" fill="none" xmlns="http://www.w3.org/2000/svg">
<rect width="54" height="54" rx="27" fill="#FFCD59"/>
<path d="M26.4999 33.5246L20.915 36.8978C20.7509 36.9789 20.5986 37.0117 20.4581 36.9963C20.3186 36.9799 20.1827 36.9317 20.0504 36.8517C19.917 36.7696 19.8165 36.6537 19.7488 36.5039C19.6811 36.3541 19.6749 36.1905 19.7303 36.013L21.2166 29.6881L16.301 25.4254C16.1625 25.3126 16.0712 25.1777 16.0271 25.0207C15.983 24.8637 15.9927 24.7134 16.0563 24.5698C16.1199 24.4262 16.2045 24.3082 16.3102 24.2158C16.4169 24.1266 16.5605 24.0661 16.741 24.0343L23.2274 23.4679L25.7568 17.4786C25.8265 17.3093 25.927 17.1872 26.0583 17.1123C26.1896 17.0374 26.3368 17 26.4999 17C26.663 17 26.8107 17.0374 26.943 17.1123C27.0753 17.1872 27.1753 17.3093 27.243 17.4786L29.7723 23.4679L36.2572 24.0343C36.4388 24.065 36.5829 24.1261 36.6896 24.2174C36.7962 24.3077 36.8814 24.4251 36.945 24.5698C37.0075 24.7134 37.0168 24.8637 36.9726 25.0207C36.9285 25.1777 36.8373 25.3126 36.6988 25.4254L31.7832 29.6881L33.2694 36.013C33.3268 36.1884 33.3212 36.3515 33.2525 36.5023C33.1838 36.6531 33.0827 36.7691 32.9494 36.8501C32.8181 36.9322 32.6822 36.9809 32.5417 36.9963C32.4022 37.0117 32.2504 36.9789 32.0863 36.8978L26.4999 33.5246Z" fill="white"/>
</svg>
