<svg width="54" height="54" viewBox="0 0 54 54" fill="none" xmlns="http://www.w3.org/2000/svg">
<rect width="54" height="54" rx="27" fill="#959595"/>
<path d="M16.0784 37C15.8719 37 15.6892 36.9513 15.5304 36.8539C15.3716 36.7565 15.248 36.6279 15.1598 36.4681C15.0645 36.311 15.0115 36.1412 15.001 35.9587C14.9921 35.7752 15.0442 35.5905 15.1571 35.4044L25.574 17.5319C25.687 17.3458 25.8229 17.2106 25.9817 17.1264C26.1405 17.0421 26.3135 17 26.5006 17C26.6876 17 26.8601 17.0421 27.0181 17.1264C27.1761 17.2106 27.3119 17.3458 27.4258 17.5319L37.844 35.4044C37.9569 35.5905 38.0086 35.7748 37.9988 35.9573C37.99 36.1417 37.9371 36.3119 37.84 36.4681C37.7518 36.6279 37.6282 36.7565 37.4694 36.8539C37.3106 36.9513 37.1283 37 36.9227 37H16.0784ZM26.5006 33.8615C26.7318 33.8615 26.9254 33.7838 27.0816 33.6285C27.2378 33.4731 27.3155 33.2805 27.3146 33.0506C27.3137 32.8206 27.2356 32.6284 27.0803 32.4739C26.925 32.3195 26.7318 32.2414 26.5006 32.2396C26.2694 32.2378 26.0761 32.3155 25.9208 32.4726C25.7655 32.6297 25.6874 32.8224 25.6865 33.0506C25.6857 33.2787 25.7638 33.4714 25.9208 33.6285C26.0779 33.7856 26.2711 33.8633 26.5006 33.8615ZM26.5006 30.9244C26.6894 30.9244 26.8469 30.8612 26.9731 30.7349C27.0993 30.6085 27.1624 30.4523 27.1624 30.2662V25.0003C27.1624 24.8133 27.0988 24.6567 26.9718 24.5303C26.8447 24.4039 26.6872 24.3411 26.4992 24.342C26.3113 24.3429 26.1542 24.4057 26.028 24.5303C25.9018 24.6549 25.8388 24.8116 25.8388 25.0003V30.2662C25.8388 30.4523 25.9023 30.6085 26.0294 30.7349C26.1564 30.8612 26.3139 30.9244 26.5019 30.9244" fill="white"/>
</svg>
