<svg width="54" height="54" viewBox="0 0 54 54" fill="none" xmlns="http://www.w3.org/2000/svg">
<rect width="54" height="54" rx="27" fill="#00C4CC"/>
<path d="M27.7499 21.75C27.7499 22.7446 27.3548 23.6984 26.6516 24.4017C25.9483 25.1049 24.9945 25.5 23.9999 25.5C23.0054 25.5 22.0515 25.1049 21.3483 24.4017C20.645 23.6984 20.2499 22.7446 20.2499 21.75C20.2499 20.7554 20.645 19.8016 21.3483 19.0983C22.0515 18.3951 23.0054 18 23.9999 18C24.9945 18 25.9483 18.3951 26.6516 19.0983C27.3548 19.8016 27.7499 20.7554 27.7499 21.75ZM31.3499 33.009C31.5149 33.822 30.8279 34.5 29.9999 34.5H17.9999C17.1704 34.5 16.4849 33.822 16.6469 33.009C16.992 31.3136 17.9124 29.7896 19.2522 28.695C20.5921 27.6004 22.269 27.0025 23.9992 27.0025C25.7293 27.0025 27.4063 27.6004 28.7461 28.695C30.086 29.7896 31.0064 31.3136 31.3514 33.009M36.0029 33H33.6179C33.605 32.8541 33.585 32.7089 33.5579 32.565C33.2707 31.1499 32.6728 29.8163 31.8074 28.6605C32.91 28.3563 34.087 28.4833 35.0992 29.0158C36.1114 29.5482 36.8829 30.4461 37.2569 31.527C37.5269 32.31 36.8324 33 36.0029 33ZM32.9999 27C33.7956 27 34.5586 26.6839 35.1212 26.1213C35.6839 25.5587 35.9999 24.7956 35.9999 24C35.9999 23.2044 35.6839 22.4413 35.1212 21.8787C34.5586 21.3161 33.7956 21 32.9999 21C32.2043 21 31.4412 21.3161 30.8786 21.8787C30.316 22.4413 29.9999 23.2044 29.9999 24C29.9999 24.7956 30.316 25.5587 30.8786 26.1213C31.4412 26.6839 32.2043 27 32.9999 27Z" fill="white"/>
</svg>
