<svg width="54" height="54" viewBox="0 0 54 54" fill="none" xmlns="http://www.w3.org/2000/svg">
<rect width="54" height="54" rx="27" fill="#938FD6"/>
<path d="M27 30C28.6569 30 30 28.6569 30 27C30 25.3431 28.6569 24 27 24C25.3431 24 24 25.3431 24 27C24 28.6569 25.3431 30 27 30Z" fill="white"/>
<path d="M38.2047 26.745C37.3226 24.4632 35.7912 22.49 33.7998 21.0691C31.8084 19.6482 29.4443 18.8419 26.9997 18.75C24.5551 18.8419 22.191 19.6482 20.1996 21.0691C18.2082 22.49 16.6768 24.4632 15.7947 26.745C15.7351 26.9098 15.7351 27.0902 15.7947 27.255C16.6768 29.5368 18.2082 31.51 20.1996 32.9309C22.191 34.3518 24.5551 35.1581 26.9997 35.25C29.4443 35.1581 31.8084 34.3518 33.7998 32.9309C35.7912 31.51 37.3226 29.5368 38.2047 27.255C38.2643 27.0902 38.2643 26.9098 38.2047 26.745ZM26.9997 31.875C26.0355 31.875 25.093 31.5891 24.2913 31.0534C23.4896 30.5177 22.8647 29.7564 22.4958 28.8656C22.1268 27.9748 22.0303 26.9946 22.2184 26.0489C22.4065 25.1033 22.8708 24.2346 23.5525 23.5529C24.2343 22.8711 25.103 22.4068 26.0486 22.2187C26.9943 22.0306 27.9745 22.1271 28.8653 22.4961C29.7561 22.8651 30.5174 23.4899 31.0531 24.2916C31.5888 25.0933 31.8747 26.0358 31.8747 27C31.8727 28.2923 31.3584 29.5311 30.4446 30.445C29.5308 31.3588 28.292 31.873 26.9997 31.875Z" fill="white"/>
</svg>
