<svg width="113" height="113" viewBox="0 0 113 113" fill="none" xmlns="http://www.w3.org/2000/svg">
<path d="M56.4058 89.901C55.4924 89.901 54.5868 89.7347 53.6891 89.402C52.7914 89.0724 52.002 88.5654 51.3208 87.8812L45.9157 83.008C37.5348 75.3962 30.1427 67.9932 23.7394 60.7988C17.3298 53.6076 14.125 46.1324 14.125 38.373C14.125 32.384 16.159 27.3555 20.227 23.2875C24.295 19.2195 29.3235 17.1855 35.3125 17.1855C38.7464 17.1855 42.3232 18.0534 46.0428 19.7893C49.7624 21.5251 53.2481 24.7989 56.5 29.6108C59.755 24.7989 63.2408 21.5251 66.9572 19.7893C70.6737 18.0534 74.2504 17.1855 77.6875 17.1855C83.6765 17.1855 88.705 19.2195 92.773 23.2875C96.841 27.3555 98.875 32.384 98.875 38.373C98.875 46.3113 95.5399 53.9419 88.8698 61.265C82.1997 68.588 74.8986 75.842 66.9666 83.0269L61.5897 87.8812C60.9054 88.5654 60.1003 89.0724 59.1743 89.402C58.2484 89.7315 57.3271 89.8979 56.4105 89.901" fill="#6C63FF"/>
</svg>
