<svg width="110" height="110" viewBox="0 0 110 110" fill="none" xmlns="http://www.w3.org/2000/svg">
<path d="M17.718 91.6668C15.4065 91.6668 13.9634 89.1629 15.1222 87.1629L52.4044 22.8138C53.5601 20.8191 56.4403 20.8191 57.596 22.8138L94.8782 87.1629C96.037 89.1629 94.5939 91.6668 92.2824 91.6668H17.718ZM55.0002 80.7402C55.8008 80.7402 56.4714 80.4697 57.0123 79.9289C57.5531 79.3881 57.822 78.7174 57.8189 77.9168C57.8159 77.1163 57.5455 76.4471 57.0077 75.9093C56.4699 75.3716 55.8008 75.0996 55.0002 75.0935C54.1996 75.0874 53.5305 75.3578 52.9927 75.9048C52.4549 76.4517 52.1845 77.1224 52.1814 77.9168C52.1784 78.7113 52.4488 79.382 52.9927 79.9289C53.5366 80.4759 54.2058 80.7463 55.0002 80.7402ZM52.7085 68.2231C52.7085 69.4887 53.7345 70.5147 55.0002 70.5147C56.2659 70.5147 57.2919 69.4887 57.2919 68.2231V49.8897C57.2919 48.6241 56.2659 47.5981 55.0002 47.5981C53.7345 47.5981 52.7085 48.6241 52.7085 49.8897V68.2231Z" fill="#6C63FF"/>
</svg>
