w<svg width="193" height="193" viewBox="0 0 193 193" fill="none" xmlns="http://www.w3.org/2000/svg">
<circle cx="96.5" cy="96.5" r="96.5" fill="#FFDEDF"/>
<path d="M96.0388 86.3443C101.672 86.3443 107.075 84.1065 111.058 80.1232C115.041 76.1399 117.279 70.7375 117.279 65.1043C117.279 59.4711 115.041 54.0686 111.058 50.0853C107.075 46.102 101.672 43.8643 96.0388 43.8643C90.4056 43.8643 85.0032 46.102 81.0199 50.0853C77.0366 54.0686 74.7988 59.4711 74.7988 65.1043C74.7988 70.7375 77.0366 76.1399 81.0199 80.1232C85.0032 84.1065 90.4056 86.3443 96.0388 86.3443Z" fill="#BD4749"/>
<path fill-rule="evenodd" clip-rule="evenodd" d="M119.933 116.877C117.37 116.877 114.853 117.551 112.634 118.831C110.414 120.112 108.571 121.954 107.289 124.172C106.006 126.391 105.33 128.908 105.329 131.47C105.327 134.032 106 136.55 107.279 138.77L127.223 118.826C125.007 117.546 122.492 116.874 119.933 116.877ZM132.783 124.534L112.987 144.33C115.754 145.829 118.931 146.394 122.046 145.942C125.16 145.489 128.044 144.042 130.27 141.817C132.495 139.591 133.942 136.707 134.395 133.592C134.848 130.478 134.282 127.301 132.783 124.534ZM97.3652 131.48C97.3652 128.516 97.949 125.581 99.0831 122.843C100.217 120.105 101.88 117.618 103.975 115.522C106.071 113.426 108.559 111.764 111.297 110.63C114.035 109.496 116.969 108.912 119.933 108.912C122.896 108.912 125.831 109.496 128.569 110.63C131.307 111.764 133.795 113.426 135.89 115.522C137.986 117.618 139.648 120.105 140.782 122.843C141.917 125.581 142.5 128.516 142.5 131.48C142.5 137.465 140.123 143.205 135.89 147.437C131.658 151.669 125.918 154.047 119.933 154.047C113.947 154.047 108.207 151.669 103.975 147.437C99.7429 143.205 97.3652 137.465 97.3652 131.48Z" fill="#BD4749"/>
<path opacity="0.4" d="M127.877 110.351C122.755 108.417 117.103 108.411 111.977 110.335C106.85 112.259 102.598 115.982 100.012 120.809C97.4271 125.636 96.6849 131.238 97.9243 136.572C99.1637 141.905 102.3 146.606 106.749 149.799C103.527 149.976 99.9574 150.064 96.0386 150.064C53.5586 150.064 53.5586 139.365 53.5586 126.169C53.5586 112.974 72.579 102.274 96.0386 102.274C108.714 102.274 120.093 105.397 127.877 110.351Z" fill="#BD4749"/>
</svg>
