<svg width="17" height="17" viewBox="0 0 17 17" fill="none" xmlns="http://www.w3.org/2000/svg">
<path d="M8.49935 1.41699C4.58935 1.41699 1.41602 4.59033 1.41602 8.50033C1.41602 12.4103 4.58935 15.5837 8.49935 15.5837C12.4093 15.5837 15.5827 12.4103 15.5827 8.50033C15.5827 4.59033 12.4093 1.41699 8.49935 1.41699ZM2.83268 8.50033C2.83268 5.36949 5.36852 2.83366 8.49935 2.83366C9.80977 2.83366 11.0139 3.27991 11.9702 4.03074L4.02977 11.9712C3.25175 10.9818 2.83001 9.75897 2.83268 8.50033ZM8.49935 14.167C7.18893 14.167 5.98477 13.7207 5.02852 12.9699L12.9689 5.02949C13.7469 6.01888 14.1687 7.24168 14.166 8.50033C14.166 11.6312 11.6302 14.167 8.49935 14.167Z" fill="#929292"/>
</svg>
