<svg width="193" height="193" viewBox="0 0 193 193" fill="none" xmlns="http://www.w3.org/2000/svg">
<circle cx="96.5" cy="96.5" r="96.5" fill="#FFDEDF"/>
<path fill-rule="evenodd" clip-rule="evenodd" d="M130.084 67.7578L125.831 140.061C125.673 142.766 124.486 145.308 122.515 147.167C120.544 149.025 117.937 150.06 115.227 150.06H76.848C74.1387 150.06 71.5316 149.025 69.5603 147.167C67.5891 145.308 66.4028 142.766 66.2443 140.061L62.0018 67.7578H50.9043V62.448C50.9043 61.7439 51.184 61.0686 51.6819 60.5707C52.1798 60.0728 52.8551 59.7931 53.5592 59.7931H138.516C139.22 59.7931 139.896 60.0728 140.393 60.5707C140.891 61.0686 141.171 61.7439 141.171 62.448V67.7578H130.084ZM85.4181 46.5186H106.657C107.361 46.5186 108.037 46.7983 108.535 47.2962C109.032 47.794 109.312 48.4693 109.312 49.1735V54.4833H82.7631V49.1735C82.7631 48.4693 83.0429 47.794 83.5408 47.2962C84.0386 46.7983 84.7139 46.5186 85.4181 46.5186ZM80.1082 81.0323L82.7631 128.821H90.7279L88.6039 81.0323H80.1082ZM104.002 81.0323L101.347 128.821H109.312L111.967 81.0323H104.002Z" fill="#BD4749"/>
</svg>
