<svg width="39" height="39" viewBox="0 0 39 39" fill="none" xmlns="http://www.w3.org/2000/svg">
<rect x="0.000976562" width="38.6395" height="38.6395" rx="5" fill="#6C63FF"/>
<g clip-path="url(#clip0_2103_3332)">
<path d="M18.5361 21.1688C19.9906 21.1688 21.1698 19.9896 21.1698 18.5351C21.1698 17.0805 19.9906 15.9014 18.5361 15.9014C17.0815 15.9014 15.9023 17.0805 15.9023 18.5351C15.9023 19.9896 17.0815 21.1688 18.5361 21.1688Z" fill="white"/>
<path d="M28.3732 18.3108C27.5988 16.3077 26.2544 14.5753 24.5062 13.3279C22.7579 12.0805 20.6825 11.3727 18.5363 11.292C16.3902 11.3727 14.3147 12.0805 12.5665 13.3279C10.8182 14.5753 9.4738 16.3077 8.69938 18.3108C8.64708 18.4555 8.64708 18.6139 8.69938 18.7586C9.4738 20.7618 10.8182 22.4941 12.5665 23.7415C14.3147 24.9889 16.3902 25.6967 18.5363 25.7774C20.6825 25.6967 22.7579 24.9889 24.5062 23.7415C26.2544 22.4941 27.5988 20.7618 28.3732 18.7586C28.4255 18.6139 28.4255 18.4555 28.3732 18.3108ZM18.5363 22.8145C17.6899 22.8145 16.8624 22.5635 16.1586 22.0932C15.4548 21.623 14.9062 20.9545 14.5823 20.1725C14.2584 19.3905 14.1736 18.53 14.3388 17.6998C14.5039 16.8696 14.9115 16.107 15.51 15.5084C16.1086 14.9099 16.8712 14.5023 17.7014 14.3372C18.5316 14.172 19.3921 14.2568 20.1741 14.5807C20.9561 14.9046 21.6246 15.4532 22.0948 16.157C22.5651 16.8608 22.8161 17.6883 22.8161 18.5347C22.8144 19.6692 22.3629 20.7568 21.5607 21.5591C20.7584 22.3613 19.6709 22.8128 18.5363 22.8145Z" fill="white"/>
</g>
<defs>
<clipPath id="clip0_2103_3332">
<rect width="21.0697" height="21.0697" fill="white" transform="translate(8.00098 8)"/>
</clipPath>
</defs>
</svg>
