<svg width="24" height="24" viewBox="0 0 24 24" fill="none" xmlns="http://www.w3.org/2000/svg">
<path d="M5.14286 19.6485H9.36229V13.8462C9.36229 13.5849 9.45105 13.3658 9.62857 13.1891C9.80533 13.0115 10.0244 12.9228 10.2857 12.9228H13.7143C13.9756 12.9228 14.195 13.0115 14.3726 13.1891C14.5493 13.3658 14.6377 13.5849 14.6377 13.8462V19.6485H18.8571V9.71478C18.8571 9.59745 18.8316 9.49078 18.7806 9.39478C18.7295 9.29878 18.6598 9.21497 18.5714 9.14335L12.4183 4.50564C12.301 4.40354 12.1615 4.3525 12 4.3525C11.8385 4.3525 11.6994 4.40354 11.5829 4.50564L5.42857 9.14335C5.34095 9.2165 5.27124 9.30031 5.21943 9.39478C5.16762 9.48926 5.1421 9.59592 5.14286 9.71478V19.6485ZM4 19.6485V9.71478C4 9.42221 4.06552 9.14526 4.19657 8.88393C4.32762 8.62259 4.50819 8.40735 4.73829 8.23821L10.8926 3.57764C11.2149 3.33154 11.5829 3.2085 11.9966 3.2085C12.4103 3.2085 12.7806 3.33154 13.1074 3.57764L19.2617 8.23707C19.4926 8.40621 19.6731 8.62183 19.8034 8.88393C19.9345 9.14526 20 9.42221 20 9.71478V19.6485C20 19.9548 19.8861 20.2218 19.6583 20.4496C19.4305 20.6775 19.1634 20.7914 18.8571 20.7914H14.4183C14.1562 20.7914 13.9368 20.703 13.76 20.5262C13.5832 20.3487 13.4949 20.1293 13.4949 19.8679V14.0668H10.5051V19.8679C10.5051 20.13 10.4168 20.3494 10.24 20.5262C10.0632 20.703 9.84419 20.7914 9.58286 20.7914H5.14286C4.83657 20.7914 4.56952 20.6775 4.34171 20.4496C4.1139 20.2218 4 19.9548 4 19.6485Z" fill="#6C63FF"/>
</svg>
