<svg width="24" height="24" viewBox="0 0 24 24" fill="none" xmlns="http://www.w3.org/2000/svg">
<path d="M0.937469 11.2502C0.938711 10.1068 1.39346 9.01063 2.20194 8.20214C3.01042 7.39366 4.10661 6.93891 5.24997 6.93767H8.98591C9.22778 6.92361 14.0578 6.60298 18.6562 2.74611C18.8475 2.58556 19.0807 2.48292 19.3282 2.45025C19.5758 2.41757 19.8276 2.45621 20.054 2.56164C20.2804 2.66706 20.472 2.83489 20.6064 3.04542C20.7407 3.25594 20.8122 3.50043 20.8125 3.75017V18.7502C20.8142 19.0001 20.7437 19.2452 20.6095 19.4561C20.4753 19.667 20.2831 19.8346 20.0559 19.9389C19.8817 20.0198 19.692 20.062 19.5 20.0627C19.1909 20.0629 18.8919 19.9532 18.6562 19.7533C14.9062 16.6108 11.009 15.8158 9.56247 15.6217V18.8092C9.56253 19.0253 9.50926 19.238 9.40737 19.4286C9.30548 19.6191 9.15814 19.7815 8.97841 19.9014L7.94716 20.5886C7.77273 20.7048 7.57303 20.7775 7.36476 20.8006C7.15648 20.8238 6.94568 20.7968 6.74999 20.7218C6.55431 20.6468 6.37942 20.526 6.23997 20.3696C6.10051 20.2132 6.00054 20.0256 5.94841 19.8227L4.81122 15.5374C3.75004 15.4274 2.76713 14.9285 2.05188 14.1369C1.33662 13.3453 0.939657 12.317 0.937469 11.2502ZM19.379 18.8927C19.4063 18.9157 19.4395 18.9304 19.4749 18.9352C19.5103 18.94 19.5462 18.9346 19.5786 18.9196C19.611 18.9046 19.6384 18.8808 19.6577 18.8507C19.677 18.8207 19.6873 18.7858 19.6875 18.7502V3.75017C19.6885 3.71448 19.6787 3.6793 19.6595 3.64921C19.6403 3.61912 19.6125 3.5955 19.5797 3.58142C19.5547 3.56966 19.5276 3.56327 19.5 3.56267C19.4564 3.56273 19.4144 3.57874 19.3818 3.60767C15.2568 7.06892 11.0381 7.84423 9.56528 8.01392V14.4827C11.0353 14.6561 15.2531 15.4324 19.379 18.8927ZM7.03778 19.5489C7.04506 19.5781 7.05923 19.6051 7.07912 19.6276C7.09901 19.6501 7.12402 19.6676 7.15205 19.6784C7.18009 19.6893 7.21031 19.6932 7.24019 19.6899C7.27006 19.6866 7.29871 19.6762 7.32372 19.6595L8.35497 18.9724C8.38072 18.9552 8.40182 18.9319 8.41638 18.9046C8.43094 18.8773 8.4385 18.8468 8.43841 18.8158V15.5627H5.98216L7.03778 19.5489ZM5.24997 14.4377H8.43747V8.06267H5.24997C4.40459 8.06267 3.59384 8.3985 2.99607 8.99627C2.39829 9.59404 2.06247 10.4048 2.06247 11.2502C2.06247 12.0955 2.39829 12.9063 2.99607 13.5041C3.59384 14.1018 4.40459 14.4377 5.24997 14.4377Z" fill="black"/>
</svg>
