<svg width="15" height="15" viewBox="0 0 15 15" fill="none" xmlns="http://www.w3.org/2000/svg">
<g clip-path="url(#clip0_2167_2460)">
<path fill-rule="evenodd" clip-rule="evenodd" d="M14.3542 0.646349C14.4228 0.714834 14.47 0.801766 14.49 0.896569C14.5101 0.991373 14.5022 1.08996 14.4672 1.18035L9.46722 14.1803C9.43183 14.2723 9.37004 14.3518 9.28962 14.4088C9.20919 14.4658 9.11372 14.4977 9.01521 14.5006C8.91669 14.5035 8.81951 14.4772 8.73589 14.425C8.65227 14.3728 8.58594 14.2971 8.54522 14.2073L6.45422 9.60735L9.53022 6.53035C9.6627 6.38817 9.73483 6.20013 9.7314 6.00583C9.72797 5.81152 9.64926 5.62614 9.51184 5.48873C9.37443 5.35131 9.18904 5.2726 8.99474 5.26917C8.80044 5.26575 8.6124 5.33787 8.47022 5.47035L5.39322 8.54635L0.793222 6.45635C0.703189 6.41569 0.627219 6.34926 0.5749 6.26547C0.522581 6.18167 0.496258 6.08425 0.499253 5.98551C0.502249 5.88676 0.534428 5.79112 0.591731 5.71065C0.649033 5.63017 0.728889 5.56848 0.821222 5.53335L13.8212 0.533349C13.9115 0.498623 14.0099 0.490816 14.1045 0.510872C14.1991 0.530928 14.2858 0.577987 14.3542 0.646349Z" fill="#5FB2D1"/>
</g>
<defs>
<clipPath id="clip0_2167_2460">
<rect width="14" height="14" fill="white" transform="translate(0.5 0.5)"/>
</clipPath>
</defs>
</svg>
