<svg width="17" height="13" viewBox="0 0 17 13" fill="none" xmlns="http://www.w3.org/2000/svg">
<path d="M16.4366 6.31938C15.8118 4.70313 14.7271 3.30539 13.3165 2.29892C11.9059 1.29245 10.2314 0.721367 8.49977 0.65625C6.76817 0.721367 5.09361 1.29245 3.68304 2.29892C2.27247 3.30539 1.18773 4.70313 0.562899 6.31938C0.5207 6.43609 0.5207 6.56391 0.562899 6.68062C1.18773 8.29687 2.27247 9.69461 3.68304 10.7011C5.09361 11.7075 6.76817 12.2786 8.49977 12.3438C10.2314 12.2786 11.9059 11.7075 13.3165 10.7011C14.7271 9.69461 15.8118 8.29687 16.4366 6.68062C16.4788 6.56391 16.4788 6.43609 16.4366 6.31938ZM8.49977 9.95312C7.81681 9.95312 7.14918 9.7506 6.58132 9.37117C6.01346 8.99173 5.57086 8.45243 5.3095 7.82145C5.04814 7.19048 4.97976 6.49617 5.113 5.82633C5.24624 5.15649 5.57512 4.5412 6.05805 4.05827C6.54097 3.57534 7.15626 3.24647 7.8261 3.11323C8.49594 2.97999 9.19025 3.04837 9.82123 3.30973C10.4522 3.57109 10.9915 4.01368 11.3709 4.58155C11.7504 5.14941 11.9529 5.81704 11.9529 6.5C11.9515 7.41539 11.5872 8.29289 10.9399 8.94018C10.2927 9.58746 9.41517 9.95172 8.49977 9.95312Z" fill="#6C63FF"/>
</svg>
