<svg width="39" height="39" viewBox="0 0 39 39" fill="none" xmlns="http://www.w3.org/2000/svg">
<rect width="38.6395" height="38.6395" rx="5" fill="#6C63FF"/>
<path d="M18.5341 21.1688C19.9887 21.1688 21.1678 19.9896 21.1678 18.5351C21.1678 17.0805 19.9887 15.9014 18.5341 15.9014C17.0795 15.9014 15.9004 17.0805 15.9004 18.5351C15.9004 19.9896 17.0795 21.1688 18.5341 21.1688Z" fill="white"/>
<path d="M28.3713 18.3108C27.5969 16.3077 26.2525 14.5753 24.5042 13.3279C22.756 12.0805 20.6805 11.3727 18.5344 11.292C16.3882 11.3727 14.3128 12.0805 12.5645 13.3279C10.8163 14.5753 9.47185 16.3077 8.69743 18.3108C8.64513 18.4555 8.64513 18.6139 8.69743 18.7586C9.47185 20.7618 10.8163 22.4941 12.5645 23.7415C14.3128 24.9889 16.3882 25.6967 18.5344 25.7774C20.6805 25.6967 22.756 24.9889 24.5042 23.7415C26.2525 22.4941 27.5969 20.7618 28.3713 18.7586C28.4236 18.6139 28.4236 18.4555 28.3713 18.3108ZM18.5344 22.8145C17.6879 22.8145 16.8604 22.5635 16.1566 22.0932C15.4528 21.623 14.9043 20.9545 14.5804 20.1725C14.2564 19.3905 14.1717 18.53 14.3368 17.6998C14.5019 16.8696 14.9096 16.107 15.5081 15.5084C16.1066 14.9099 16.8692 14.5023 17.6994 14.3372C18.5296 14.172 19.3901 14.2568 20.1722 14.5807C20.9542 14.9046 21.6226 15.4532 22.0929 16.157C22.5631 16.8608 22.8142 17.6883 22.8142 18.5347C22.8124 19.6692 22.3609 20.7568 21.5587 21.5591C20.7565 22.3613 19.6689 22.8128 18.5344 22.8145Z" fill="white"/>
</svg>
