<svg width="113" height="118" viewBox="0 0 233 158" fill="red" xmlns="http://www.w3.org/2000/svg">
<path d="M2.66456 9.45171C1.77431 13.1244 1.09699 16.8795 0.661534 20.7111C0.652179 20.7935 0.633428 20.8728 0.624267 20.9551C0.615156 21.0371 0.595888 21.116 0.586971 21.1982C0.218267 24.6002 0.000185175 28.0493 0 31.5493V31.5595C0.000185175 35.0594 0.218301 38.5084 0.586971 41.9103C0.595888 41.9922 0.614918 42.0711 0.624031 42.1531C0.63319 42.2357 0.651941 42.315 0.661296 42.3973C1.47787 49.583 3.14541 56.5002 5.47235 63.1084C5.50104 63.19 5.53256 63.2701 5.56149 63.3515C5.59048 63.4332 5.62141 63.514 5.65062 63.5955C8.28452 70.9463 11.7185 77.9194 15.9846 84.3064C16.0372 84.3853 16.0796 84.4711 16.1324 84.5496C16.186 84.6293 16.2325 84.7139 16.2863 84.7935C17.6713 86.8403 19.1848 88.7922 20.7209 90.7211C20.8053 90.8272 20.88 90.9415 20.9648 91.0473C21.0494 91.1528 21.1231 91.2673 21.2081 91.3723C25.4138 96.5627 30.1542 101.301 35.3473 105.505C35.4527 105.59 35.5675 105.663 35.6733 105.748C35.7789 105.833 35.893 105.907 35.999 105.992C37.9288 107.527 39.8814 109.04 41.929 110.424C42.0086 110.478 42.0932 110.524 42.173 110.577C42.2515 110.63 42.3373 110.673 42.4163 110.725C48.8057 114.989 55.7835 118.421 63.1369 121.054C63.2187 121.083 63.2995 121.114 63.3813 121.143C63.4627 121.172 63.543 121.204 63.6244 121.232C70.2352 123.558 77.1571 125.225 84.3453 126.041C84.4277 126.05 84.507 126.069 84.5894 126.078C84.6714 126.087 84.7504 126.106 84.8326 126.115C88.2373 126.484 91.6906 126.702 95.1933 126.702C98.6961 126.702 102.15 126.484 105.554 126.115C105.637 126.106 105.716 126.087 105.798 126.078C105.88 126.069 105.96 126.05 106.042 126.041C113.23 125.225 120.152 123.557 126.763 121.232C126.844 121.203 126.924 121.172 127.006 121.143C127.088 121.114 127.168 121.083 127.25 121.054C134.602 118.422 141.582 114.988 147.971 110.725C148.049 110.672 148.135 110.63 148.214 110.577C148.294 110.524 148.378 110.477 148.458 110.424C150.505 109.04 152.458 107.526 154.388 105.992C154.494 105.907 154.608 105.833 154.713 105.748C154.819 105.663 154.934 105.59 155.039 105.505C160.232 101.302 164.974 96.5617 169.179 91.3721C169.264 91.2669 169.337 91.152 169.422 91.0467C169.507 90.9409 169.582 90.8266 169.666 90.7207C171.202 88.7922 172.716 86.8397 174.1 84.7937C174.154 84.7139 174.201 84.6293 174.254 84.5496C174.307 84.4711 174.349 84.3853 174.402 84.3066C178.667 77.921 182.103 70.9442 184.736 63.5955C184.765 63.514 184.796 63.4332 184.825 63.3515C184.854 63.2701 184.886 63.1898 184.914 63.1084C187.241 56.502 188.909 49.5807 189.725 42.3973C189.735 42.315 189.753 42.2357 189.763 42.1531C189.772 42.0711 189.791 41.9922 189.8 41.9103C190.168 38.5078 190.387 35.0549 190.387 31.5544C190.387 28.0539 190.168 24.6008 189.8 21.1982C189.785 21.0631 189.74 20.8465 189.725 20.7111H190.217H190.387H190.63H190.874H211.074H211.563H211.595V0.000203251H207.734H207.227H190.874H190.63H190.387H185.431H184.914H175.164C173.706 0.000203251 172.308 0.579178 171.277 1.60982C170.245 2.64047 169.666 4.03838 169.666 5.49589V20.7111V20.9551V21.1982V31.5544C169.666 33.1823 169.525 34.7771 169.422 36.3788C169.348 37.5339 169.305 38.6973 169.179 39.8376C169.101 40.537 168.959 41.2168 168.862 41.9103C168.851 41.9916 168.837 42.072 168.825 42.1531C168.813 42.2349 168.8 42.3158 168.788 42.3973C167.718 49.6997 165.6 56.6566 162.569 63.1084C162.531 63.1898 162.49 63.2703 162.452 63.3515C162.413 63.433 162.373 63.514 162.334 63.5955C158.797 70.9843 154.118 77.7274 148.458 83.5222C148.373 83.6087 148.299 83.7045 148.214 83.7905C148.129 83.8763 148.056 83.9727 147.971 84.0581C147.888 84.1411 147.805 84.2238 147.722 84.3066C147.637 84.3914 147.54 84.465 147.454 84.5496C147.368 84.6344 147.272 84.7091 147.186 84.7937C141.388 90.4508 134.643 95.1274 127.25 98.6628C127.168 98.7019 127.087 98.7417 127.006 98.7804C126.924 98.819 126.844 98.8595 126.763 98.8977C120.307 101.927 113.348 104.044 106.042 105.113C105.96 105.125 105.879 105.139 105.798 105.151C105.716 105.162 105.636 105.176 105.554 105.188C104.859 105.285 104.178 105.427 103.477 105.505C102.334 105.631 101.168 105.674 100.01 105.748C98.4104 105.851 96.8187 105.991 95.1933 105.991C93.5679 105.991 91.9762 105.851 90.3766 105.748C89.2187 105.674 88.0527 105.631 86.9097 105.505C86.2086 105.427 85.5276 105.285 84.8326 105.188C84.7512 105.176 84.6706 105.162 84.5894 105.151C84.5079 105.139 84.4269 105.125 84.3453 105.113C77.0385 104.044 70.0806 101.928 63.6244 98.8979C63.543 98.8597 63.4627 98.8192 63.3813 98.7806C63.2995 98.7419 63.2185 98.7021 63.1369 98.663C55.7433 95.1272 48.999 90.4516 43.2006 84.7935C43.1142 84.7091 43.0183 84.6344 42.9323 84.5496C42.8464 84.465 42.75 84.3914 42.6645 84.3064C42.5815 84.2238 42.4989 84.1413 42.4161 84.0583C42.331 83.9729 42.2576 83.8765 42.173 83.7907C42.0881 83.7047 42.0134 83.6089 41.9288 83.5224C36.2676 77.7264 31.5902 70.9861 28.0523 63.5955C28.0134 63.514 27.9734 63.4332 27.9347 63.3515C27.896 63.2701 27.8558 63.19 27.8173 63.1084H28.3559H41.9288H42.173H42.4161H52.3654H52.9697H63.1369H63.3813H63.6244H84.3453H84.5894H84.8326H89.8128H100.574H105.554H105.798H106.042H126.763H127.006H127.25H127.946C133.177 63.1084 140.054 59.7375 142.403 55.0734C144.399 51.11 145.911 46.8628 146.844 42.3973C146.861 42.315 146.887 42.2357 146.903 42.1531C146.92 42.0736 146.925 41.99 146.941 41.9103C147.608 38.5609 147.97 35.1001 147.97 31.5544C147.97 28.0088 147.608 24.5478 146.94 21.1982C146.925 21.1184 146.92 21.0349 146.903 20.9551C146.887 20.8726 146.861 20.7935 146.844 20.7111C145.911 16.2459 144.399 11.9986 142.402 8.03508C140.054 3.37115 133.177 0 127.946 0H127.25H127.006H126.763H106.042H105.798H105.554H100.577H89.8096H84.8326H84.5894H84.3453H63.6244H63.3813H63.1369H52.9697H52.3654H42.4161H42.173H41.9288H28.3559H27.8177H21.2081H20.9648H20.7209H15.341C9.89081 0 3.94737 4.15959 2.66456 9.45171ZM22.091 20.7111H121.09C123.144 20.7111 125.406 22.2721 125.889 24.2667C126.437 26.5338 126.762 28.9693 126.762 31.5544C126.762 34.13 126.439 36.5669 125.889 38.8417C125.406 40.8363 123.144 42.3973 121.09 42.3973H106.042H105.798H105.554H84.8326H84.5894H84.3453H65.5782H65.0613H63.6244H63.3813H63.1369H43.5432H43.0415H42.4163H42.173H41.929H22.091C21.4757 38.23 21.2083 34.7464 21.2081 31.5595C21.2081 31.5581 21.2077 31.5561 21.2077 31.5544C21.2077 31.553 21.2081 31.5512 21.2081 31.5495C21.2086 25.82 22.091 20.995 22.091 20.7111ZM211.595 0.000203251V20.7111H231.85H232.315V20.4105V0H229.135H228.635L211.595 0.000203251Z" fill="white"/>
<path d="M69.8169 157.891C75.8798 157.891 80.7947 152.978 80.7947 146.918C80.7947 140.858 75.8798 135.945 69.8169 135.945C63.7538 135.945 58.8389 140.858 58.8389 146.918C58.8389 152.978 63.7538 157.891 69.8169 157.891Z" fill="white"/>
<path d="M116.158 157.891C122.221 157.891 127.136 152.978 127.136 146.918C127.136 140.858 122.221 135.945 116.158 135.945C110.095 135.945 105.18 140.858 105.18 146.918C105.18 152.978 110.095 157.891 116.158 157.891Z" fill="white"/>
</svg>
