<svg width="54" height="54" viewBox="0 0 54 54" fill="none" xmlns="http://www.w3.org/2000/svg">
<rect width="54" height="54" rx="8" fill="#6C63FF"/>
<path d="M26.9997 35.2173H17.6084M36.391 18.7825H32.8693M36.391 35.2173H31.6954M28.1736 18.7825H17.6084M21.1301 26.9999H17.6084M36.391 26.9999H25.8258" stroke="white" stroke-linecap="round"/>
<path d="M31.6957 35.2171C31.6957 33.9204 30.6445 32.8693 29.3478 32.8693C28.0512 32.8693 27 33.9204 27 35.2171C27 36.5138 28.0512 37.5649 29.3478 37.5649C30.6445 37.5649 31.6957 36.5138 31.6957 35.2171Z" stroke="white" stroke-linecap="round"/>
<path d="M25.8255 26.9998C25.8255 25.7032 24.7744 24.652 23.4777 24.652C22.181 24.652 21.1299 25.7032 21.1299 26.9998C21.1299 28.2965 22.181 29.3477 23.4777 29.3477C24.7744 29.3477 25.8255 28.2965 25.8255 26.9998Z" stroke="white" stroke-linecap="round"/>
<path d="M32.8695 18.7825C32.8695 17.4859 31.8183 16.4347 30.5217 16.4347C29.225 16.4347 28.1738 17.4859 28.1738 18.7825C28.1738 20.0792 29.225 21.1304 30.5217 21.1304C31.8183 21.1304 32.8695 20.0792 32.8695 18.7825Z" stroke="white" stroke-linecap="round"/>
</svg>
